<?xml version="1.0" encoding="UTF-8"?><svg id="_圖層_2" xmlns="http://www.w3.org/2000/svg" viewBox="0 0 271.59 109.29"><defs><style>.cls-1{fill:#123738;stroke-width:0px;}</style></defs><g id="_文字"><path class="cls-1" d="M187.99,52.94l.37,2.05c-2.45,1.06-5.02,2.08-7.07,2.87l-.84-2.32c.84-.27,1.88-.62,2.99-.99v-7.76h-2.55v-2.18h2.55v-5.51h2.1v5.51h2.25v2.18h-2.25v7.02l2.45-.87ZM203.29,53.04h-6.5v8.43h-2.3v-8.43h-6.48v-2.18h6.48v-8.68h-5.78v-2.2h13.94v2.2h-5.86v8.68h6.5v2.18ZM191.28,43.4c.69,1.88,1.24,4.3,1.41,5.91l-1.93.49c-.15-1.58-.69-4.03-1.31-5.93l1.83-.47ZM198.37,49.31c.57-1.63,1.24-4.2,1.53-6.06l2.17.47c-.62,2.1-1.33,4.52-1.95,6.03l-1.76-.44Z"/><path class="cls-1" d="M22.78,13.97c.16,0,.32-.03.4-.11.11-.05.19-.21.21-.5.05-.29.08-1.03.11-1.91.37.29.93.58,1.43.71-.05.95-.13,2.04-.26,2.43-.13.37-.37.66-.69.82-.26.19-.71.26-1.11.26h-1.06c-.5,0-1.03-.16-1.38-.5s-.48-.77-.48-2.22v-4.55h-1.85c-.05.77-.16,1.61-.4,2.43.85.5,1.56,1.03,2.09,1.48l-1.19,1.53c-.4-.4-.98-.82-1.59-1.24-.71,1.27-1.77,2.51-3.49,3.57-.21-.24-.53-.56-.87-.87-4.05.32-8.2.61-11.14.74l-.13-1.48c1.32-.05,2.94-.16,4.76-.24v-1.11h-3.62v-1.32h3.62v-1.3h1.9c-.11-.29-.13-.66-.13-1.11v-.4h-1.98c-.42,1.48-1.48,2.3-4,2.78-.16-.37-.56-.93-.87-1.19,1.93-.29,2.83-.74,3.2-1.59H1.51v-1.35h4.63v-.93h-3.39v-1.32h3.39v-.77h2.06v.77h3.36v1.32h-3.36v.93h4.6v1.35h-3.33v.42c0,.45.03.61.4.61h1.27c.29,0,.85-.03,1.14-.13.05.4.08.82.13,1.22-.29.11-.82.11-1.24.11h-1.69c-.63,0-1.03-.13-1.27-.42v1.01h3.73v1.32h-3.73v1.01l4.55-.24v.45c1.24-.9,2.04-1.88,2.57-2.91-.77-.42-1.59-.85-2.35-1.19l1.08-1.32c.58.24,1.27.53,1.88.85.13-.48.21-.98.24-1.46h-2.78v-1.8h2.83v-1.69h1.9v1.69h3.81v6.4c0,.48,0,.74.08.82.05.11.16.13.29.13h.48ZM1.06,19.05h23.47v1.48h-6.11c1.93.87,4.02,2.2,5.19,3.17l-1.69,1.14c-.45-.4-1.01-.82-1.67-1.3-14.37.63-15.93.66-16.99.95-.13-.34-.48-1.24-.71-1.69.53-.08,1.11-.29,1.8-.61.53-.24,1.75-.85,3.04-1.67H1.06v-1.48ZM7.22,3.62H1.29v-1.77h5.93V.21h2.38v1.64h2.86v1.77h-2.86v1.03h-2.38v-1.03ZM21.43,16.46v1.48H4.34v-1.48h17.09ZM17.86,22.09c-.61-.32-1.24-.64-1.83-.9l1.14-.66h-6.48c-1.08.71-2.2,1.35-3.31,1.93l10.48-.37ZM15.93,3.62h-2.62v-1.77h2.62V.21h2.41v1.64h6.09v1.77h-6.09v1.03h-2.41v-1.03Z"/><path class="cls-1" d="M51.37,10.72h-2.22v10.77c0,1.27-.21,1.96-1.01,2.33-.82.42-2.04.45-3.84.45-.08-.66-.4-1.69-.71-2.38,1.22.03,2.41.03,2.75.03.37-.03.48-.11.48-.42v-10.77h-2.7v-1.91h-4.13v15.64h-2.17v-15.64h-3.7v-2.06c-.56,1.14-1.19,2.3-1.9,3.41v14.39h-2.28v-11.27c-.64.74-1.3,1.4-1.96,2.01-.21-.53-.95-1.72-1.38-2.22,2.14-1.83,4.23-4.6,5.48-7.44l2.22.71-.08.19h3.6V.42h2.17v6.11h4.18v1.96h7.22l-.03,2.22ZM33.81,1.06c-1.35,2.22-3.44,4.68-5.4,6.24-.32-.5-.9-1.38-1.32-1.83,1.72-1.32,3.55-3.47,4.47-5.21l2.25.79ZM36.69,10.37c-.03,5.03-.32,8.41-2.35,10.45-.21-.42-.79-1.14-1.24-1.46,1.59-1.72,1.77-4.5,1.8-9h1.8ZM42.91,5.93c-.42-.93-1.35-2.41-2.22-3.47l1.53-.82c.9,1.01,1.85,2.41,2.3,3.33l-1.61.95ZM44.1,18.28c.24,0,.61-.05.85-.13.05.48.13,1.32.19,1.75-.29.11-.66.13-1.06.13h-.74c-1.77,0-2.09-.69-2.09-2.67v-6.98h1.8v7.04c0,.66.03.87.24.87h.82ZM51,4.47h-6.24v-2.17h6.24v2.17Z"/><path class="cls-1" d="M61.79,20.24c1.64,1.06,3.86,1.24,6.75,1.24s6.83-.21,9.37-.53c-.29.66-.66,1.96-.71,2.65-1.93.13-6.19.26-8.76.26-3.2,0-5.29-.32-7.09-1.4-1.08-.69-1.93-1.56-2.51-1.56-.82,0-2.04,1.64-3.2,3.36l-1.8-2.3c1.8-1.96,3.65-3.39,5.08-3.39.11,0,.19,0,.29.03,4.55-2.67,9.39-7.09,12.3-10.87h-16.35v-2.41h10.72c-.64-1.16-1.72-2.86-2.62-4.1l2.2-1.16c1.01,1.32,2.3,3.15,2.91,4.29l-1.75.98h6.77l.48-.13,1.88,1.22c-3.25,4.9-8.94,10.24-14.29,13.63l.34.21Z"/><path class="cls-1" d="M93.69,6.11c-.29.71-.58,1.43-.87,2.06h8.23v16.35h-2.57v-1.38h-12.78v1.38h-2.46V8.18h6.93c.19-.66.4-1.4.53-2.06h-10.29v-2.28h6.46c-.53-.85-1.35-1.96-2.06-2.75l2.17-.95c.95.9,1.98,2.2,2.51,3.1l-1.16.61h6.56c.79-1.06,1.69-2.57,2.22-3.62l2.78.63c-.71,1.06-1.51,2.12-2.22,2.99h6.3v2.28h-10.27ZM98.48,10.32h-12.78v2.2h12.78v-2.2ZM98.48,14.45h-12.78v2.25h12.78v-2.25ZM98.48,21.01v-2.38h-12.78v2.38h12.78Z"/><path class="cls-1" d="M18.05,94.37c-1.2,3.42-2.88,6.19-5.01,8.46,2.43,1.97,5.37,3.45,8.87,4.31-.48.45-1.09,1.34-1.43,1.95-3.61-.98-6.62-2.58-9.07-4.72-2.52,2.13-5.6,3.72-9.27,4.85-.25-.54-.88-1.52-1.31-2.02,3.65-.98,6.62-2.38,9.02-4.35-2.2-2.34-3.88-5.17-5.15-8.48H1.2v-2.04h9.82c-.27-.93-.91-2.36-1.52-3.42l2.22-.66c.66,1.07,1.38,2.52,1.68,3.45l-2.02.63h10.18v2.04h-3.51ZM6.89,94.37c1.09,2.68,2.61,5.01,4.54,7.01,1.84-1.9,3.24-4.22,4.26-7.01H6.89Z"/><path class="cls-1" d="M43.92,91.9c-.91.82-2.02,1.68-2.97,2.33,1.09.59,2.29,1.09,3.58,1.43-.41.39-.98,1.16-1.27,1.66-1.04-.32-2.04-.75-2.95-1.27v2.56c0,.52.07.68.39.68h1.41c.32,0,.86-.02,1.11-.09.02.43.07,1.04.14,1.47-.25.09-.75.11-1.2.11h-1.66c-1.59,0-1.9-.63-1.9-2.2v-1.79h-2.65v.09c0,1.52-.45,3.33-2.45,4.51-.25-.34-.86-.93-1.27-1.22v.36h-4.63c-.09.66-.18,1.34-.29,1.95h4.97s-.02.54-.07.82c-.27,3.11-.52,4.47-1.09,5.06-.43.43-.91.57-1.61.61-.61.07-1.77.04-2.99,0-.05-.54-.29-1.29-.63-1.79,1.2.11,2.38.14,2.83.14.39,0,.61-.02.82-.2.29-.27.52-1.13.7-3.04h-4.97c.29-1.38.63-3.47.82-5.15h4.26v-2.04h-3.51v-.32c-.77.39-1.56.73-2.34,1-.25-.45-.75-1.2-1.13-1.56,1.43-.43,2.88-1.11,4.15-1.95-.63-.57-1.56-1.22-2.34-1.7l1.2-1.13c.84.48,1.88,1.18,2.56,1.75.7-.59,1.29-1.27,1.79-1.97h-4.9v-1.68h6.01l.34-.07,1.34.63c-.98,2.22-2.58,3.99-4.49,5.35h3.2v4.78c1.68-.93,1.93-2.11,1.93-3.17v-1.7h4.72c-2.18-1.56-3.85-3.63-4.99-6.12l1.68-.5c.41.86.91,1.68,1.5,2.45.91-.7,1.95-1.66,2.56-2.38l1.52,1.09c-.95.88-2.09,1.77-3.04,2.43.45.45.93.84,1.45,1.22.97-.73,2.13-1.77,2.83-2.49l1.54,1.07ZM42.26,102.03c-.61,1.68-1.54,3.02-2.72,4.08,1.11.66,2.13,1.29,2.86,1.79l-1.09,1.38c-.79-.59-1.93-1.32-3.2-2.09-1.47.95-3.2,1.61-5.1,2.06-.18-.48-.59-1.16-.93-1.54,1.61-.29,3.08-.82,4.38-1.52-1.16-.7-2.34-1.38-3.38-1.97l.95-1.09h-.79v-1.5h7.53l.32-.04,1.18.43ZM34.26,103.14c1.13.61,2.45,1.32,3.72,2.06.7-.61,1.32-1.29,1.81-2.06h-5.53Z"/><path class="cls-1" d="M65.71,91.15c-.7,2.36-1.84,4.38-3.24,6.05,1.38,1.25,3.02,2.29,4.94,2.97-.41.38-1.02,1.22-1.29,1.75l-.45-.18v7.37h-2.02v-.73h-5.06v.79h-1.93v-7.42c-.34.16-.66.32-1,.45-.14-.27-.36-.61-.59-.93v.02h-2.65v3.58l2.81-.66.2,1.86c-3.11.79-6.39,1.59-8.84,2.15l-.36-2.04c.34-.07.7-.14,1.09-.2v-7.64h1.72v7.28l1.5-.34v-8.84h-3.15v-7.12h7.48v5.8c1.7-1.66,3.13-4.1,3.92-6.71l2.04.5c-.2.59-.43,1.18-.68,1.75h3.85l.36-.09,1.34.57ZM49.22,94.64h3.7v-3.49h-3.7v3.49ZM55.07,100.38c1.7-.73,3.36-1.81,4.78-3.22-.73-.86-1.29-1.75-1.79-2.61-.54.79-1.16,1.52-1.75,2.13-.32-.34-.98-.88-1.45-1.25v1.02h-2.45v2.99h2.65v.93ZM64.28,101.01c-1.18-.68-2.22-1.52-3.13-2.4-.95.93-2.02,1.75-3.13,2.4h6.26ZM63.65,106.57v-3.76h-5.06v3.76h5.06ZM59.31,92.46l-.2.41c.52.98,1.16,1.95,1.97,2.9.82-1,1.5-2.11,2.02-3.31h-3.79Z"/><path class="cls-1" d="M68.65,105.46l1.27-1.68c.98,1,2.22,1.84,3.95,1.84,1.88,0,3.17-1.04,3.17-2.77,0-1.86-1.18-3.06-4.94-3.06v-1.93c3.29,0,4.38-1.25,4.38-2.92,0-1.47-.98-2.4-2.56-2.43-1.29.02-2.38.66-3.33,1.59l-1.36-1.63c1.32-1.18,2.86-2.02,4.78-2.02,2.99,0,5.1,1.54,5.1,4.31,0,1.93-1.11,3.27-2.88,3.92v.11c1.93.48,3.45,1.93,3.45,4.17,0,3.02-2.52,4.78-5.58,4.78-2.63,0-4.33-1.04-5.44-2.29Z"/><path class="cls-1" d="M81.58,105.46l1.27-1.68c.98,1,2.22,1.84,3.95,1.84,1.88,0,3.17-1.04,3.17-2.77,0-1.86-1.18-3.06-4.94-3.06v-1.93c3.29,0,4.38-1.25,4.38-2.92,0-1.47-.98-2.4-2.56-2.43-1.29.02-2.38.66-3.33,1.59l-1.36-1.63c1.32-1.18,2.86-2.02,4.78-2.02,2.99,0,5.1,1.54,5.1,4.31,0,1.93-1.11,3.27-2.88,3.92v.11c1.93.48,3.45,1.93,3.45,4.17,0,3.02-2.52,4.78-5.58,4.78-2.63,0-4.33-1.04-5.44-2.29Z"/><path class="cls-1" d="M96.52,104.37c.66.75,1.68,1.25,2.74,1.25,2.02,0,3.76-1.63,3.92-6.39-.98,1.2-2.4,1.95-3.67,1.95-2.79,0-4.67-1.75-4.67-5.24,0-3.31,2.27-5.49,4.97-5.49,3.2,0,5.78,2.58,5.78,8.09,0,6.58-2.99,9.21-6.21,9.21-1.93,0-3.29-.77-4.26-1.77l1.41-1.61ZM103.14,97.25c-.25-3.29-1.5-4.79-3.31-4.79-1.43,0-2.56,1.29-2.56,3.47s.95,3.36,2.7,3.36c1.02,0,2.18-.59,3.17-2.04Z"/><path class="cls-1" d="M115.11,100.83s-.02.5-.05.77c-.29,4.29-.57,6.05-1.18,6.69-.36.43-.77.59-1.38.66-.5.07-1.36.07-2.29,0-.02-.52-.23-1.27-.52-1.75.86.07,1.66.09,2,.09.32,0,.52-.04.7-.23.34-.36.61-1.56.82-4.58h-4.49c.27-1,.61-2.33.84-3.61h-1.84v-1.84h8.23v1.84h-4.6c-.14.66-.27,1.34-.41,1.95h4.17ZM115.45,95.48h-6.67v-6.15h6.67v6.15ZM113.82,90.88h-3.49v3.06h3.49v-3.06ZM125.68,98.86c.39,0,1.13-.02,1.45-.14.02.54.07,1.07.14,1.54-.34.14-.95.16-1.52.16h-2.56c-1.63,0-2-.77-2-2.38v-.34l-1.93.2-.2-1.47,2.13-.2v-1.7h-2.54v4.06c0,3.15-.32,7.69-2.24,10.68-.29-.34-1.13-.91-1.54-1.11,1.75-2.79,1.95-6.69,1.95-9.59v-5.71h4.4v-4.42h2v1.41h4.44v1.7h-4.44v1.32h3.88l.32-.09,1.27.32c-.25,1.38-.61,3.02-.91,4.06l-1.56-.38c.14-.59.29-1.41.43-2.22h-3.65v1.52l2.56-.25.18,1.45-2.74.27v.57c0,.54.07.77.54.77h2.15ZM121.91,101.38c-.16,3.67-.66,6.3-3.15,7.89-.2-.43-.73-1.11-1.13-1.38,2.04-1.27,2.43-3.47,2.54-6.51h1.75ZM126.4,106.95c.2,0,.43-.02.52-.11.09-.07.2-.23.25-.43.05-.36.09-1.2.07-2.2.36.32,1,.68,1.5.84-.02,1.07-.11,2.18-.25,2.56-.16.45-.39.75-.7.93-.29.16-.79.27-1.22.27h-1.22c-.5,0-1.07-.11-1.38-.43-.36-.34-.43-.68-.43-1.81v-5.17h1.75v5.1c0,.14.02.27.14.34.09.07.23.11.43.11h.57Z"/><path class="cls-1" d="M140.08,98.68c0-5.98,2.34-8.91,5.87-8.91s5.84,2.95,5.84,8.91-2.34,9.05-5.84,9.05-5.87-3.09-5.87-9.05ZM148.54,98.68c0-4.84-1.12-6.24-2.59-6.24s-2.62,1.4-2.62,6.24,1.12,6.36,2.62,6.36,2.59-1.5,2.59-6.36Z"/><path class="cls-1" d="M153.42,105.32l1.61-2.17c1.03,1.01,2.29,1.78,3.86,1.78,1.75,0,2.95-.87,2.95-2.41,0-1.71-1-2.76-4.77-2.76v-2.48c3.18,0,4.21-1.1,4.21-2.64,0-1.36-.84-2.15-2.31-2.17-1.24.02-2.24.61-3.27,1.54l-1.75-2.1c1.5-1.31,3.16-2.13,5.19-2.13,3.34,0,5.61,1.64,5.61,4.61,0,1.87-1.05,3.23-2.9,3.95v.12c1.96.54,3.46,1.99,3.46,4.25,0,3.18-2.78,5.03-6.08,5.03-2.74,0-4.58-1.03-5.8-2.41Z"/><path class="cls-1" d="M167.73,99.47h6.38v2.46h-6.38v-2.46Z"/><path class="cls-1" d="M176.23,105.41c4.7-4.21,7.48-7.46,7.48-10.12,0-1.75-.96-2.8-2.59-2.8-1.26,0-2.31.82-3.18,1.78l-1.87-1.87c1.59-1.68,3.13-2.62,5.49-2.62,3.27,0,5.45,2.1,5.45,5.33s-2.6,6.5-5.75,9.58c.87-.09,2.01-.19,2.8-.19h3.76v2.9h-11.59v-1.99Z"/><path class="cls-1" d="M190.09,103.09c0-2.22,1.36-3.65,2.97-4.51v-.12c-1.33-.96-2.29-2.27-2.29-4.11,0-2.78,2.2-4.56,5.21-4.56s5.03,1.85,5.03,4.61c0,1.71-1.08,3.13-2.22,3.95v.12c1.59.87,2.9,2.27,2.9,4.63,0,2.62-2.31,4.63-5.82,4.63-3.3,0-5.77-1.92-5.77-4.63ZM198.48,102.98c0-1.8-1.59-2.55-3.83-3.46-.94.75-1.59,1.92-1.59,3.2,0,1.57,1.29,2.57,2.9,2.57,1.45,0,2.53-.82,2.53-2.31ZM198.2,94.61c0-1.4-.84-2.41-2.29-2.41-1.17,0-2.1.77-2.1,2.15,0,1.64,1.33,2.43,3.16,3.16.84-.89,1.24-1.87,1.24-2.9Z"/><path class="cls-1" d="M211.71,92.97h-7.78v-2.88h11.5v2.08c-4.02,4.91-4.56,8.44-4.84,15.22h-3.48c.3-6.01,1.31-9.84,4.61-14.42Z"/><path class="cls-1" d="M217.13,105.36l1.59-2.2c.98.96,2.2,1.75,3.81,1.75,1.8,0,3.06-1.15,3.06-3.18s-1.17-3.13-2.92-3.13c-1.03,0-1.59.26-2.59.91l-1.57-1.03.47-8.39h9.26v2.88h-6.29l-.33,3.67c.68-.33,1.29-.49,2.08-.49,2.9,0,5.33,1.73,5.33,5.49s-2.85,6.08-6.05,6.08c-2.74,0-4.56-1.08-5.84-2.36Z"/><path class="cls-1" d="M230.9,105.36l1.59-2.2c.98.96,2.2,1.75,3.81,1.75,1.8,0,3.06-1.15,3.06-3.18s-1.17-3.13-2.92-3.13c-1.03,0-1.59.26-2.59.91l-1.57-1.03.47-8.39h9.26v2.88h-6.29l-.33,3.67c.68-.33,1.29-.49,2.08-.49,2.9,0,5.33,1.73,5.33,5.49s-2.85,6.08-6.05,6.08c-2.74,0-4.56-1.08-5.84-2.36Z"/><path class="cls-1" d="M245.15,103.09c0-2.22,1.36-3.65,2.97-4.51v-.12c-1.33-.96-2.29-2.27-2.29-4.11,0-2.78,2.2-4.56,5.21-4.56s5.03,1.85,5.03,4.61c0,1.71-1.08,3.13-2.22,3.95v.12c1.59.87,2.9,2.27,2.9,4.63,0,2.62-2.31,4.63-5.82,4.63-3.3,0-5.77-1.92-5.77-4.63ZM253.55,102.98c0-1.8-1.59-2.55-3.83-3.46-.94.75-1.59,1.92-1.59,3.2,0,1.57,1.29,2.57,2.9,2.57,1.45,0,2.53-.82,2.53-2.31ZM253.27,94.61c0-1.4-.84-2.41-2.29-2.41-1.17,0-2.1.77-2.1,2.15,0,1.64,1.33,2.43,3.16,3.16.84-.89,1.24-1.87,1.24-2.9Z"/><path class="cls-1" d="M258.92,103.09c0-2.22,1.36-3.65,2.97-4.51v-.12c-1.33-.96-2.29-2.27-2.29-4.11,0-2.78,2.2-4.56,5.21-4.56s5.03,1.85,5.03,4.61c0,1.71-1.08,3.13-2.22,3.95v.12c1.59.87,2.9,2.27,2.9,4.63,0,2.62-2.31,4.63-5.82,4.63-3.3,0-5.77-1.92-5.77-4.63ZM267.31,102.98c0-1.8-1.59-2.55-3.83-3.46-.94.75-1.59,1.92-1.59,3.2,0,1.57,1.29,2.57,2.9,2.57,1.45,0,2.53-.82,2.53-2.31ZM267.03,94.61c0-1.4-.84-2.41-2.29-2.41-1.17,0-2.1.77-2.1,2.15,0,1.64,1.33,2.43,3.16,3.16.84-.89,1.24-1.87,1.24-2.9Z"/><path class="cls-1" d="M128.14,13.84c-.05.61-.16,1.19-.26,1.75h10.61v2.09h-11.17c-1.24,3.44-4.05,5.66-11.03,6.8-.19-.66-.77-1.67-1.24-2.22,5.79-.79,8.31-2.28,9.5-4.58h-8.44v-2.09h9.18c.11-.56.21-1.11.29-1.75h-10.05v-2.17h10.35v-1.88h-7.99v-2.09h7.99v-1.8h-9.47v-2.17h5.32c-.42-.87-1.14-1.96-1.77-2.75l2.14-.85c.9.95,1.8,2.28,2.17,3.2l-.87.4h6.46c.71-1.06,1.61-2.54,2.06-3.6l2.62.71c-.61.98-1.32,2.04-1.96,2.88h5.4v2.17h-9.55v1.8h8.28v2.09h-8.28v1.88h10.66v2.17h-10.93ZM137.93,24.63c-2.35-1.53-7.09-3.73-10.64-5.11l1.08-1.85c3.47,1.24,8.28,3.33,10.69,4.79l-1.14,2.17Z"/><path class="cls-1" d="M165.76,10.72h-2.22v10.77c0,1.27-.21,1.96-1.01,2.33-.82.42-2.04.45-3.84.45-.08-.66-.4-1.69-.71-2.38,1.22.03,2.41.03,2.75.03.37-.03.48-.11.48-.42v-10.77h-2.7v-1.91h-4.13v15.64h-2.17v-15.64h-3.7v-2.06c-.56,1.14-1.19,2.3-1.91,3.41v14.39h-2.28v-11.27c-.63.74-1.3,1.4-1.96,2.01-.21-.53-.95-1.72-1.38-2.22,2.14-1.83,4.23-4.6,5.48-7.44l2.22.71-.08.19h3.6V.42h2.17v6.11h4.18v1.96h7.22l-.03,2.22ZM148.19,1.06c-1.35,2.22-3.44,4.68-5.4,6.24-.32-.5-.9-1.38-1.32-1.83,1.72-1.32,3.54-3.47,4.47-5.21l2.25.79ZM151.08,10.37c-.03,5.03-.32,8.41-2.36,10.45-.21-.42-.79-1.14-1.24-1.46,1.59-1.72,1.77-4.5,1.8-9h1.8ZM157.29,5.93c-.42-.93-1.35-2.41-2.22-3.47l1.53-.82c.9,1.01,1.85,2.41,2.3,3.33l-1.61.95ZM158.48,18.28c.24,0,.61-.05.85-.13.05.48.13,1.32.19,1.75-.29.11-.66.13-1.06.13h-.74c-1.77,0-2.09-.69-2.09-2.67v-6.98h1.8v7.04c0,.66.03.87.24.87h.82ZM165.39,4.47h-6.24v-2.17h6.24v2.17Z"/><path class="cls-1" d="M189.75,7.73v-2.51h-9.53v2.09h9.42v6.83h-7.78v1.96h8.97v8.28h-2.17v-.93h-6.8v1.03h-2.14V7.73h-1.54v-4l-1.03,1.83c-.82-.63-2.38-1.59-3.73-2.38-.56.69-1.14,1.38-1.75,1.98h4.31v1.69h-4.52v-1.48c-.85.82-1.8,1.59-2.7,2.2-.13-.48-.66-1.67-1.01-2.2,2.04-1.24,4.18-3.25,5.37-5.37l1.93.69c-.13.29-.29.58-.48.85,1.27.71,2.78,1.56,3.62,2.12v-.4h6.03c-.29-.71-.74-1.67-1.11-2.33l2.14-.9c.53.9,1.11,2.06,1.43,2.8l-.85.42h6.01v4.47h-2.12ZM175.49,17.65c.95,1.64,2.09,3.92,2.62,5.21l-1.77.87c-.21-.56-.53-1.22-.85-1.96-4.95,1.96-5.74,2.33-6.25,2.7-.11-.56-.48-1.53-.79-2.06.42-.19.98-.56.98-1.53v-12.7h7.78v9.08h-5.66v3.94l3.12-1.11c-.32-.61-.58-1.19-.87-1.72l1.69-.71ZM171.55,10v1.77h3.49v-1.77h-3.49ZM175.04,15.43v-1.88h-3.49v1.88h3.49ZM181.87,9.29v2.88h5.69v-2.88h-5.69ZM181.87,18.12v3.23h6.8v-3.23h-6.8Z"/><path class="cls-1" d="M198.9,3.94c-.82,1.32-1.77,2.49-2.7,3.39-.34-.4-1.19-1.24-1.67-1.61,1.56-1.4,3.04-3.55,3.86-5.69l2.2.64c-.16.45-.37.9-.61,1.35h6.32v1.93h-4.45c.82.66,1.64,1.53,2.12,2.09l-1.59,1.4c-.53-.71-1.67-1.85-2.54-2.67l.98-.82h-1.93ZM217.24,15.8s-.03.61-.08.95c-.32,3.57-.63,5.19-1.32,5.87-.5.53-1.03.71-1.83.77-.66.05-1.96.08-3.31,0-.03-.69-.32-1.61-.69-2.25,1.19.13,2.41.16,2.86.13.45,0,.71-.03.93-.21.32-.34.56-1.22.79-3.17h-7.04v6.61h-2.43v-5.61c-2.28,2.41-5.48,4.44-8.47,5.58-.37-.56-1.03-1.48-1.59-1.93,2.94-.9,6.03-2.67,8.15-4.66h-6.38c.37-1.67.74-4.18.95-6.19h7.33v-2.06h-8.25v-2.04h19.31v6.14h-8.63v2.06h9.68ZM199.88,13.73c-.08.71-.18,1.4-.29,2.06h5.53v-2.06h-5.24ZM218.53,2.01v1.93h-5.21c.85.63,1.8,1.46,2.3,2.04l-1.67,1.43c-.56-.69-1.72-1.77-2.7-2.54l1.16-.93h-2.65c-.61.95-1.32,1.8-2.01,2.46-.4-.4-1.3-1.11-1.85-1.46,1.43-1.19,2.65-3.02,3.31-4.9l2.25.53c-.18.5-.37.95-.58,1.43h7.65ZM207.55,11.69h6.22v-2.06h-6.22v2.06Z"/><path class="cls-1" d="M245.09,10.77v2.7h-24.08v-2.7h24.08Z"/><path class="cls-1" d="M255.45,13.55c-.9.29-1.83.58-2.73.87v7.38c0,1.22-.24,1.88-.95,2.28-.71.37-1.75.45-3.44.45-.05-.58-.34-1.64-.66-2.28,1.06.03,2.04.03,2.33,0,.34,0,.48-.08.48-.45v-6.69c-1.03.32-2.01.61-2.88.9l-.56-2.38c.95-.24,2.14-.58,3.44-.95v-5.03h-3.07v-2.28h3.07V.26h2.25v5.11h2.65v2.28h-2.65v4.37l2.41-.71.32,2.25ZM259.87.21h2.2v11.09c0,5.24-.58,10-5.26,13.23-.4-.48-1.22-1.27-1.75-1.64,2.17-1.46,3.39-3.25,4.05-5.27-1.3.5-2.59.98-3.76,1.4l-.95-2.12c1.4-.37,3.28-.95,5.24-1.59.13-.98.21-1.98.24-3.02h-3.92v-2.2h3.92v-3.25h-4.13v-2.22h4.13V.21ZM271.59,18.04h-4.84v6.43h-2.33V.21h2.33v4.42h4.39v2.22h-4.39v3.25h4.1v2.2h-4.1v3.49h4.84v2.25Z"/><path class="cls-1" d="M9.25,44.2c-1.16,6.5-3.93,11.25-7.39,13.77-.4-.54-1.29-1.43-1.85-1.8,2.99-1.98,5.31-5.54,6.45-10.13H.82v-2.32h6.48l.42-.1,1.53.59ZM21.14,43.51c-1.71,1.85-3.86,3.98-5.59,5.44,1.98,2.94,4.6,5.39,7.59,6.77-.54.47-1.33,1.41-1.71,2.1-3.68-1.95-6.6-5.44-8.7-9.62v9.02c0,1.41-.3,2.15-1.14,2.55-.84.42-2.15.52-4.08.52-.12-.69-.49-1.88-.87-2.57,1.38.07,2.67.07,3.09.05.4,0,.57-.12.57-.54v-19.65h2.42v5.91c.47,1.26,1.04,2.5,1.73,3.68,1.58-1.51,3.41-3.54,4.57-5.17l2.1,1.51Z"/><path class="cls-1" d="M29.15,47.24v2.67c0,2.99-.42,7.24-2.65,9.96-.35-.42-1.33-1.21-1.83-1.48,1.95-2.45,2.18-5.93,2.18-8.5v-4.67h20.02v2.03h-17.72ZM45.66,43.51h-18.71v-5.04h2.32v2.99h5.71v-3.93h2.42v3.93h5.83v-2.99h2.42v5.04ZM47.24,55.35h-7.71v4.92h-2.42v-4.92h-7.37v-2.03h7.37v-2.35h-6.18v-1.95h15.1v1.95h-6.5v2.35h7.71v2.03Z"/><path class="cls-1" d="M58.69,39.01c-1.76,4.03-4.55,8.08-7.27,10.58-.4-.47-1.43-1.43-2.03-1.9,2.69-2.22,5.27-5.83,6.77-9.47l2.52.79ZM65.64,50.55c1.98,2.67,4.3,6.13,5.46,8.36l-2.32,1.26c-.35-.72-.77-1.51-1.31-2.4-12.38.91-13.87,1.01-14.96,1.43-.1-.52-.57-1.8-.91-2.47.74-.2,1.41-.94,2.37-2.08,1.01-1.09,4.15-5.39,6.13-9.52l2.67,1.09c-2.03,3.61-4.5,7.19-6.97,10.04l10.36-.62c-.92-1.43-1.88-2.87-2.74-4.1l2.22-.99ZM66.11,38.17c1.14,3.71,3.51,7.32,6.45,9.15-.54.52-1.36,1.56-1.78,2.27-2.79-2.1-5.07-5.56-6.43-9.07h-4.3v-2.35h6.06Z"/><path class="cls-1" d="M95.93,38.59v21.65h-2.25v-.96h-16.22v.96h-2.15v-21.65h20.62ZM93.68,57.2v-16.54h-16.22v16.54h16.22ZM86.48,54.01c-.05.4-.05,1.06.02,1.41-4.4,1.19-5.07,1.36-5.46,1.63-.1-.4-.35-1.04-.57-1.31.37-.15.89-.42.89-1.33v-1.41c-.79.3-1.58.57-2.35.79-.2-.35-.79-1.01-1.11-1.33,1.76-.4,3.73-1.04,5.22-1.78h-3.16v-3.58h11.37v3.58h-5.61c-.74.59-1.66,1.11-2.65,1.58v2.55l3.41-.79ZM92.61,46.25h-14.09v-1.36h5.96v-1.29h-4.65v-1.33h4.65v-1.21h2.08v1.21h4.89v1.33h-4.89v1.29h6.06v1.36ZM81.88,49.59h7.42v-1.38h-7.42v1.38ZM92.71,51.99c-.79.57-1.66,1.09-2.47,1.51.99.69,1.9,1.36,2.57,1.93l-1.51.91c-1.36-1.21-4.1-3.16-6.3-4.45l1.41-.82c.79.47,1.71,1.01,2.57,1.58.84-.49,1.73-1.09,2.3-1.56l1.43.89Z"/><path class="cls-1" d="M102.31,45.19h-2.32v-5.24h9.32c-.27-.62-.59-1.29-.89-1.83l2.25-.67c.44.74.96,1.73,1.31,2.5h8.78v5.24h-2.45v-3.07h-15.99v3.07ZM117.14,57.6c1.33,0,1.56-.54,1.76-3.26.54.4,1.56.79,2.27.94-.35,3.58-1.09,4.57-3.86,4.57h-5.17c-3.21,0-4.08-.74-4.08-3.49v-3.83h-7.54v-2.25h7.54v-3.07c-1.93.27-3.91.52-5.76.69-.1-.54-.42-1.48-.67-2,4.97-.54,10.58-1.48,13.77-2.74l1.8,1.88c-1.88.72-4.2,1.26-6.65,1.73v3.51h9.15v2.25h-9.15v3.83c0,1.06.27,1.24,1.75,1.24h4.82Z"/><path class="cls-1" d="M147.82,57.14l1.88-2.59c1.16,1.13,2.59,2.07,4.5,2.07,2.12,0,3.61-1.35,3.61-3.75s-1.38-3.7-3.45-3.7c-1.21,0-1.88.3-3.06,1.08l-1.85-1.21.55-9.9h10.92v3.39h-7.42l-.39,4.33c.8-.39,1.52-.58,2.46-.58,3.42,0,6.29,2.04,6.29,6.48s-3.37,7.17-7.15,7.17c-3.23,0-5.38-1.27-6.9-2.79Z"/><path class="cls-1" d="M163.27,54.47c0-2.62,1.6-4.3,3.5-5.32v-.14c-1.57-1.13-2.7-2.68-2.7-4.86,0-3.28,2.59-5.38,6.15-5.38s5.93,2.18,5.93,5.43c0,2.01-1.27,3.7-2.62,4.66v.14c1.88,1.02,3.42,2.68,3.42,5.46,0,3.09-2.73,5.46-6.87,5.46-3.89,0-6.81-2.26-6.81-5.46ZM173.17,54.33c0-2.12-1.88-3.01-4.52-4.08-1.1.88-1.88,2.26-1.88,3.78,0,1.85,1.52,3.03,3.42,3.03,1.71,0,2.98-.97,2.98-2.73ZM172.84,44.45c0-1.66-.99-2.84-2.7-2.84-1.38,0-2.48.91-2.48,2.54,0,1.93,1.57,2.87,3.72,3.72.99-1.05,1.46-2.21,1.46-3.42Z"/><path class="cls-1" d="M232.04,57.09l1.9-2.57c1.21,1.19,2.7,2.1,4.55,2.1,2.07,0,3.48-1.02,3.48-2.84,0-2.01-1.19-3.26-5.63-3.26v-2.92c3.75,0,4.97-1.3,4.97-3.12,0-1.6-.99-2.54-2.73-2.57-1.46.03-2.65.72-3.86,1.82l-2.07-2.48c1.77-1.54,3.72-2.51,6.12-2.51,3.95,0,6.62,1.93,6.62,5.44,0,2.21-1.24,3.81-3.42,4.66v.14c2.32.63,4.08,2.35,4.08,5.02,0,3.75-3.28,5.93-7.17,5.93-3.23,0-5.41-1.21-6.84-2.84Z"/><path class="cls-1" d="M260.52,51.37c-.08.62-.18,1.17-.31,1.74h8.71s-.03.62-.05.91c-.34,3.42-.67,4.92-1.35,5.6-.49.47-1.06.62-1.84.67-.7.08-1.97.05-3.32,0-.05-.62-.31-1.45-.65-2.02,1.24.13,2.46.13,2.93.13.44,0,.67-.03.91-.21.34-.34.6-1.24.83-3.19h-6.76c-1.01,2.41-2.95,4.2-6.76,5.36-.21-.54-.83-1.45-1.32-1.87,4.87-1.32,6.09-3.73,6.58-7.12h-5.08c-.36,3.26-1.29,6.68-3.32,9.15-.34-.49-1.29-1.42-1.76-1.71,2.72-3.42,2.95-8.39,2.95-12.15v-8.16h.03c5.8-.34,12.59-1.01,16.48-1.92l1.84,1.81c-4.33.96-10.42,1.58-15.96,1.89v1.14h16.48v5.88h-16.48c0,.67-.03,1.4-.08,2.15h7.46c-.26-.54-.54-1.14-.86-1.61l2.33-.54c.47.62.88,1.45,1.19,2.15h8.14v1.92h-10.96ZM253.3,43.32v2.1h14.12v-2.1h-14.12Z"/><path class="cls-1" d="M226.21,54.8v1.53h-15.24v-1.53h2.21v-7.77h1.63v7.77h3.39v-10.66h-6.62v-1.55h14.1v1.55h-5.81v4.17h5.07v1.53h-5.07v4.96h6.33Z"/><path class="cls-1" d="M224.58,39.34c1.78,1,3.18,2.38,4.2,4.16,1.01,1.78,1.52,3.79,1.52,6.03s-.51,4.33-1.52,6.12c-1.01,1.78-2.41,3.17-4.2,4.15-1.78.98-3.79,1.47-6.02,1.47s-4.16-.5-5.93-1.5c-1.78-1-3.18-2.39-4.21-4.17-1.03-1.78-1.55-3.81-1.55-6.07s.52-4.18,1.57-5.97c1.05-1.78,2.46-3.18,4.25-4.2,1.78-1.01,3.74-1.52,5.87-1.52s4.23.5,6.02,1.5ZM224.04,58.8c1.61-.9,2.86-2.16,3.76-3.77.9-1.61,1.34-3.44,1.34-5.5s-.45-3.84-1.36-5.44c-.9-1.6-2.16-2.86-3.77-3.77-1.61-.91-3.43-1.37-5.45-1.37s-3.72.47-5.33,1.41c-1.61.94-2.88,2.22-3.81,3.83-.93,1.62-1.39,3.4-1.39,5.34s.45,3.82,1.36,5.44c.9,1.62,2.16,2.89,3.77,3.81,1.61.92,3.41,1.38,5.4,1.38s3.87-.45,5.48-1.36Z"/><path class="cls-1" d="M137.76,62.12h-1.18v-25.13h1.18v25.13Z"/><path class="cls-1" d="M1.06,77.99v-1.51h268.78v1.51H1.06Z"/></g></svg>