<?xml version="1.0" encoding="UTF-8"?><svg id="_圖層_2" xmlns="http://www.w3.org/2000/svg" viewBox="0 0 206.32 18.37"><defs><style>.cls-1{fill:#123738;stroke-width:0px;}</style></defs><g id="_文字"><path class="cls-1" d="M6.49,8.98c-.51-.74-1.47-1.86-2.41-2.84-.7,1.47-1.58,2.72-2.64,3.7-.31-.35-1.04-.98-1.45-1.27,2-1.64,3.25-4.34,3.81-7.53l1.86.29c-.23,1.11-.53,2.17-.9,3.15,1.08,1.02,2.35,2.31,2.95,3.17l-1.23,1.33ZM9.94,15.67h7.86v1.74H.33v-1.74h7.73v-3.27H1.74v-1.72h6.32V.43h1.88v7.45c1.76-1.54,2.88-3.95,3.42-6.77l1.84.31c-.25,1.15-.61,2.27-1,3.29,1.29,1.21,2.84,2.74,3.62,3.74l-1.29,1.33c-.65-.92-1.9-2.29-3.11-3.46-.67,1.21-1.47,2.27-2.41,3.11-.22-.24-.69-.67-1.08-1v2.25h6.48v1.72h-6.48v3.27Z"/><path class="cls-1" d="M24.87,10.21c-.53.21-1.06.41-1.6.61v5.24c0,.86-.18,1.31-.65,1.58-.51.27-1.23.33-2.37.33-.06-.43-.27-1.15-.49-1.6.72.04,1.41.04,1.6.02.23,0,.33-.06.33-.31v-4.64l-1.66.61-.47-1.74c.61-.2,1.33-.45,2.13-.72v-3.91h-1.9v-1.68h1.9V.2h1.56v3.79h1.45v1.68h-1.45v3.36l1.31-.45.29,1.62ZM28.51,11.21c.06-.29.12-.59.18-.88l1.31.25c-.65,3.38-2.17,5.93-4.79,7.43-.2-.31-.68-.86-1-1.09,1.72-.94,2.97-2.33,3.76-4.11-2.13.59-2.58.76-2.88.98-.08-.31-.29-1-.47-1.37.37-.1.69-.51,1.1-1.13.23-.35.76-1.25,1.33-2.39-1.41.18-1.8.27-2.03.41-.1-.33-.35-1.04-.53-1.43.25-.06.49-.31.68-.72.23-.39.96-1.9,1.27-3.31l1.43.65c-.35,1-.86,2.07-1.39,2.97l1.27-.1c.18-.39.33-.82.47-1.23l1.33.74c-.68,1.58-1.53,3.23-2.43,4.66l1.39-.33ZM37.39,3.78h-12.38v-1.57h5.26c-.2-.49-.47-1-.72-1.43l1.29-.49c.41.57.8,1.33,1.04,1.92h5.52v1.57ZM37.41,16.94h-5.71v.96h-1.45v-8.22c-.1.14-.2.27-.29.37-.23-.24-.82-.74-1.15-.98,1.06-1.23,1.94-3.13,2.48-4.99l1.41.35c-.18.59-.39,1.21-.63,1.78h1.94c-.2-.53-.47-1.11-.74-1.58l1.23-.45c.37.61.76,1.43.98,2.03h1.76v1.41h-2.25v1.7h1.94v1.27h-1.94v1.7h1.84v1.27h-1.84v1.96h2.43v1.41ZM33.55,7.63h-1.86v1.7h1.86v-1.7ZM33.55,10.6h-1.86v1.7h1.86v-1.7ZM31.7,15.53h1.86v-1.96h-1.86v1.96Z"/><path class="cls-1" d="M48.88,10.23c-.04.45-.12.88-.2,1.29h7.84v1.54h-8.25c-.92,2.54-2.99,4.19-8.16,5.03-.14-.49-.57-1.23-.92-1.64,4.28-.59,6.14-1.68,7.02-3.38h-6.24v-1.54h6.79c.08-.41.16-.82.21-1.29h-7.43v-1.6h7.65v-1.39h-5.91v-1.54h5.91v-1.33h-7v-1.6h3.93c-.31-.65-.84-1.45-1.31-2.03l1.58-.63c.67.7,1.33,1.68,1.6,2.37l-.65.29h4.77c.53-.78,1.19-1.88,1.53-2.66l1.94.53c-.45.72-.98,1.51-1.45,2.13h3.99v1.6h-7.06v1.33h6.12v1.54h-6.12v1.39h7.88v1.6h-8.08ZM56.11,18.21c-1.74-1.13-5.24-2.76-7.86-3.78l.8-1.37c2.56.92,6.12,2.46,7.9,3.54l-.84,1.6Z"/><path class="cls-1" d="M76.7,7.92h-1.64v7.96c0,.94-.16,1.45-.74,1.72-.61.31-1.51.33-2.84.33-.06-.49-.29-1.25-.53-1.76.9.02,1.78.02,2.03.02.27-.02.35-.08.35-.31v-7.96h-2v-1.41h-3.05v11.56h-1.6V6.51h-2.74v-1.53c-.41.84-.88,1.7-1.41,2.52v10.64h-1.68v-8.33c-.47.55-.96,1.04-1.45,1.49-.16-.39-.7-1.27-1.02-1.64,1.58-1.35,3.13-3.4,4.05-5.5l1.64.53-.06.14h2.66V.31h1.6v4.52h3.09v1.45h5.34l-.02,1.64ZM63.71.78c-1,1.64-2.54,3.46-3.99,4.62-.23-.37-.67-1.02-.98-1.35,1.27-.98,2.62-2.56,3.31-3.85l1.66.59ZM65.84,7.67c-.02,3.72-.23,6.22-1.74,7.73-.16-.31-.59-.84-.92-1.08,1.17-1.27,1.31-3.33,1.33-6.65h1.33ZM70.44,4.38c-.31-.69-1-1.78-1.64-2.56l1.13-.61c.67.74,1.37,1.78,1.7,2.46l-1.19.71ZM71.32,13.52c.18,0,.45-.04.63-.1.04.35.1.98.14,1.29-.22.08-.49.1-.78.1h-.55c-1.31,0-1.55-.51-1.55-1.98v-5.16h1.33v5.2c0,.49.02.65.18.65h.61ZM76.43,3.31h-4.62v-1.6h4.62v1.6Z"/><path class="cls-1" d="M94.45,5.71v-1.86h-7.04v1.54h6.96v5.05h-5.75v1.45h6.63v6.12h-1.6v-.68h-5.03v.76h-1.58V5.71h-1.13v-2.95l-.76,1.35c-.61-.47-1.76-1.17-2.76-1.76-.41.51-.84,1.02-1.29,1.47h3.19v1.25h-3.35v-1.1c-.63.61-1.33,1.17-2,1.62-.1-.35-.49-1.23-.74-1.62,1.51-.92,3.09-2.41,3.97-3.97l1.43.51c-.1.22-.21.43-.35.63.94.53,2.05,1.15,2.68,1.57v-.29h4.46c-.22-.53-.55-1.23-.82-1.72l1.58-.67c.39.67.82,1.53,1.06,2.07l-.63.31h4.44v3.31h-1.56ZM83.9,13.05c.7,1.21,1.55,2.9,1.94,3.85l-1.31.65c-.16-.41-.39-.9-.63-1.45-3.66,1.45-4.24,1.72-4.62,2-.08-.41-.35-1.13-.59-1.53.31-.14.72-.41.72-1.13V6.04h5.75v6.71h-4.19v2.92l2.31-.82c-.23-.45-.43-.88-.65-1.27l1.25-.53ZM80.99,7.39v1.31h2.58v-1.31h-2.58ZM83.57,11.41v-1.39h-2.58v1.39h2.58ZM88.62,6.87v2.13h4.21v-2.13h-4.21ZM88.62,13.4v2.39h5.03v-2.39h-5.03Z"/><path class="cls-1" d="M116,.72c-.41,1.33-.9,2.68-1.47,3.97v13.42h-1.7v-10.09c-.41.67-.8,1.27-1.23,1.82-.16-.43-.61-1.41-.9-1.86,1.53-1.9,2.86-4.79,3.68-7.71l1.62.45ZM128.77,2.09v1.58h-10.97v5.01c0,2.8-.2,6.83-1.43,9.41-.31-.29-1.02-.74-1.43-.9,1.13-2.43,1.23-5.93,1.23-8.51V2.09h5.63c-.2-.55-.43-1.15-.67-1.64l1.6-.43c.33.63.67,1.43.9,2.07h5.12ZM121.91,4.36c-.25.92-.55,1.9-.92,2.84v10.84h-1.53v-7.77c-.27.43-.57.8-.86,1.17-.14-.39-.45-1.06-.69-1.43,1.23-1.53,2.09-4.01,2.48-5.99l1.51.33ZM127.13,6.81h1.55v1.53h-1.55v7.88c0,.82-.16,1.27-.68,1.53-.53.25-1.33.29-2.56.29-.06-.41-.27-1.09-.47-1.53.82.02,1.6.02,1.82,0,.25,0,.33-.06.33-.31v-7.86h-3.81v-1.53h3.81v-2.56h1.56v2.56ZM123.76,14.07c-.37-1.06-1.19-2.76-1.86-4.03l1.23-.59c.7,1.27,1.53,2.89,1.92,3.93l-1.29.68Z"/><path class="cls-1" d="M147.85,5.42c-.27,3.11-.74,5.77-1.62,7.96.61,1.35,1.41,2.52,2.46,3.4-.31.27-.86.96-1.09,1.37-.9-.84-1.6-1.9-2.17-3.07-.67,1.19-1.53,2.21-2.58,3.09-.16-.31-.63-.9-.94-1.23v1.17h-1.53v-2.68c-1.49.35-2.95.67-4.21.94l-.45-1.57h-3.07v1.72h-1.55V1.25h4.7v13.54c.35-.06.76-.12,1.19-.2V5.65h-.9v-1.47h2.5v-1.92h-2.19V.82h5.97v1.45h-2.15v1.92h2.54v1.47h-.86v2.91c1.06-2.09,1.6-5.22,1.92-8.41l1.54.23c-.14,1.19-.31,2.39-.53,3.52h3.66v1.51h-.65ZM132.65,2.8v2.43h1.56v-2.43h-1.56ZM132.65,9.21h1.56v-2.48h-1.56v2.48ZM134.22,13.22v-2.5h-1.56v2.5h1.56ZM138.48,5.65v1.84h1.9v-1.84h-1.9ZM138.48,10.78h1.9v-1.88h-1.9v1.88ZM140.38,13.97v-1.8h-1.9v2.15l1.9-.35ZM141.9,16.8c1.21-.94,2.09-2.15,2.76-3.62-.53-1.53-.86-3.13-1.1-4.64-.21.53-.43,1.02-.68,1.47-.18-.27-.67-.82-.98-1.15v7.94ZM144.53,5.42l-.1.37c.18,1.68.47,3.54.98,5.3.45-1.66.72-3.56.88-5.67h-1.76Z"/><path class="cls-1" d="M167.57,6.4v1.41h-17.1v-1.41h7.57v-1.21h-5.67v-1.33h5.67v-1.1h-6.38v-1.41h6.38V.18h1.84v1.17h6.67v1.41h-6.67v1.1h5.85v1.33h-5.85v1.21h7.69ZM165.11,16.28c0,.9-.23,1.33-.92,1.57-.7.23-1.8.23-3.4.23-.08-.43-.33-1.06-.55-1.47,1.08.04,2.29.04,2.58.04.33-.02.43-.1.43-.39v-1.23h-8.59c-.22,1.21-.63,2.43-1.39,3.35-.25-.37-1-1.08-1.39-1.33,1.1-1.35,1.21-3.23,1.21-4.71v-3.48h12.01v7.43ZM163.25,13.79v-1.17h-8.37c0,.37-.02.78-.06,1.17h8.43ZM154.88,10.21v1.15h8.37v-1.15h-8.37Z"/><path class="cls-1" d="M187.46,2.09v1.56h-9.68v4.26c0,3.05-.29,7.32-2.25,10.13-.29-.27-1-.74-1.37-.92.82-1.17,1.33-2.58,1.6-4.01-1.94.9-4.01,1.82-5.65,2.54l-.61-1.84c.67-.24,1.47-.53,2.33-.88v-6.36h-2.15v-1.72h2.15V.43h1.68v4.44h2.13v1.72h-2.13v5.67l1.92-.78.35,1.6c.35-1.76.41-3.62.41-5.16V2.09h4.67c-.21-.53-.53-1.13-.8-1.62l1.74-.47c.39.65.82,1.49,1.06,2.09h4.6ZM186.24,7.38h1.15v1.51h-1.15v2.35h-3.4v1.19h3.54v5.69h-1.64v-.65h-4.93v.65h-1.58v-5.69h3.01v-1.19h-2.82v-1.29h2.82v-1.15h-3.37v-1.27h3.37v-1.17h-2.74v-1.31h2.74v-1.06h1.6v1.06h3.4v2.35ZM184.74,13.89h-4.93v2.13h4.93v-2.13ZM182.84,7.51h1.84v-1.17h-1.84v1.17ZM184.68,9.94v-1.15h-1.84v1.15h1.84Z"/><path class="cls-1" d="M206.32,1v17.14h-1.78v-.76h-12.83v.76h-1.7V1h16.31ZM204.54,15.73V2.64h-12.83v13.09h12.83ZM198.85,13.21c-.04.31-.04.84.02,1.11-3.48.94-4.01,1.08-4.32,1.29-.08-.31-.27-.82-.45-1.04.29-.12.7-.33.7-1.06v-1.12c-.63.24-1.25.45-1.86.63-.16-.27-.63-.8-.88-1.06,1.39-.31,2.95-.82,4.13-1.41h-2.5v-2.84h9v2.84h-4.44c-.59.47-1.31.88-2.09,1.25v2.02l2.7-.63ZM203.7,7.06h-11.15v-1.08h4.71v-1.02h-3.68v-1.06h3.68v-.96h1.64v.96h3.87v1.06h-3.87v1.02h4.79v1.08ZM195.21,9.7h5.87v-1.1h-5.87v1.1ZM203.78,11.6c-.63.45-1.31.86-1.96,1.19.78.55,1.51,1.08,2.04,1.53l-1.19.72c-1.08-.96-3.25-2.5-4.99-3.52l1.12-.65c.63.37,1.35.8,2.03,1.25.67-.39,1.37-.86,1.82-1.23l1.13.7Z"/></g></svg>