<?xml version="1.0" encoding="UTF-8"?><svg id="_圖層_2" xmlns="http://www.w3.org/2000/svg" viewBox="0 0 1127.4 122"><defs><style>.cls-1{fill:#123738;stroke-width:0px;}</style></defs><g id="_文字"><path class="cls-1" d="M43.88,29.02c.31,0,.62-.05.78-.21.21-.1.36-.42.42-.99.1-.57.16-2.03.21-3.74.73.57,1.82,1.14,2.81,1.4-.1,1.87-.26,4-.52,4.78-.26.73-.73,1.3-1.35,1.61-.52.36-1.4.52-2.18.52h-2.08c-.99,0-2.03-.31-2.7-.99-.68-.68-.94-1.51-.94-4.37v-8.94h-3.64c-.1,1.51-.31,3.17-.78,4.78,1.66.99,3.07,2.03,4.11,2.91l-2.34,3.01c-.78-.78-1.92-1.61-3.12-2.44-1.4,2.49-3.48,4.94-6.86,7.02-.42-.47-1.04-1.09-1.72-1.71-7.95.62-16.11,1.2-21.88,1.46l-.26-2.91c2.6-.1,5.77-.31,9.35-.47v-2.18h-7.12v-2.6h7.12v-2.55h3.74c-.21-.57-.26-1.3-.26-2.18v-.78h-3.9c-.83,2.91-2.91,4.52-7.85,5.46-.31-.73-1.09-1.82-1.72-2.34,3.79-.57,5.56-1.46,6.29-3.12H2.09v-2.65h9.09v-1.82h-6.65v-2.6h6.65v-1.51h4.05v1.51h6.6v2.6h-6.6v1.82h9.04v2.65h-6.55v.83c0,.88.05,1.2.78,1.2h2.49c.57,0,1.66-.05,2.23-.26.1.78.16,1.61.26,2.39-.57.21-1.61.21-2.44.21h-3.33c-1.25,0-2.03-.26-2.49-.83v1.97h7.33v2.6h-7.33v1.97l8.94-.47v.88c2.44-1.77,4-3.69,5.04-5.72-1.51-.83-3.12-1.66-4.63-2.34l2.13-2.6c1.14.47,2.49,1.04,3.69,1.66.26-.94.42-1.92.47-2.86h-5.46v-3.53h5.56v-3.33h3.74v3.33h7.48v12.58c0,.94,0,1.46.16,1.61.1.21.31.26.57.26h.94ZM1.21,39h46.1v2.91h-12.01c3.79,1.71,7.9,4.31,10.19,6.24l-3.33,2.24c-.88-.78-1.97-1.61-3.27-2.55-28.22,1.25-31.29,1.3-33.37,1.87-.26-.68-.94-2.44-1.4-3.33,1.04-.16,2.18-.57,3.53-1.2,1.04-.47,3.43-1.66,5.98-3.27H1.21v-2.91ZM13.32,8.7H1.68v-3.48h11.64V1.99h4.68v3.22h5.61v3.48h-5.61v2.03h-4.68v-2.03ZM41.23,33.9v2.91H7.65v-2.91h33.57ZM34.21,44.97c-1.2-.62-2.44-1.25-3.59-1.77l2.23-1.3h-12.73c-2.13,1.4-4.31,2.65-6.5,3.79l20.58-.73ZM30.42,8.7h-5.15v-3.48h5.15V1.99h4.73v3.22h11.95v3.48h-11.95v2.03h-4.73v-2.03Z"/><path class="cls-1" d="M100.07,22.63h-4.37v21.15c0,2.5-.42,3.85-1.97,4.57-1.61.83-4,.88-7.54.88-.16-1.3-.78-3.33-1.4-4.68,2.39.05,4.73.05,5.41.05.73-.05.94-.21.94-.83v-21.15h-5.3v-3.74h-8.11v30.72h-4.26v-30.72h-7.28v-4.05c-1.09,2.24-2.34,4.52-3.74,6.7v28.27h-4.47v-22.14c-1.25,1.46-2.55,2.75-3.85,3.95-.42-1.04-1.87-3.38-2.7-4.37,4.21-3.59,8.32-9.04,10.76-14.6l4.37,1.4-.16.36h7.07V2.41h4.26v12.01h8.21v3.85h14.19l-.05,4.37ZM65.56,3.66c-2.65,4.37-6.76,9.2-10.6,12.27-.62-.99-1.77-2.7-2.6-3.59,3.38-2.6,6.96-6.81,8.78-10.24l4.42,1.56ZM71.22,21.95c-.05,9.88-.62,16.53-4.63,20.53-.42-.83-1.56-2.24-2.44-2.86,3.12-3.38,3.48-8.84,3.53-17.67h3.53ZM83.44,13.22c-.83-1.82-2.65-4.73-4.37-6.81l3.01-1.61c1.77,1.98,3.64,4.73,4.52,6.55l-3.17,1.87ZM85.77,37.49c.47,0,1.2-.1,1.66-.26.1.93.26,2.6.36,3.43-.57.21-1.3.26-2.08.26h-1.46c-3.48,0-4.11-1.35-4.11-5.25v-13.72h3.53v13.82c0,1.3.05,1.72.47,1.72h1.61ZM99.34,10.36h-12.27v-4.26h12.27v4.26Z"/><path class="cls-1" d="M120.55,41.34c3.22,2.08,7.59,2.44,13.25,2.44s13.41-.42,18.4-1.04c-.57,1.3-1.3,3.85-1.4,5.2-3.79.26-12.16.52-17.2.52-6.29,0-10.39-.62-13.93-2.75-2.13-1.35-3.79-3.07-4.94-3.07-1.61,0-4,3.22-6.29,6.6l-3.53-4.52c3.53-3.85,7.17-6.65,9.98-6.65.21,0,.36,0,.57.05,8.94-5.25,18.45-13.93,24.17-21.36h-32.12v-4.73h21.05c-1.25-2.29-3.38-5.61-5.15-8.06l4.31-2.29c1.98,2.6,4.52,6.18,5.72,8.42l-3.43,1.92h13.3l.94-.26,3.69,2.39c-6.39,9.62-17.57,20.11-28.06,26.77l.68.42Z"/><path class="cls-1" d="M183.23,13.58c-.57,1.4-1.14,2.81-1.71,4.05h16.16v32.12h-5.04v-2.7h-25.1v2.7h-4.83V17.64h13.62c.36-1.3.78-2.75,1.04-4.05h-20.22v-4.47h12.68c-1.04-1.66-2.65-3.85-4.05-5.4l4.26-1.87c1.87,1.77,3.9,4.31,4.94,6.08l-2.29,1.2h12.89c1.56-2.08,3.33-5.04,4.37-7.12l5.46,1.25c-1.4,2.08-2.96,4.16-4.37,5.87h12.37v4.47h-20.17ZM192.64,21.85h-25.1v4.31h25.1v-4.31ZM192.64,29.95h-25.1v4.42h25.1v-4.42ZM192.64,42.84v-4.68h-25.1v4.68h25.1Z"/><path class="cls-1" d="M35.94,89.84c-2.51,7.14-6.01,12.91-10.45,17.64,5.06,4.11,11.21,7.19,18.49,8.98-.99.95-2.27,2.79-2.98,4.07-7.52-2.03-13.81-5.39-18.92-9.83-5.25,4.44-11.68,7.75-19.34,10.12-.52-1.13-1.84-3.17-2.74-4.21,7.61-2.03,13.81-4.96,18.82-9.08-4.59-4.87-8.09-10.78-10.73-17.68H.8v-4.26h20.48c-.57-1.94-1.89-4.92-3.17-7.14l4.63-1.37c1.37,2.22,2.88,5.25,3.5,7.19l-4.21,1.32h21.23v4.26h-7.33ZM12.67,89.84c2.27,5.58,5.44,10.45,9.46,14.61,3.83-3.97,6.76-8.8,8.89-14.61H12.67Z"/><path class="cls-1" d="M89.89,84.68c-1.89,1.7-4.21,3.5-6.19,4.87,2.27,1.23,4.78,2.27,7.47,2.98-.85.8-2.03,2.41-2.65,3.45-2.18-.66-4.26-1.56-6.15-2.65v5.34c0,1.09.14,1.42.8,1.42h2.93c.66,0,1.8-.05,2.32-.19.05.9.14,2.18.28,3.07-.52.19-1.56.24-2.51.24h-3.45c-3.31,0-3.97-1.32-3.97-4.59v-3.74h-5.53v.19c0,3.17-.95,6.95-5.11,9.41-.52-.71-1.8-1.94-2.65-2.55v.76h-9.65c-.19,1.37-.38,2.79-.61,4.07h10.36s-.05,1.13-.14,1.7c-.57,6.48-1.09,9.32-2.27,10.54-.9.9-1.89,1.18-3.36,1.28-1.28.14-3.69.09-6.24,0-.09-1.13-.61-2.7-1.32-3.74,2.51.24,4.97.28,5.91.28.8,0,1.28-.05,1.7-.42.61-.57,1.09-2.36,1.47-6.34h-10.36c.61-2.88,1.32-7.23,1.7-10.73h8.89v-4.26h-7.33v-.66c-1.61.8-3.26,1.51-4.87,2.08-.52-.95-1.56-2.51-2.36-3.26,2.98-.9,6.01-2.32,8.65-4.07-1.32-1.18-3.26-2.55-4.87-3.55l2.51-2.36c1.75.99,3.92,2.46,5.34,3.64,1.47-1.23,2.7-2.65,3.74-4.11h-10.21v-3.5h12.53l.71-.14,2.79,1.32c-2.03,4.63-5.39,8.32-9.36,11.16h6.67v9.98c3.5-1.94,4.02-4.4,4.02-6.62v-3.55h9.84c-4.54-3.26-8.04-7.57-10.4-12.77l3.5-1.04c.85,1.8,1.89,3.5,3.12,5.11,1.89-1.47,4.07-3.45,5.34-4.96l3.17,2.27c-1.99,1.84-4.35,3.69-6.34,5.06.95.95,1.94,1.75,3.03,2.55,2.03-1.51,4.44-3.69,5.91-5.2l3.22,2.22ZM86.44,105.82c-1.28,3.5-3.22,6.29-5.67,8.51,2.32,1.37,4.44,2.7,5.96,3.74l-2.27,2.88c-1.66-1.23-4.02-2.74-6.67-4.35-3.07,1.99-6.67,3.36-10.64,4.3-.38-.99-1.23-2.41-1.94-3.22,3.36-.61,6.43-1.7,9.13-3.17-2.41-1.47-4.87-2.88-7.05-4.11l1.99-2.27h-1.66v-3.12h15.7l.66-.09,2.46.9ZM69.75,108.14c2.36,1.28,5.11,2.74,7.76,4.3,1.47-1.28,2.74-2.7,3.78-4.3h-11.54Z"/><path class="cls-1" d="M135.33,83.12c-1.47,4.92-3.83,9.13-6.76,12.62,2.88,2.6,6.29,4.78,10.31,6.2-.85.8-2.13,2.55-2.7,3.64l-.95-.38v15.37h-4.21v-1.51h-10.54v1.66h-4.02v-15.46c-.71.33-1.37.66-2.08.95-.28-.57-.76-1.28-1.23-1.94v.05h-5.53v7.47l5.86-1.37.43,3.88c-6.48,1.65-13.33,3.31-18.44,4.49l-.76-4.26c.71-.14,1.47-.28,2.27-.43v-15.94h3.59v15.18l3.12-.71v-18.44h-6.57v-14.85h15.6v12.11c3.55-3.45,6.53-8.56,8.18-14l4.26,1.04c-.43,1.23-.9,2.46-1.42,3.64h8.04l.76-.19,2.79,1.18ZM100.95,90.4h7.71v-7.28h-7.71v7.28ZM113.15,102.37c3.55-1.51,7-3.78,9.98-6.71-1.51-1.8-2.7-3.64-3.74-5.44-1.13,1.66-2.41,3.17-3.64,4.45-.66-.71-2.03-1.84-3.03-2.6v2.13h-5.11v6.24h5.53v1.94ZM132.35,103.69c-2.46-1.42-4.63-3.17-6.53-5.01-1.99,1.94-4.21,3.64-6.53,5.01h13.05ZM131.03,115.28v-7.85h-10.54v7.85h10.54ZM122,85.86l-.43.85c1.09,2.03,2.41,4.07,4.11,6.05,1.7-2.08,3.12-4.4,4.21-6.9h-7.9Z"/><path class="cls-1" d="M141.48,112.96l2.65-3.5c2.03,2.08,4.63,3.83,8.23,3.83,3.92,0,6.62-2.18,6.62-5.77,0-3.88-2.46-6.38-10.31-6.38v-4.02c6.86,0,9.13-2.6,9.13-6.1,0-3.07-2.03-5.01-5.34-5.06-2.7.05-4.96,1.37-6.95,3.31l-2.84-3.41c2.74-2.46,5.96-4.21,9.98-4.21,6.24,0,10.64,3.21,10.64,8.98,0,4.02-2.32,6.81-6.01,8.18v.24c4.02.99,7.19,4.02,7.19,8.7,0,6.29-5.25,9.98-11.63,9.98-5.49,0-9.03-2.17-11.35-4.78Z"/><path class="cls-1" d="M168.43,112.96l2.65-3.5c2.03,2.08,4.63,3.83,8.23,3.83,3.92,0,6.62-2.18,6.62-5.77,0-3.88-2.46-6.38-10.31-6.38v-4.02c6.86,0,9.13-2.6,9.13-6.1,0-3.07-2.03-5.01-5.34-5.06-2.7.05-4.96,1.37-6.95,3.31l-2.84-3.41c2.74-2.46,5.96-4.21,9.98-4.21,6.24,0,10.64,3.21,10.64,8.98,0,4.02-2.32,6.81-6.01,8.18v.24c4.02.99,7.19,4.02,7.19,8.7,0,6.29-5.25,9.98-11.63,9.98-5.49,0-9.03-2.17-11.35-4.78Z"/><path class="cls-1" d="M199.59,110.69c1.37,1.56,3.5,2.6,5.72,2.6,4.21,0,7.85-3.41,8.18-13.33-2.03,2.51-5.01,4.07-7.66,4.07-5.82,0-9.74-3.64-9.74-10.92,0-6.9,4.73-11.44,10.36-11.44,6.67,0,12.06,5.39,12.06,16.88,0,13.71-6.24,19.2-12.96,19.2-4.02,0-6.86-1.61-8.89-3.69l2.93-3.36ZM213.4,95.84c-.52-6.86-3.12-9.98-6.9-9.98-2.98,0-5.34,2.7-5.34,7.24s1.99,7,5.63,7c2.13,0,4.54-1.23,6.62-4.26Z"/><path class="cls-1" d="M238.36,103.31s-.05,1.04-.09,1.61c-.61,8.94-1.18,12.63-2.46,13.95-.76.9-1.61,1.23-2.88,1.37-1.04.14-2.84.14-4.78,0-.05-1.09-.47-2.65-1.09-3.64,1.8.14,3.45.19,4.16.19.66,0,1.09-.09,1.47-.47.71-.76,1.28-3.26,1.7-9.55h-9.36c.57-2.08,1.28-4.87,1.75-7.52h-3.83v-3.83h17.17v3.83h-9.6c-.28,1.37-.57,2.79-.85,4.07h8.7ZM239.07,92.15h-13.9v-12.81h13.9v12.81ZM235.67,82.55h-7.28v6.38h7.28v-6.38ZM260.4,99.2c.8,0,2.36-.05,3.03-.28.05,1.13.14,2.22.28,3.21-.71.28-1.99.33-3.17.33h-5.34c-3.4,0-4.16-1.61-4.16-4.96v-.71l-4.02.42-.43-3.07,4.45-.43v-3.55h-5.3v8.46c0,6.57-.66,16.03-4.68,22.27-.61-.71-2.36-1.89-3.22-2.32,3.64-5.82,4.07-13.95,4.07-20v-11.92h9.17v-9.22h4.16v2.93h9.27v3.55h-9.27v2.74h8.09l.66-.19,2.65.66c-.52,2.88-1.28,6.29-1.89,8.46l-3.26-.8c.28-1.23.61-2.93.9-4.63h-7.61v3.17l5.34-.52.38,3.03-5.72.57v1.18c0,1.13.14,1.61,1.14,1.61h4.49ZM252.55,104.45c-.33,7.66-1.37,13.15-6.57,16.46-.43-.9-1.51-2.32-2.36-2.88,4.26-2.65,5.06-7.24,5.3-13.57h3.64ZM261.91,116.08c.43,0,.9-.05,1.09-.24.19-.14.43-.47.52-.9.09-.76.19-2.51.14-4.59.76.66,2.08,1.42,3.12,1.75-.05,2.22-.24,4.54-.52,5.34-.33.95-.8,1.56-1.47,1.94-.61.33-1.65.57-2.55.57h-2.55c-1.04,0-2.22-.24-2.88-.9-.76-.71-.9-1.42-.9-3.78v-10.78h3.64v10.64c0,.28.05.57.28.71.19.14.47.24.9.24h1.18Z"/><path class="cls-1" d="M634.7,97.84c-1.28-1.87-3.69-4.67-6.05-7.13-1.77,3.69-3.98,6.83-6.64,9.29-.79-.88-2.61-2.46-3.64-3.2,5.01-4.13,8.16-10.91,9.59-18.93l4.67.74c-.59,2.8-1.33,5.46-2.26,7.92,2.7,2.56,5.9,5.8,7.42,7.96l-3.1,3.34ZM643.35,114.65h19.76v4.38h-43.9v-4.38h19.42v-8.21h-15.88v-4.33h15.88v-25.76h4.72v18.73c4.42-3.88,7.23-9.93,8.6-17.01l4.62.79c-.64,2.9-1.52,5.7-2.51,8.26,3.24,3.05,7.13,6.88,9.09,9.39l-3.24,3.34c-1.62-2.31-4.77-5.75-7.82-8.7-1.67,3.05-3.69,5.7-6.05,7.82-.54-.59-1.72-1.67-2.7-2.51v5.65h16.27v4.33h-16.27v8.21Z"/><path class="cls-1" d="M680.87,100.94c-1.33.54-2.65,1.03-4.03,1.52v13.18c0,2.16-.44,3.29-1.62,3.98-1.28.69-3.1.83-5.95.83-.15-1.08-.69-2.9-1.23-4.03,1.82.1,3.54.1,4.03.05.59,0,.84-.15.84-.79v-11.65l-4.18,1.52-1.18-4.38c1.52-.49,3.34-1.13,5.36-1.82v-9.83h-4.77v-4.23h4.77v-9.54h3.93v9.54h3.64v4.23h-3.64v8.46l3.29-1.13.74,4.08ZM690.01,103.44l.44-2.21,3.29.64c-1.62,8.51-5.46,14.9-12.04,18.68-.49-.79-1.72-2.16-2.51-2.75,4.33-2.36,7.47-5.85,9.44-10.32-5.36,1.47-6.49,1.92-7.23,2.46-.2-.79-.74-2.51-1.18-3.44.93-.25,1.72-1.28,2.75-2.85.59-.88,1.92-3.15,3.34-6-3.54.44-4.52.69-5.11,1.03-.25-.84-.89-2.61-1.33-3.59.64-.15,1.23-.79,1.72-1.82.59-.98,2.41-4.77,3.2-8.31l3.59,1.62c-.88,2.51-2.16,5.21-3.49,7.47l3.2-.25c.44-.98.84-2.06,1.18-3.1l3.34,1.87c-1.72,3.98-3.83,8.11-6.1,11.7l3.49-.84ZM712.33,84.76h-31.12v-3.93h13.22c-.49-1.23-1.18-2.51-1.82-3.59l3.25-1.23c1.03,1.43,2.02,3.34,2.61,4.82h13.86v3.93ZM712.38,117.85h-14.36v2.41h-3.64v-20.65c-.25.34-.49.69-.74.93-.59-.59-2.07-1.87-2.9-2.46,2.66-3.1,4.87-7.87,6.24-12.54l3.54.89c-.44,1.47-.98,3.05-1.57,4.47h4.87c-.49-1.33-1.18-2.8-1.87-3.98l3.1-1.13c.93,1.52,1.92,3.59,2.46,5.11h4.42v3.54h-5.65v4.28h4.87v3.2h-4.87v4.28h4.62v3.2h-4.62v4.92h6.1v3.54ZM702.7,94.45h-4.67v4.28h4.67v-4.28ZM702.7,101.92h-4.67v4.28h4.67v-4.28ZM698.03,114.31h4.67v-4.92h-4.67v4.92Z"/><path class="cls-1" d="M741.19,100.99c-.1,1.13-.29,2.21-.49,3.25h19.71v3.88h-20.75c-2.31,6.39-7.52,10.52-20.5,12.63-.34-1.23-1.43-3.1-2.31-4.13,10.77-1.48,15.44-4.23,17.65-8.51h-15.68v-3.88h17.06c.2-1.03.39-2.06.54-3.25h-18.68v-4.03h19.22v-3.49h-14.85v-3.88h14.85v-3.34h-17.6v-4.03h9.88c-.79-1.62-2.11-3.64-3.29-5.11l3.98-1.57c1.67,1.77,3.34,4.23,4.03,5.95l-1.62.74h12c1.33-1.97,3-4.72,3.83-6.69l4.87,1.33c-1.13,1.82-2.46,3.79-3.64,5.36h10.03v4.03h-17.75v3.34h15.39v3.88h-15.39v3.49h19.81v4.03h-20.3ZM759.39,121.05c-4.38-2.85-13.18-6.93-19.76-9.49l2.02-3.44c6.44,2.31,15.39,6.19,19.86,8.9l-2.11,4.03Z"/><path class="cls-1" d="M811.11,95.19h-4.13v20.01c0,2.36-.39,3.64-1.87,4.33-1.52.79-3.79.84-7.13.84-.15-1.23-.74-3.15-1.33-4.42,2.26.05,4.47.05,5.11.05.69-.05.88-.2.88-.79v-20.01h-5.01v-3.54h-7.67v29.06h-4.03v-29.06h-6.88v-3.83c-1.03,2.11-2.21,4.28-3.54,6.34v26.74h-4.23v-20.94c-1.18,1.38-2.41,2.61-3.64,3.74-.39-.98-1.77-3.2-2.56-4.13,3.98-3.39,7.87-8.55,10.18-13.81l4.13,1.33-.15.34h6.69v-11.36h4.03v11.36h7.77v3.64h13.42l-.05,4.13ZM778.46,77.24c-2.51,4.13-6.39,8.7-10.03,11.6-.59-.93-1.67-2.56-2.46-3.39,3.2-2.46,6.59-6.44,8.31-9.69l4.18,1.47ZM783.82,94.55c-.05,9.34-.59,15.63-4.38,19.42-.39-.79-1.47-2.11-2.31-2.7,2.95-3.2,3.29-8.36,3.34-16.72h3.34ZM795.38,86.29c-.79-1.72-2.51-4.47-4.13-6.44l2.85-1.52c1.67,1.87,3.44,4.47,4.28,6.19l-3,1.77ZM797.59,109.25c.44,0,1.13-.1,1.57-.25.1.89.25,2.46.34,3.25-.54.2-1.23.25-1.97.25h-1.38c-3.29,0-3.88-1.28-3.88-4.97v-12.98h3.34v13.08c0,1.23.05,1.62.44,1.62h1.52ZM810.42,83.58h-11.6v-4.03h11.6v4.03Z"/><path class="cls-1" d="M855.7,89.63v-4.67h-17.7v3.88h17.5v12.68h-14.45v3.64h16.67v15.39h-4.03v-1.72h-12.63v1.92h-3.98v-31.12h-2.85v-7.42l-1.92,3.39c-1.52-1.18-4.42-2.95-6.93-4.42-1.03,1.28-2.11,2.56-3.24,3.69h8.01v3.15h-8.41v-2.75c-1.57,1.52-3.34,2.95-5.01,4.08-.25-.88-1.23-3.1-1.87-4.08,3.79-2.31,7.77-6.05,9.98-9.98l3.59,1.28c-.25.54-.54,1.08-.89,1.57,2.36,1.33,5.16,2.9,6.74,3.93v-.74h11.21c-.54-1.33-1.38-3.1-2.07-4.33l3.98-1.67c.98,1.67,2.07,3.83,2.66,5.21l-1.57.79h11.16v8.31h-3.93ZM829.2,108.07c1.77,3.05,3.88,7.28,4.87,9.68l-3.29,1.62c-.39-1.03-.98-2.26-1.57-3.64-9.19,3.64-10.67,4.33-11.6,5.01-.2-1.03-.88-2.85-1.47-3.83.79-.34,1.82-1.03,1.82-2.85v-23.6h14.45v16.86h-10.52v7.33l5.8-2.07c-.59-1.13-1.08-2.21-1.62-3.2l3.15-1.33ZM821.88,93.86v3.29h6.49v-3.29h-6.49ZM828.37,103.94v-3.49h-6.49v3.49h6.49ZM841.05,92.53v5.36h10.57v-5.36h-10.57ZM841.05,108.95v6h12.63v-6h-12.63Z"/><path class="cls-1" d="M896.35,77.09c-1.03,3.34-2.26,6.74-3.69,9.98v33.73h-4.28v-25.37c-1.03,1.67-2.02,3.2-3.1,4.57-.39-1.08-1.52-3.54-2.26-4.67,3.83-4.77,7.18-12.04,9.24-19.37l4.08,1.13ZM928.46,80.53v3.98h-27.58v12.59c0,7.03-.49,17.16-3.59,23.65-.79-.74-2.56-1.87-3.59-2.26,2.85-6.1,3.1-14.9,3.1-21.39v-16.57h14.16c-.49-1.38-1.08-2.9-1.67-4.13l4.03-1.08c.84,1.57,1.67,3.59,2.26,5.21h12.88ZM911.2,86.24c-.64,2.31-1.38,4.77-2.31,7.13v27.24h-3.83v-19.52c-.69,1.08-1.43,2.02-2.16,2.95-.34-.98-1.13-2.66-1.72-3.59,3.1-3.83,5.26-10.08,6.24-15.04l3.79.84ZM924.33,92.38h3.88v3.83h-3.88v19.81c0,2.07-.39,3.2-1.72,3.83-1.33.64-3.34.74-6.44.74-.15-1.03-.69-2.75-1.18-3.83,2.06.05,4.03.05,4.57,0,.64,0,.84-.15.84-.79v-19.76h-9.59v-3.83h9.59v-6.44h3.93v6.44ZM915.87,110.62c-.93-2.66-3-6.93-4.67-10.13l3.1-1.47c1.77,3.2,3.83,7.28,4.82,9.88l-3.25,1.72Z"/><path class="cls-1" d="M976.4,88.89c-.69,7.82-1.87,14.5-4.08,20.01,1.52,3.39,3.54,6.34,6.19,8.55-.79.69-2.16,2.41-2.75,3.44-2.26-2.11-4.03-4.77-5.46-7.72-1.67,3-3.83,5.55-6.49,7.77-.39-.79-1.57-2.26-2.36-3.1v2.95h-3.83v-6.74c-3.74.88-7.42,1.67-10.57,2.36l-1.13-3.93h-7.72v4.33h-3.88v-38.4h11.8v34.02c.88-.15,1.92-.29,3-.49v-22.47h-2.26v-3.69h6.29v-4.82h-5.51v-3.64h15v3.64h-5.41v4.82h6.39v3.69h-2.16v7.33c2.65-5.26,4.03-13.13,4.82-21.14l3.88.59c-.34,3-.79,6-1.33,8.85h9.19v3.79h-1.62ZM938.2,82.3v6.1h3.93v-6.1h-3.93ZM938.2,98.43h3.93v-6.24h-3.93v6.24ZM942.13,108.51v-6.29h-3.93v6.29h3.93ZM952.85,89.48v4.62h4.77v-4.62h-4.77ZM952.85,102.36h4.77v-4.72h-4.77v4.72ZM957.62,110.38v-4.52h-4.77v5.41l4.77-.88ZM961.45,117.51c3.05-2.36,5.26-5.41,6.93-9.1-1.33-3.83-2.16-7.87-2.75-11.65-.54,1.33-1.08,2.56-1.72,3.69-.44-.69-1.67-2.07-2.46-2.9v19.96ZM968.04,88.89l-.25.93c.44,4.23,1.18,8.9,2.46,13.32,1.13-4.18,1.82-8.95,2.21-14.26h-4.42Z"/><path class="cls-1" d="M1025.96,91.35v3.54h-42.97v-3.54h19.03v-3.05h-14.26v-3.34h14.26v-2.75h-16.03v-3.54h16.03v-2.95h4.62v2.95h16.76v3.54h-16.76v2.75h14.7v3.34h-14.7v3.05h19.32ZM1019.76,116.18c0,2.26-.59,3.34-2.31,3.93-1.77.59-4.52.59-8.55.59-.2-1.08-.84-2.65-1.38-3.69,2.7.1,5.75.1,6.49.1.83-.05,1.08-.25,1.08-.98v-3.1h-21.58c-.54,3.05-1.57,6.1-3.49,8.41-.64-.93-2.51-2.7-3.49-3.34,2.75-3.39,3.05-8.11,3.05-11.85v-8.75h30.19v18.68ZM1015.09,109.93v-2.95h-21.04c0,.93-.05,1.97-.15,2.95h21.19ZM994.05,100.94v2.9h21.04v-2.9h-21.04Z"/><path class="cls-1" d="M1075.91,80.53v3.93h-24.34v10.72c0,7.67-.74,18.39-5.65,25.47-.74-.69-2.51-1.87-3.44-2.31,2.06-2.95,3.34-6.49,4.03-10.08-4.87,2.26-10.08,4.57-14.21,6.39l-1.52-4.62c1.67-.59,3.69-1.33,5.85-2.21v-15.98h-5.41v-4.33h5.41v-11.16h4.23v11.16h5.36v4.33h-5.36v14.26l4.82-1.97.88,4.03c.89-4.42,1.03-9.09,1.03-12.98v-14.65h11.75c-.54-1.33-1.33-2.85-2.02-4.08l4.38-1.18c.98,1.62,2.07,3.74,2.66,5.26h11.55ZM1072.86,93.81h2.9v3.79h-2.9v5.9h-8.55v3h8.9v14.31h-4.13v-1.62h-12.39v1.62h-3.98v-14.31h7.57v-3h-7.08v-3.25h7.08v-2.9h-8.46v-3.2h8.46v-2.95h-6.88v-3.29h6.88v-2.66h4.03v2.66h8.55v5.9ZM1069.08,110.18h-12.39v5.36h12.39v-5.36ZM1064.31,94.15h4.62v-2.95h-4.62v2.95ZM1068.93,100.25v-2.9h-4.62v2.9h4.62Z"/><path class="cls-1" d="M1123.31,77.78v43.07h-4.47v-1.92h-32.25v1.92h-4.28v-43.07h41ZM1118.83,114.8v-32.89h-32.25v32.89h32.25ZM1104.53,108.46c-.1.79-.1,2.11.05,2.8-8.75,2.36-10.08,2.7-10.87,3.25-.2-.79-.69-2.07-1.13-2.61.74-.29,1.77-.84,1.77-2.66v-2.8c-1.57.59-3.15,1.13-4.67,1.57-.39-.69-1.57-2.02-2.21-2.65,3.49-.79,7.42-2.07,10.37-3.54h-6.29v-7.13h22.62v7.13h-11.16c-1.47,1.18-3.29,2.21-5.26,3.15v5.06l6.79-1.57ZM1116.72,93.02h-28.02v-2.7h11.85v-2.56h-9.24v-2.66h9.24v-2.41h4.13v2.41h9.73v2.66h-9.73v2.56h12.04v2.7ZM1095.38,99.66h14.75v-2.75h-14.75v2.75ZM1116.92,104.43c-1.57,1.13-3.29,2.16-4.92,3,1.97,1.38,3.79,2.7,5.11,3.83l-3,1.82c-2.7-2.41-8.16-6.29-12.54-8.85l2.8-1.62c1.57.93,3.39,2.02,5.11,3.15,1.67-.98,3.44-2.16,4.57-3.1l2.85,1.77Z"/><path class="cls-1" d="M290.43,98.82c0-12.48,4.87-18.57,12.23-18.57s12.18,6.14,12.18,18.57-4.87,18.86-12.18,18.86-12.23-6.43-12.23-18.86ZM308.07,98.82c0-10.09-2.34-13.01-5.41-13.01s-5.46,2.92-5.46,13.01,2.34,13.26,5.46,13.26,5.41-3.12,5.41-13.26Z"/><path class="cls-1" d="M318.26,112.66l3.36-4.53c2.14,2.1,4.78,3.7,8.04,3.7,3.66,0,6.14-1.8,6.14-5.02,0-3.56-2.1-5.75-9.94-5.75v-5.17c6.63,0,8.77-2.29,8.77-5.51,0-2.83-1.75-4.48-4.82-4.53-2.58.05-4.68,1.27-6.82,3.22l-3.66-4.39c3.12-2.73,6.58-4.43,10.82-4.43,6.97,0,11.7,3.41,11.7,9.6,0,3.9-2.19,6.73-6.04,8.24v.24c4.09,1.12,7.21,4.14,7.21,8.87,0,6.63-5.8,10.48-12.67,10.48-5.7,0-9.55-2.14-12.09-5.02Z"/><path class="cls-1" d="M348.09,100.48h13.31v5.12h-13.31v-5.12Z"/><path class="cls-1" d="M365.83,112.86c9.8-8.77,15.6-15.55,15.6-21.1,0-3.66-2-5.85-5.41-5.85-2.63,0-4.83,1.71-6.63,3.7l-3.9-3.9c3.31-3.51,6.53-5.46,11.45-5.46,6.82,0,11.36,4.39,11.36,11.11s-5.41,13.55-11.99,19.98c1.8-.2,4.19-.39,5.85-.39h7.85v6.04h-24.17v-4.14Z"/><path class="cls-1" d="M394.73,108.03c0-4.63,2.83-7.6,6.19-9.41v-.24c-2.78-2-4.78-4.73-4.78-8.58,0-5.8,4.58-9.5,10.87-9.5s10.48,3.85,10.48,9.6c0,3.56-2.24,6.53-4.63,8.24v.24c3.31,1.8,6.04,4.73,6.04,9.65,0,5.46-4.82,9.65-12.14,9.65-6.87,0-12.04-4-12.04-9.65ZM412.23,107.79c0-3.75-3.31-5.31-7.99-7.21-1.95,1.56-3.31,4-3.31,6.68,0,3.26,2.68,5.36,6.04,5.36,3.02,0,5.26-1.71,5.26-4.82ZM411.65,90.34c0-2.92-1.75-5.02-4.78-5.02-2.44,0-4.39,1.61-4.39,4.48,0,3.41,2.78,5.07,6.58,6.58,1.75-1.85,2.58-3.9,2.58-6.04Z"/><path class="cls-1" d="M439.82,86.93h-16.23v-6h23.98v4.34c-8.38,10.23-9.5,17.59-10.09,31.73h-7.26c.63-12.53,2.73-20.52,9.6-30.07Z"/><path class="cls-1" d="M451.13,112.76l3.31-4.58c2.05,2,4.58,3.66,7.94,3.66,3.75,0,6.38-2.39,6.38-6.63s-2.44-6.53-6.09-6.53c-2.14,0-3.31.54-5.41,1.9l-3.27-2.14.97-17.5h19.3v6h-13.11l-.68,7.65c1.41-.68,2.68-1.02,4.34-1.02,6.04,0,11.11,3.61,11.11,11.45s-5.95,12.67-12.62,12.67c-5.7,0-9.5-2.24-12.18-4.92Z"/><path class="cls-1" d="M479.84,112.76l3.31-4.58c2.05,2,4.58,3.66,7.94,3.66,3.75,0,6.38-2.39,6.38-6.63s-2.44-6.53-6.09-6.53c-2.14,0-3.31.54-5.41,1.9l-3.27-2.14.97-17.5h19.3v6h-13.11l-.68,7.65c1.41-.68,2.68-1.02,4.34-1.02,6.04,0,11.11,3.61,11.11,11.45s-5.95,12.67-12.62,12.67c-5.7,0-9.5-2.24-12.18-4.92Z"/><path class="cls-1" d="M509.57,108.03c0-4.63,2.83-7.6,6.19-9.41v-.24c-2.78-2-4.78-4.73-4.78-8.58,0-5.8,4.58-9.5,10.87-9.5s10.48,3.85,10.48,9.6c0,3.56-2.24,6.53-4.63,8.24v.24c3.31,1.8,6.04,4.73,6.04,9.65,0,5.46-4.83,9.65-12.14,9.65-6.87,0-12.04-4-12.04-9.65ZM527.06,107.79c0-3.75-3.31-5.31-7.99-7.21-1.95,1.56-3.31,4-3.31,6.68,0,3.26,2.68,5.36,6.04,5.36,3.02,0,5.26-1.71,5.26-4.82ZM526.48,90.34c0-2.92-1.75-5.02-4.78-5.02-2.44,0-4.39,1.61-4.39,4.48,0,3.41,2.78,5.07,6.58,6.58,1.75-1.85,2.58-3.9,2.58-6.04Z"/><path class="cls-1" d="M538.28,108.03c0-4.63,2.83-7.6,6.19-9.41v-.24c-2.78-2-4.78-4.73-4.78-8.58,0-5.8,4.58-9.5,10.87-9.5s10.48,3.85,10.48,9.6c0,3.56-2.24,6.53-4.63,8.24v.24c3.31,1.8,6.04,4.73,6.04,9.65,0,5.46-4.83,9.65-12.14,9.65-6.87,0-12.04-4-12.04-9.65ZM555.77,107.79c0-3.75-3.31-5.31-7.99-7.21-1.95,1.56-3.31,4-3.31,6.68,0,3.26,2.68,5.36,6.04,5.36,3.02,0,5.26-1.71,5.26-4.82ZM555.19,90.34c0-2.92-1.75-5.02-4.78-5.02-2.44,0-4.39,1.61-4.39,4.48,0,3.41,2.78,5.07,6.58,6.58,1.75-1.85,2.58-3.9,2.58-6.04Z"/><path class="cls-1" d="M250.93,28.76c-.1,1.2-.31,2.34-.52,3.43h20.84v4.11h-21.93c-2.44,6.76-7.95,11.12-21.67,13.36-.36-1.3-1.51-3.27-2.44-4.37,11.38-1.56,16.32-4.47,18.66-8.99h-16.58v-4.11h18.03c.21-1.09.42-2.18.57-3.43h-19.75v-4.26h20.32v-3.69h-15.7v-4.11h15.7v-3.53h-18.61v-4.26h10.45c-.83-1.72-2.23-3.85-3.48-5.41l4.21-1.66c1.77,1.87,3.53,4.47,4.26,6.29l-1.71.78h12.68c1.4-2.08,3.17-4.99,4.05-7.07l5.15,1.4c-1.2,1.92-2.6,4-3.85,5.67h10.6v4.26h-18.76v3.53h16.27v4.11h-16.27v3.69h20.94v4.26h-21.46ZM270.16,49.96c-4.63-3.01-13.93-7.33-20.89-10.03l2.13-3.64c6.81,2.44,16.27,6.55,21,9.41l-2.23,4.26Z"/><path class="cls-1" d="M324.84,22.63h-4.37v21.15c0,2.5-.42,3.85-1.97,4.57-1.61.83-4,.88-7.54.88-.16-1.3-.78-3.33-1.4-4.68,2.39.05,4.73.05,5.4.05.73-.05.94-.21.94-.83v-21.15h-5.3v-3.74h-8.11v30.72h-4.26v-30.72h-7.28v-4.05c-1.09,2.24-2.34,4.52-3.74,6.7v28.27h-4.47v-22.14c-1.25,1.46-2.55,2.75-3.85,3.95-.42-1.04-1.87-3.38-2.7-4.37,4.21-3.59,8.32-9.04,10.76-14.6l4.37,1.4-.16.36h7.07V2.41h4.26v12.01h8.21v3.85h14.19l-.05,4.37ZM290.33,3.66c-2.65,4.37-6.76,9.2-10.6,12.27-.62-.99-1.77-2.7-2.6-3.59,3.38-2.6,6.96-6.81,8.78-10.24l4.42,1.56ZM296,21.95c-.05,9.88-.62,16.53-4.63,20.53-.42-.83-1.56-2.24-2.44-2.86,3.12-3.38,3.48-8.84,3.53-17.67h3.53ZM308.21,13.22c-.83-1.82-2.65-4.73-4.37-6.81l3.01-1.61c1.77,1.98,3.64,4.73,4.52,6.55l-3.17,1.87ZM310.55,37.49c.47,0,1.2-.1,1.66-.26.1.93.26,2.6.36,3.43-.57.21-1.3.26-2.08.26h-1.46c-3.48,0-4.11-1.35-4.11-5.25v-13.72h3.53v13.82c0,1.3.05,1.72.47,1.72h1.61ZM324.12,10.36h-12.27v-4.26h12.27v4.26Z"/><path class="cls-1" d="M371.99,16.75v-4.94h-18.71v4.11h18.5v13.41h-15.28v3.85h17.62v16.27h-4.26v-1.82h-13.36v2.03h-4.21V16.75h-3.01v-7.85l-2.03,3.59c-1.61-1.25-4.68-3.12-7.33-4.68-1.09,1.35-2.23,2.7-3.43,3.9h8.47v3.33h-8.89v-2.91c-1.66,1.61-3.53,3.12-5.3,4.31-.26-.94-1.3-3.27-1.97-4.31,4-2.44,8.21-6.39,10.55-10.55l3.79,1.35c-.26.57-.57,1.14-.94,1.66,2.49,1.4,5.46,3.07,7.12,4.16v-.78h11.85c-.57-1.4-1.46-3.27-2.18-4.57l4.21-1.77c1.04,1.77,2.18,4.05,2.81,5.51l-1.66.83h11.8v8.78h-4.16ZM343.98,36.24c1.87,3.22,4.11,7.69,5.15,10.24l-3.48,1.71c-.42-1.09-1.04-2.39-1.66-3.85-9.72,3.85-11.28,4.57-12.27,5.3-.21-1.09-.94-3.01-1.56-4.05.83-.36,1.92-1.09,1.92-3.01v-24.95h15.28v17.83h-11.12v7.74l6.13-2.18c-.62-1.2-1.14-2.34-1.71-3.38l3.33-1.4ZM336.23,21.22v3.48h6.86v-3.48h-6.86ZM343.09,31.88v-3.69h-6.86v3.69h6.86ZM356.5,19.82v5.67h11.17v-5.67h-11.17ZM356.5,37.18v6.34h13.36v-6.34h-13.36Z"/><path class="cls-1" d="M389.98,9.32c-1.61,2.6-3.48,4.89-5.3,6.65-.68-.78-2.34-2.44-3.27-3.17,3.07-2.75,5.98-6.96,7.59-11.17l4.31,1.25c-.31.88-.73,1.77-1.2,2.65h12.42v3.79h-8.73c1.61,1.3,3.22,3.01,4.16,4.11l-3.12,2.75c-1.04-1.4-3.27-3.64-4.99-5.25l1.92-1.61h-3.79ZM425.99,32.6s-.05,1.2-.16,1.87c-.62,7.02-1.25,10.19-2.6,11.54-.99,1.04-2.03,1.4-3.59,1.51-1.3.1-3.85.16-6.5,0-.05-1.35-.62-3.17-1.35-4.42,2.34.26,4.73.31,5.61.26.88,0,1.4-.05,1.82-.42.62-.68,1.09-2.39,1.56-6.24h-13.82v12.99h-4.78v-11.02c-4.47,4.73-10.76,8.73-16.63,10.97-.73-1.09-2.03-2.91-3.12-3.79,5.77-1.77,11.85-5.25,16.01-9.15h-12.53c.73-3.27,1.46-8.21,1.87-12.16h14.4v-4.05h-16.21v-4h37.94v12.06h-16.94v4.05h19.02ZM391.9,28.55c-.16,1.4-.36,2.75-.57,4.05h10.86v-4.05h-10.29ZM428.54,5.53v3.79h-10.24c1.66,1.25,3.53,2.86,4.52,4l-3.27,2.81c-1.09-1.35-3.38-3.48-5.3-4.99l2.29-1.82h-5.2c-1.2,1.87-2.6,3.53-3.95,4.83-.78-.78-2.55-2.18-3.64-2.86,2.81-2.34,5.2-5.92,6.5-9.61l4.42,1.04c-.36.99-.73,1.87-1.14,2.81h15.02ZM406.97,24.55h12.21v-4.05h-12.21v4.05Z"/><path class="cls-1" d="M480.73,22.73v5.3h-47.29v-5.3h47.29Z"/><path class="cls-1" d="M501.11,28.19c-1.77.57-3.59,1.14-5.35,1.72v14.5c0,2.39-.47,3.69-1.87,4.47-1.4.73-3.43.88-6.76.88-.1-1.14-.68-3.22-1.3-4.47,2.08.05,4,.05,4.57,0,.68,0,.94-.16.94-.88v-13.15c-2.03.62-3.95,1.2-5.66,1.77l-1.09-4.68c1.87-.47,4.21-1.14,6.76-1.87v-9.87h-6.03v-4.47h6.03V2.1h4.42v10.03h5.2v4.47h-5.2v8.58l4.73-1.4.62,4.42ZM509.79,1.99h4.31v21.78c0,10.29-1.14,19.65-10.34,25.99-.78-.94-2.39-2.49-3.43-3.22,4.26-2.86,6.65-6.39,7.95-10.34-2.55.99-5.09,1.92-7.38,2.75l-1.87-4.16c2.75-.73,6.44-1.87,10.29-3.12.26-1.92.42-3.9.47-5.92h-7.69v-4.31h7.69v-6.39h-8.11v-4.37h8.11V1.99ZM532.81,37.02h-9.51v12.63h-4.57V1.99h4.57v8.68h8.63v4.37h-8.63v6.39h8.06v4.31h-8.06v6.86h9.51v4.42Z"/><path class="cls-1" d="M576.08,16.02c-2.44,13.67-8.26,23.65-15.54,28.95-.83-1.14-2.7-3.01-3.9-3.79,6.29-4.16,11.17-11.64,13.56-21.31h-11.85v-4.89h13.62l.88-.21,3.22,1.25ZM601.08,14.57c-3.59,3.9-8.11,8.37-11.75,11.43,4.16,6.18,9.67,11.33,15.96,14.24-1.14.99-2.81,2.96-3.59,4.42-7.74-4.11-13.88-11.43-18.29-20.22v18.97c0,2.96-.62,4.52-2.39,5.35-1.77.88-4.52,1.09-8.58,1.09-.26-1.46-1.04-3.95-1.82-5.41,2.91.16,5.61.16,6.5.1.83,0,1.2-.26,1.2-1.14V2.1h5.09v12.42c.99,2.65,2.18,5.25,3.64,7.74,3.33-3.17,7.17-7.43,9.62-10.86l4.42,3.17Z"/><path class="cls-1" d="M617.92,22.42v5.61c0,6.29-.88,15.23-5.56,20.94-.73-.88-2.81-2.55-3.85-3.12,4.11-5.15,4.57-12.47,4.57-17.88v-9.82h42.1v4.26h-37.26ZM652.64,14.57h-39.34V3.97h4.88v6.29h12.01V1.99h5.09v8.26h12.27V3.97h5.09v10.6ZM655.97,39.46h-16.21v10.34h-5.09v-10.34h-15.49v-4.26h15.49v-4.94h-12.99v-4.11h31.75v4.11h-13.67v4.94h16.21v4.26Z"/><path class="cls-1" d="M680.04,5.11c-3.69,8.47-9.56,16.99-15.28,22.24-.83-.99-3.01-3.01-4.26-4,5.67-4.68,11.07-12.26,14.24-19.9l5.3,1.66ZM694.64,29.38c4.16,5.61,9.04,12.89,11.49,17.57l-4.89,2.65c-.73-1.51-1.61-3.17-2.75-5.04-26.04,1.92-29.16,2.13-31.44,3.01-.21-1.09-1.2-3.79-1.92-5.2,1.56-.42,2.96-1.97,4.99-4.37,2.13-2.29,8.73-11.33,12.89-20.01l5.61,2.29c-4.26,7.59-9.46,15.12-14.66,21.1l21.78-1.3c-1.92-3.01-3.95-6.03-5.77-8.63l4.68-2.08ZM695.63,3.34c2.39,7.8,7.38,15.38,13.56,19.23-1.14,1.09-2.86,3.27-3.74,4.78-5.87-4.42-10.65-11.69-13.51-19.07h-9.04V3.34h12.73Z"/><path class="cls-1" d="M758.31,4.23v45.53h-4.73v-2.03h-34.09v2.03h-4.52V4.23h43.34ZM753.58,43.36V8.59h-34.09v34.77h34.09ZM738.46,36.66c-.1.83-.1,2.24.05,2.96-9.25,2.49-10.65,2.86-11.49,3.43-.21-.83-.73-2.18-1.2-2.75.78-.31,1.87-.88,1.87-2.81v-2.96c-1.66.62-3.33,1.2-4.94,1.66-.42-.73-1.66-2.13-2.34-2.81,3.69-.83,7.85-2.18,10.97-3.74h-6.65v-7.54h23.91v7.54h-11.8c-1.56,1.25-3.48,2.34-5.56,3.33v5.35l7.17-1.66ZM751.35,20.34h-29.62v-2.86h12.52v-2.7h-9.77v-2.81h9.77v-2.55h4.37v2.55h10.29v2.81h-10.29v2.7h12.73v2.86ZM728.79,27.35h15.59v-2.91h-15.59v2.91ZM751.56,32.4c-1.66,1.2-3.48,2.29-5.2,3.17,2.08,1.46,4,2.86,5.41,4.05l-3.17,1.92c-2.86-2.55-8.63-6.65-13.25-9.36l2.96-1.71c1.66.99,3.59,2.13,5.41,3.33,1.77-1.04,3.64-2.29,4.83-3.27l3.01,1.87Z"/><path class="cls-1" d="M771.73,18.1h-4.88V7.09h19.59c-.57-1.3-1.25-2.7-1.87-3.85l4.73-1.4c.94,1.56,2.03,3.64,2.75,5.25h18.45v11.02h-5.14v-6.44h-33.63v6.44ZM802.91,44.19c2.81,0,3.27-1.14,3.69-6.86,1.14.83,3.27,1.66,4.78,1.97-.73,7.54-2.29,9.62-8.11,9.62h-10.86c-6.76,0-8.58-1.56-8.58-7.33v-8.06h-15.85v-4.73h15.85v-6.44c-4.05.57-8.21,1.09-12.11,1.46-.21-1.14-.88-3.12-1.4-4.21,10.45-1.14,22.24-3.12,28.95-5.77l3.79,3.95c-3.95,1.51-8.83,2.65-13.98,3.64v7.38h19.23v4.73h-19.23v8.06c0,2.23.57,2.6,3.69,2.6h10.13Z"/><path class="cls-1" d="M867.41,43.23l3.94-5.45c2.44,2.38,5.45,4.35,9.45,4.35,4.47,0,7.6-2.84,7.6-7.89s-2.9-7.77-7.25-7.77c-2.55,0-3.94.64-6.44,2.26l-3.89-2.55,1.16-20.82h22.97v7.13h-15.6l-.81,9.11c1.68-.81,3.19-1.22,5.16-1.22,7.19,0,13.22,4.29,13.22,13.63s-7.08,15.08-15.02,15.08c-6.79,0-11.31-2.67-14.5-5.86Z"/><path class="cls-1" d="M899.89,37.61c0-5.51,3.36-9.05,7.37-11.19v-.29c-3.31-2.38-5.68-5.63-5.68-10.21,0-6.9,5.45-11.31,12.93-11.31s12.47,4.58,12.47,11.43c0,4.23-2.67,7.77-5.51,9.8v.29c3.94,2.15,7.19,5.63,7.19,11.48,0,6.5-5.74,11.48-14.44,11.48-8.18,0-14.33-4.76-14.33-11.48ZM920.71,37.32c0-4.47-3.94-6.32-9.51-8.58-2.32,1.86-3.94,4.76-3.94,7.95,0,3.89,3.19,6.38,7.19,6.38,3.6,0,6.26-2.03,6.26-5.74ZM920.02,16.55c0-3.48-2.09-5.97-5.68-5.97-2.9,0-5.22,1.91-5.22,5.34,0,4.06,3.31,6.03,7.83,7.83,2.09-2.2,3.07-4.64,3.07-7.19Z"/><path class="cls-1" d="M1044.48,43.12l4-5.39c2.55,2.49,5.68,4.41,9.57,4.41,4.35,0,7.31-2.15,7.31-5.97,0-4.23-2.49-6.84-11.83-6.84v-6.15c7.89,0,10.44-2.73,10.44-6.55,0-3.36-2.09-5.34-5.74-5.39-3.07.06-5.57,1.51-8.12,3.83l-4.35-5.22c3.71-3.25,7.83-5.28,12.88-5.28,8.29,0,13.92,4.06,13.92,11.43,0,4.64-2.61,8-7.19,9.8v.29c4.87,1.33,8.58,4.93,8.58,10.56,0,7.89-6.9,12.47-15.08,12.47-6.79,0-11.37-2.55-14.38-5.97Z"/><path class="cls-1" d="M1104.35,31.1c-.16,1.31-.38,2.45-.65,3.65h18.3s-.05,1.31-.11,1.91c-.71,7.19-1.42,10.35-2.83,11.77-1.04.98-2.23,1.31-3.87,1.42-1.47.16-4.14.11-6.97,0-.11-1.31-.65-3.05-1.36-4.25,2.61.27,5.17.27,6.16.27.93,0,1.42-.05,1.91-.44.71-.71,1.25-2.62,1.74-6.7h-14.22c-2.12,5.07-6.21,8.82-14.22,11.28-.44-1.14-1.74-3.05-2.78-3.92,10.24-2.78,12.8-7.84,13.84-14.98h-10.68c-.76,6.86-2.72,14.05-6.97,19.23-.71-1.04-2.72-3-3.7-3.59,5.72-7.19,6.21-17.65,6.21-25.55V4.03h.05c12.2-.71,26.47-2.12,34.64-4.03l3.87,3.81c-9.1,2.02-21.9,3.32-33.56,3.98v2.4h34.65v12.37h-34.65c0,1.42-.05,2.94-.16,4.52h15.69c-.54-1.14-1.14-2.4-1.8-3.38l4.9-1.14c.98,1.31,1.85,3.05,2.51,4.52h17.1v4.03h-23.04ZM1089.16,14.16v4.41h29.69v-4.41h-29.69Z"/><path class="cls-1" d="M1032.21,38.32v3.22h-32.04v-3.22h4.65v-16.32h3.44v16.32h7.12V15.91h-13.93v-3.26h29.64v3.26h-12.21v8.77h10.67v3.22h-10.67v10.42h13.32Z"/><path class="cls-1" d="M1028.78,5.81c3.75,2.1,6.69,5.01,8.82,8.74,2.13,3.73,3.2,7.96,3.2,12.68s-1.07,9.11-3.2,12.86c-2.13,3.75-5.07,6.66-8.82,8.72-3.75,2.06-7.97,3.09-12.65,3.09s-8.74-1.05-12.47-3.14c-3.73-2.09-6.68-5.02-8.85-8.77-2.17-3.75-3.25-8-3.25-12.76s1.1-8.8,3.3-12.55c2.2-3.75,5.18-6.69,8.93-8.82,3.75-2.13,7.86-3.2,12.34-3.2s8.9,1.05,12.65,3.14ZM1027.64,46.72c3.38-1.9,6.01-4.54,7.9-7.92,1.88-3.38,2.83-7.24,2.83-11.57s-.95-8.07-2.85-11.44c-1.9-3.36-4.54-6-7.92-7.92-3.38-1.92-7.2-2.88-11.46-2.88s-7.82.99-11.2,2.96c-3.38,1.97-6.05,4.66-8,8.06-1.95,3.4-2.93,7.14-2.93,11.23s.95,8.04,2.85,11.44c1.9,3.4,4.54,6.07,7.92,8,3.38,1.94,7.17,2.91,11.36,2.91s8.14-.95,11.52-2.85Z"/><path class="cls-1" d="M951.86,34.4l.78,4.31c-5.15,2.23-10.55,4.37-14.86,6.03l-1.77-4.88c1.77-.57,3.95-1.3,6.29-2.08v-16.32h-5.35v-4.57h5.35V5.3h4.42v11.59h4.73v4.57h-4.73v14.76l5.14-1.82ZM984.03,34.61h-13.67v17.72h-4.83v-17.72h-13.62v-4.57h13.62V11.79h-12.16v-4.62h29.31v4.62h-12.32v18.24h13.67v4.57ZM958.78,14.34c1.46,3.95,2.6,9.04,2.96,12.42l-4.05,1.04c-.31-3.33-1.46-8.47-2.75-12.47l3.85-.99ZM973.69,26.76c1.2-3.43,2.6-8.83,3.22-12.73l4.57.99c-1.3,4.42-2.81,9.51-4.11,12.68l-3.69-.94Z"/><path class="cls-1" d="M846.26,53.7h-2.48V.87h2.48v52.83Z"/><path class="cls-1" d="M590.84,122h-2.52v-53.59h2.52v53.59Z"/></g></svg>