<?xml version="1.0" encoding="UTF-8"?><svg id="_圖層_2" xmlns="http://www.w3.org/2000/svg" viewBox="0 0 485.5 107.32"><defs><style>.cls-1,.cls-2{fill:#123738;stroke-width:0px;}.cls-2{fill-rule:evenodd;}</style></defs><g id="_文字"><path class="cls-1" d="M109.02,7.6v5.68h-6.73v9.81h5.53v1.3c1.83-2.66,3.29-5.37,4.38-8.08,1.36-3.55,2.24-7.41,2.76-11.58l5.48,1.25c-.21,1.62-.42,3.18-.73,4.64h13.56v4.33c-1.51,6.57-3.23,12.1-5.22,16.53.89,2.76,1.93,5.11,3.13,7.04,1.46,2.66,3.6,5.06,6.36,7.14l-4.49,5.74c-2.3-2.09-4.28-4.64-6.05-7.56-.99-1.67-1.88-3.49-2.66-5.53-4.02,6.15-8.71,10.48-14.08,13.09l-3.08-5.95c5.22-2.4,9.44-6.26,12.67-11.58,3.03-4.8,5.32-10.69,6.94-17.73h-8.4c-.42,1.25-.83,2.45-1.25,3.55-1.56,3.91-3.55,7.41-5.89,10.48l-3.44-3.29v1.88h-5.53v10.38c2.45-.42,4.75-.89,6.94-1.41l.63,5.32c-6.1,1.62-12.78,3.13-19.98,4.49l-.99-6.15c2.61-.37,5.11-.78,7.51-1.2v-11.42h-5.68v-5.68h5.68v-9.81h-6.31v-5.68h18.93Z"/><path class="cls-1" d="M98.23,60.74v-3.65h5.74v3.65h6.94v3.34c.89-.99,1.67-1.98,2.4-2.92l4.49,2.61v-4.85h19.19c-1.62,6.26-3.55,12-5.79,17.11,3.7,4.85,5.58,9.28,5.58,13.25,0,5.48-2.24,8.19-6.73,8.19-1.56,0-2.82-.21-3.86-.63l-.83-6.52c1.67.83,3.23,1.2,4.69,1.2.37,0,.57-.73.57-2.24,0-3.65-1.72-7.82-5.06-12.41,1.56-4.02,2.87-8.08,3.86-12.2h-5.69v39.12h-5.95v-39.17c-1.36,1.88-2.87,3.7-4.64,5.53h3.23v5.32h-8.92c-1.51,1.2-2.92,2.3-4.22,3.23h11.73v25.09h-5.95v-2.24h-8.76v2.24h-5.89v-19.4c-.47.26-.89.47-1.2.63l-3.49-4.49c2.66-1.41,5.37-3.08,8.14-5.06h-7.93v-5.32h8.34v-4.07h-6.1v-5.32h6.1ZM109.02,87.65v-3.65h-8.76v3.65h8.76ZM109.02,96.41v-3.65h-8.76v3.65h8.76ZM109.07,66.06h-5.11v4.07h.73c1.62-1.36,3.08-2.71,4.38-4.07Z"/><path class="cls-1" d="M178.34,56.84h13.99c0,.85-.15,2.12-.42,3.82-.28,2.54-.57,4.39-.85,5.51h30.11v7.63h-27.99c6.21,8.48,15.26,14.28,27.14,17.38,1.13.28,1.7.57,1.7.85,0,.56-.57,1.13-1.7,1.7-3.39,2.54-4.66,5.79-3.82,9.75.56,1.41.7,2.12.42,2.12-.28.56-.99.56-2.12,0-13.57-5.94-22.33-15.83-26.29-29.68-3.68,13.85-16.96,24.02-39.86,30.53l-.42-.85c14.69-9.9,23.88-20.49,27.56-31.8h-26.71v-7.63h28.83c.28-3.11.42-6.21.42-9.33ZM156.72,2.15c17.24,1.13,23.6,6.08,19.08,14.84h13.57c3.39-3.95,6.5-8.9,9.33-14.84h18.23c-4.81,5.94-11.17,10.89-19.08,14.84h23.75v7.21h-28.83v7.21h27.56v7.21h-27.56v8.9h27.99v7.21h-68.69v-7.21h27.99v-8.9h-27.56v-7.21h27.56v-7.21h-28.41v-7.21h15.69c-1.13-.28-2.41-1.84-3.82-4.66-2.27-3.95-4.66-7.06-7.21-9.33l.42-.85Z"/><path class="cls-1" d="M243.13,44.97c-1.42.85-3.25,1.98-5.51,3.39l-.85-.85c4.52-7.63,7.63-15.54,9.33-23.75h13.99c-3.11,6.78-6.51,12.16-10.18,16.11h4.66v66.15h-11.45v-61.06ZM246.1,2.57h14.84c-4.81,9.9-12.44,17.67-22.9,23.32l-.85-.85c4.52-7.63,7.49-15.12,8.9-22.47ZM268.15,3.42h11.02v26.29h6.36v7.63h-6.36v8.9c5.94,4.24,9.61,8.63,11.03,13.14,1.13,5.66.28,8.76-2.54,9.33-3.39,1.13-5.23-.7-5.51-5.51.56-6.78-.42-11.73-2.97-14.84v57.67h-11.02v-40.71c-1.7,10.18-5.51,20.35-11.45,30.53l-1.27-.42c4.52-16.96,7.06-34.2,7.63-51.73h5.09v-6.36h-7.21v-7.63h7.21V3.42ZM280.87,11.9c6.21,2.54,9.18,5.37,8.9,8.48.28,2.27-.28,3.96-1.7,5.09-2.54,1.13-4.39.15-5.51-2.97v-.85c-.28-3.67-1.13-6.64-2.54-8.9l.85-.85ZM287.66,32.68h23.32v7.63h-5.51v53.85c1.13,7.63-3.82,11.3-14.84,11.03-1.7.28-2.41-.57-2.12-2.54-.28-3.96-3.11-6.36-8.48-7.21v-2.12c11.02,1.41,15.69.42,13.99-2.97v-50.03h-6.36v-7.63ZM289.35,5.54h21.2v8.06h-21.2V5.54Z"/><path class="cls-1" d="M338.45,33.1h15.26c-3.96,8.77-8.9,15.55-14.84,20.35h7.21v51.73h-12.3v-47.07c-.57.28-1.42.85-2.54,1.7-1.42.57-3.82,1.84-7.21,3.82l-.85-.85c6.78-8.76,11.87-18.66,15.26-29.68ZM339.3,2.57h12.72v8.48h18.23V2.99h13.14v8.06h13.99v7.63h-13.99v10.18h-13.14v-10.18h-18.23v10.18h-12.72v-10.18h-13.99v-7.63h13.99V2.57ZM358.81,33.52h12.72v24.17c3.96-5.09,7.21-11.16,9.75-18.23h14.42c-7.92,15.55-15.97,25.73-24.17,30.53v18.23c-.57,3.96,1.41,5.65,5.94,5.09,4.24,1.7,9.33-3.82,15.26-16.54l.85.42c-2.83,8.48-2.54,13.99.85,16.54,1.13.85,1.41,1.84.85,2.97-3.11,6.78-9.19,9.75-18.23,8.9-13.57.85-19.65-3.68-18.23-13.57v-15.69c-3.39,1.13-7.21,2.4-11.45,3.82l-.42-1.27c2.26-1.41,5.09-3.53,8.48-6.36,1.41-1.13,2.54-1.97,3.39-2.54v-36.47Z"/><path class="cls-1" d="M471.93,1.72l13.57,3.82-3.39,4.66v96.25h-12.3v-5.51h-48.34v5.51h-11.45V2.15h11.45v3.39h47.07l3.39-3.82ZM461.76,86.95c.28,1.7.28,2.54,0,2.54-.28.28-1.27-.14-2.97-1.27-7.63-5.94-11.45-13.42-11.45-22.47-.28.28-.85.85-1.7,1.7-.57.57-1.84,1.84-3.82,3.82v16.96h-9.33v-11.02c-2.54,1.42-6.22,2.97-11.02,4.66v9.75h48.34V14.02h-48.34v66.15c5.37-4.24,10.18-9.61,14.42-16.11h13.14l-.42.42c0,.28-.42.71-1.27,1.27h2.97c1.13,2.83,2.12,4.66,2.97,5.51,1.7-1.13,2.97-2.97,3.82-5.51l9.33,1.7c-3.11,3.39-6.36,5.8-9.75,7.21,1.7,1.7,4.38,2.83,8.06,3.39.85,0,1.27.28,1.27.85,0,.28-.42.71-1.27,1.27-1.7,1.42-2.69,3.68-2.97,6.78ZM424.02,39.46v-7.21h16.11v-4.66h-13.99v-6.78h13.99v-5.51h11.45v5.51h13.99v6.78h-13.99v4.66h16.11v7.21h-43.67ZM454.97,40.73l9.75,3.39-1.7,2.12v16.96h-10.18v-2.54h-14.84v2.54h-10.6v-21.2h10.6v2.12h14.42l2.54-3.39ZM438.01,50.06v4.66h14.84v-4.66h-14.84Z"/><path class="cls-1" d="M14.5,82.78c-.41-.2-.89-.37-1.43-.51-.55-.14-1.05-.21-1.51-.21-.78,0-1.49.2-2.14.6-.65.4-1.13.91-1.43,1.53-.3.61-.45,1.31-.45,2.09,0,.84.18,1.58.55,2.21.37.63.86,1.12,1.48,1.46.38.2.74.35,1.09.44.34.09.72.14,1.15.14s.88-.07,1.33-.21c.45-.14.83-.33,1.14-.56v-2.75h-3.12v-1.02h4.33v4.16c-.41.39-.92.71-1.52.96-.78.34-1.65.51-2.63.51s-1.88-.23-2.69-.71c-.8-.47-1.42-1.1-1.86-1.89-.46-.81-.69-1.7-.69-2.65,0-1.07.24-2.01.72-2.82.48-.82,1.12-1.44,1.91-1.88.8-.46,1.71-.7,2.73-.7.7,0,1.33.08,1.91.23.57.15,1.13.38,1.67.68l-.51.9Z"/><path class="cls-1" d="M25.29,91.47h-1.46l-1.03-3.03h-4.15l-1.03,3.03h-1.36l3.72-10.35h1.58l3.74,10.35ZM20.7,82.42l-1.68,4.95h3.4l-1.72-4.95Z"/><path class="cls-1" d="M26.51,81.12h1.3v9.26h4.88v1.09h-6.19v-10.35Z"/><path class="cls-1" d="M34.02,81.12h1.3v9.26h4.88v1.09h-6.19v-10.35Z"/><path class="cls-1" d="M41.53,91.47v-10.35h6.36v1.05h-5.06v3.41h4.66v1.07h-4.66v3.73h5.06v1.09h-6.36Z"/><path class="cls-1" d="M53.25,87.18h-2.08v4.29h-1.3v-10.35h3.42c.51,0,.89.02,1.12.05.23.03.46.07.68.12.63.21,1.13.57,1.48,1.06.36.5.53,1.1.53,1.82-.01.7-.24,1.31-.68,1.81-.44.5-1.04.85-1.81,1.04l3.08,4.46h-1.48l-2.96-4.29ZM54.3,85.96c.45-.09.81-.28,1.09-.57.28-.3.42-.72.42-1.29s-.17-.98-.49-1.3c-.33-.31-.77-.5-1.32-.55-.2-.05-.66-.08-1.38-.08h-1.42v3.86c.53.04,1,.06,1.42.06.68,0,1.25-.04,1.7-.13Z"/><path class="cls-1" d="M63.03,91.47h-1.3v-4.91l-3.6-5.44h1.54l2.79,4.25,2.81-4.25h1.48l-3.71,5.44v4.91Z"/><path class="cls-1" d="M14.5,98.48c-.41-.2-.89-.37-1.43-.51-.55-.14-1.05-.21-1.51-.21-.78,0-1.49.2-2.14.6-.65.4-1.13.91-1.43,1.53-.3.61-.45,1.31-.45,2.09,0,.84.18,1.58.55,2.21.37.63.86,1.12,1.48,1.46.38.2.74.35,1.09.44.34.09.72.14,1.15.14s.88-.07,1.33-.21c.45-.14.83-.33,1.14-.56v-2.75h-3.12v-1.02h4.33v4.16c-.41.39-.92.71-1.52.96-.78.34-1.65.51-2.63.51s-1.88-.23-2.69-.71c-.8-.47-1.42-1.1-1.86-1.89-.46-.81-.69-1.7-.69-2.65,0-1.07.24-2.01.72-2.82.48-.82,1.12-1.44,1.91-1.88.8-.46,1.71-.7,2.73-.7.7,0,1.33.08,1.91.23.57.15,1.13.38,1.67.68l-.51.9Z"/><path class="cls-1" d="M25.29,107.17h-1.46l-1.03-3.03h-4.15l-1.03,3.03h-1.36l3.72-10.35h1.58l3.74,10.35ZM20.7,98.12l-1.68,4.95h3.4l-1.72-4.95Z"/><path class="cls-1" d="M29.89,102.88h-2.08v4.29h-1.3v-10.35h3.42c.51,0,.89.02,1.12.05.23.03.46.07.68.12.63.21,1.13.57,1.48,1.06.36.5.53,1.1.53,1.82-.01.7-.24,1.31-.68,1.81-.44.5-1.04.85-1.81,1.04l3.08,4.46h-1.48l-2.96-4.29ZM30.94,101.66c.45-.09.81-.28,1.09-.57.28-.29.42-.72.42-1.29s-.17-.98-.49-1.3c-.33-.31-.77-.5-1.32-.55-.2-.05-.66-.08-1.38-.08h-1.42v3.86c.53.04,1,.06,1.42.06.68,0,1.25-.04,1.7-.13Z"/><path class="cls-1" d="M39.75,107.17h-3.83v-10.35h3.83c1.08,0,2,.21,2.75.63.75.42,1.33,1,1.74,1.74.42.83.63,1.76.63,2.8,0,1.1-.21,2.03-.63,2.79-.41.77-.98,1.35-1.73,1.77-.74.41-1.66.62-2.76.62ZM37.23,106.08h2.43c.88,0,1.59-.17,2.12-.5.53-.33.95-.8,1.26-1.4.26-.51.4-1.24.4-2.18,0-.79-.15-1.51-.45-2.15-.34-.64-.73-1.1-1.17-1.39-.57-.38-1.28-.56-2.15-.56h-2.43v8.19Z"/><path class="cls-1" d="M46.55,107.17v-10.35h6.36v1.05h-5.06v3.41h4.66v1.07h-4.66v3.73h5.06v1.09h-6.36Z"/><path class="cls-1" d="M54.81,96.82h1.66l5.91,8.68v-8.68h1.34v10.35h-1.68l-5.93-8.71v8.71h-1.3v-10.35Z"/><path class="cls-2" d="M59.67,12.3c.94-.08,1.89-.02,2.83.16,3.22.61,5.99,2.71,7.55,5.78,1.59,3.08,1.91,6.65,1.92,10.03-.02,2.8-.2,5.38-.88,7.72.68,2.33.86,4.92.88,7.72-.01,3.38-.33,6.96-1.92,10.03-1.56,3.07-4.33,5.16-7.55,5.77-.94.18-1.89.24-2.83.16.08.94.02,1.89-.16,2.83-.61,3.22-2.71,5.99-5.78,7.55-3.08,1.59-6.65,1.9-10.03,1.92-2.8-.02-5.39-.2-7.72-.88-2.33.68-4.92.86-7.72.88-3.38-.01-6.96-.33-10.03-1.92-3.06-1.56-5.16-4.33-5.77-7.55-.18-.94-.24-1.89-.16-2.83-.94.08-1.89.02-2.83-.16-3.22-.61-5.99-2.71-7.55-5.77C.33,50.65.01,47.08,0,43.7c.02-2.8.2-5.38.88-7.72-.68-2.34-.86-4.92-.88-7.72.01-3.38.33-6.96,1.92-10.03,1.56-3.06,4.33-5.16,7.55-5.78.94-.18,1.89-.23,2.83-.16-.07-.94-.02-1.89.16-2.83.61-3.22,2.71-5.99,5.77-7.55C21.31.33,24.88.01,28.26,0c2.8.02,5.38.2,7.72.88,2.34-.68,4.92-.86,7.72-.88,3.38.01,6.95.33,10.03,1.92,3.07,1.56,5.16,4.33,5.78,7.55.18.94.24,1.89.16,2.83t0,0ZM54.59,13.74c.92-1.46,1.21-3.15.91-4.82-.41-2.23-1.86-4.17-4.01-5.45-2.15-1.28-4.71-1.82-7.24-1.89-2.54-.06-4.88.32-6.74,1.36-1.85,1.04-3.02,2.73-3.06,4.92-.03,1.63.59,3.41,1.84,5,2.76-1.68,5.96-2.43,9.23-2.27,3.28.17,6.42,1.24,9.07,3.16t0,0ZM13.74,17.37c-1.46-.92-3.15-1.21-4.82-.91-2.23.41-4.18,1.87-5.45,4.01-1.29,2.15-1.82,4.71-1.89,7.24-.05,2.54.32,4.88,1.36,6.74,1.04,1.85,2.74,3.02,4.92,3.05,1.64.03,3.4-.59,5-1.84-1.67-2.76-2.43-5.95-2.27-9.23.17-3.28,1.24-6.43,3.15-9.07t0,0ZM51.87,16.65c-1.8-1.18-3.88-1.86-6.05-1.96-2.24-.1-4.42.42-6.31,1.54,2.03,2.53,3.23,5.75,3.32,9.24,3.25-3.2,6.31-6.19,9.03-8.82h0ZM25.47,29.12c-3.21-3.25-6.19-6.31-8.82-9.03-1.18,1.8-1.86,3.88-1.96,6.05-.11,2.24.42,4.42,1.54,6.31,2.53-2.03,5.75-3.23,9.24-3.32h0ZM32.99,2.27c-1.57-.54-3.36-.75-5.27-.7-2.54.07-5.1.61-7.24,1.89-2.14,1.28-3.6,3.22-4.01,5.45-.41,2.22.26,4.49,2.01,6.18,4.81,4.62,10.94,10.63,17.3,16.97,1.26-1.95,1.92-4.22,1.9-6.51-.01-3.15-1.29-6.02-3.48-8.03-3.15-2.87-4.64-6.48-4.4-9.59.18-2.47,1.39-4.43,3.19-5.67t0,0ZM58.22,54.59c1.46.91,3.15,1.22,4.82.91,2.23-.41,4.18-1.87,5.45-4.01,1.28-2.15,1.82-4.71,1.9-7.24.05-2.54-.32-4.88-1.36-6.74-1.04-1.85-2.73-3.01-4.92-3.05-1.63-.03-3.41.59-5,1.84,1.67,2.76,2.43,5.95,2.27,9.23-.17,3.28-1.24,6.43-3.16,9.07t0,0ZM55.31,51.87c1.18-1.8,1.86-3.88,1.96-6.05.1-2.24-.42-4.42-1.54-6.31-2.53,2.03-5.76,3.24-9.24,3.32,3.2,3.25,6.19,6.31,8.82,9.03h0ZM69.69,32.99c.54-1.57.75-3.36.7-5.27-.07-2.53-.61-5.1-1.9-7.24-1.27-2.14-3.22-3.6-5.45-4.01-2.22-.41-4.48.25-6.18,2.02-4.62,4.81-10.63,10.94-16.97,17.3,1.95,1.26,4.22,1.91,6.51,1.9,3.15-.01,6.02-1.29,8.03-3.48,2.87-3.15,6.48-4.64,9.59-4.4,2.48.18,4.42,1.39,5.67,3.19t0,0ZM17.37,58.23c-.91,1.46-1.22,3.15-.91,4.82.41,2.23,1.87,4.18,4.01,5.45,2.15,1.28,4.71,1.82,7.24,1.89,2.54.06,4.88-.32,6.74-1.36,1.85-1.04,3.01-2.74,3.05-4.92.03-1.64-.59-3.41-1.84-5-2.76,1.68-5.96,2.43-9.23,2.27-3.28-.17-6.43-1.24-9.07-3.16t0,0ZM20.09,55.31c1.8,1.18,3.88,1.86,6.05,1.96,2.24.1,4.42-.42,6.3-1.54-2.03-2.53-3.23-5.75-3.32-9.24-3.25,3.21-6.31,6.19-9.03,8.82h0ZM38.97,69.69c1.57.54,3.36.75,5.27.7,2.53-.07,5.1-.61,7.24-1.89,2.14-1.28,3.59-3.22,4.01-5.45.41-2.22-.25-4.48-2.01-6.18-4.81-4.63-10.94-10.63-17.3-16.97-1.25,1.95-1.91,4.22-1.9,6.51.01,3.15,1.29,6.02,3.49,8.03,3.15,2.87,4.64,6.48,4.4,9.59-.18,2.48-1.39,4.42-3.19,5.67t0,0ZM2.27,38.98c-.54,1.57-.75,3.36-.7,5.27.07,2.53.61,5.1,1.89,7.24,1.28,2.14,3.22,3.6,5.45,4.01,2.23.41,4.49-.25,6.18-2.01,4.63-4.81,10.63-10.94,16.97-17.3-1.96-1.25-4.22-1.92-6.51-1.9-3.15.01-6.02,1.29-8.03,3.48-2.87,3.15-6.48,4.64-9.59,4.4-2.48-.18-4.42-1.39-5.67-3.19t0,0Z"/></g></svg>