<?xml version="1.0" encoding="UTF-8"?><svg id="_圖層_2" xmlns="http://www.w3.org/2000/svg" viewBox="0 0 435 199.48"><defs><style>.cls-1{fill:none;}.cls-1,.cls-2{stroke-width:0px;}.cls-2{fill:#367c8e;}</style></defs><g id="_文字"><rect class="cls-1" x="0" width="435" height="199.48"/><path class="cls-2" d="M135.85,107.67h-2.73c-19.38-.15-24.68-4.69-29.23-14.23-3.18-6.66-6.06-14.84-9.39-23.92-1.97-5.3-3.03-7.42-7.42-7.42h-4.39l-5.15,25.89c-2.57,14.08-1.67,15.14,10.3,16.66l-.61,2.42h-43.01l.61-2.42c11.21-1.36,12.11-2.73,14.84-16.66l11.66-60.27c2.73-14.39,1.36-15.29-10.15-16.66l.45-2.42h38.16c16.51,0,31.8,5.6,31.8,23.32,0,13.93-11.21,22.87-23.02,27.11,4.85,12.27,8.33,20.75,11.36,27.11,7.42,15.29,9.09,17.57,16.51,19.38l-.61,2.12ZM87.7,58.6c16.35,0,24.99-8.78,24.99-28.77,0-8.33-3.33-17.72-13.33-17.72-5.91,0-7.27.91-8.78,8.33l-7.12,38.16h4.24Z"/><path class="cls-2" d="M171.44,93.13c-8.63,11.21-18.02,15.75-23.17,15.75-4.85,0-6.36-4.69-3.63-15.75,3.18-13.33,5.3-21.81,8.03-33.77,1.06-4.85,1.06-6.81-.76-6.81-2.12,0-5.75,3.18-8.48,6.06l-1.36-2.12c6.97-8.18,18.02-15.29,23.77-15.29,5.3,0,5.45,4.85,2.57,18.02-2.57,10.9-5.15,21.81-7.72,32.56-1.06,4.24-.3,5.6,1.06,5.6,1.06,0,3.94-1.36,8.48-6.21l1.21,1.97ZM174.92,17.72c0,5.15-3.33,9.99-8.48,9.99-4.24,0-6.97-2.88-6.97-7.72,0-4.39,3.03-9.84,8.93-9.84,4.39,0,6.51,3.63,6.51,7.57Z"/><path class="cls-2" d="M180.07,57.39c8.33-8.63,19.08-16.2,25.29-16.2,4.09,0,4.54,4.85,2.88,14.69-1.97,12.11-6.81,34.22-9.69,47.55-3.18,13.78-8.78,28.32-20.59,37.1-8.78,6.66-13.17,8.03-16.51,8.03-4.09,0-6.81-2.73-6.81-5.75,0-2.12,1.67-5.6,3.63-7.27,1.36-1.06,2.42-1.36,3.33-.61,3.63,3.03,8.03,5.6,10.3,5.6s3.94-1.21,5.75-10.15c4.85-22.11,8.93-42.7,13.93-70.41,1.06-5.91.45-6.81-.76-6.81-1.97,0-6.06,3.33-9.39,6.21l-1.36-1.97ZM212.63,17.72c0,5.15-3.33,9.99-8.48,9.99-4.09,0-6.97-2.88-6.97-7.72,0-4.39,3.03-9.84,8.93-9.84,4.39,0,6.51,3.63,6.51,7.57Z"/><path class="cls-2" d="M284.86,93.89c-7.72,11.96-15.45,15.14-19.08,15.14-3.94,0-6.97-1.82-10.9-10.3-3.48-7.27-6.21-15.45-9.24-23.77-2.27,2.88-6.21,7.87-6.81,10.45-2.57,11.51-3.03,15.6-3.79,20.29-5.15.61-11.96,2.12-15.6,3.18l-1.21-.91c6.36-28.92,12.42-58.3,18.47-91.46,1.21-6.51,1.06-8.03-8.33-8.78l.61-2.12C242.91,4.24,252.45,0,254.73,0c1.21,0,1.06,1.06.61,3.48-5,23.02-9.69,48.31-14.69,73.14,6.81-8.78,27.86-35.28,38.46-35.28,4.39,0,6.66,2.73,6.66,5.15s-2.12,6.81-4.54,9.09c-1.67,1.67-2.88,1.36-3.48,1.06-2.73-1.51-5-3.63-8.63-3.63-2.88,0-9.24,5.15-13.63,10.6,1.82,4.85,6.97,16.2,10.6,23.17,5,9.69,6.81,11.36,9.24,11.36,1.67,0,3.94-1.21,8.33-6.06l1.21,1.82Z"/><path class="cls-2" d="M336.95,49.52c0,2.57-3.33,6.97-5.6,8.03-.91.45-1.67.45-2.73-.76-3.33-3.94-7.57-8.93-12.72-8.93-3.79,0-6.51,3.03-6.51,6.36,0,4.24,3.33,7.12,10.3,12.42,11.51,9.09,13.33,12.42,13.33,18.32,0,12.72-19.69,23.93-28.17,23.93-7.12,0-14.99-4.69-14.99-11.21,0-2.42,3.63-7.72,6.51-7.72.76-.15,1.51.3,2.12,1.06,5.75,7.12,10.6,10.75,15.9,10.75,4.69,0,7.27-3.18,7.27-6.51s-2.27-6.36-9.09-12.11c-5.6-4.69-13.48-9.84-13.48-18.47,0-4.69,1.97-10.3,9.69-16.66,4.69-3.79,10.75-6.81,15.9-6.81,6.21,0,12.27,3.48,12.27,8.33Z"/><path class="cls-2" d="M234.74,154.55v-.83c3.06-.51,3.15-.88,3.15-5.01v-9.47c0-4.22-1.4-6.01-4.2-6.01-1.44,0-3.01.49-4.82,2.05.11.74.21,1.5.21,2.62v11.38c0,3.57.41,3.95,2.98,4.44v.83h-11.5v-.83c2.94-.5,3.08-.86,3.08-4.44v-10.36c0-4.15-1.44-5.71-4.22-5.71-1.65,0-3.07.75-4.6,2.02v14c0,3.58.15,3.97,2.98,4.5v.83h-11.87v-.83c3.22-.53,3.43-.86,3.43-4.82v-11.65c0-3.47-.3-3.77-2.72-4.57v-.68c2.81-.35,5.8-1.29,8.29-2.32-.08,1.28-.11,3.06-.11,4.25,1.08-.7,2.02-1.49,3.23-2.31,1.88-1.21,3.17-1.78,4.71-1.78,2.7,0,4.75,1.49,5.8,4.36,1.34-1.01,2.68-2.04,4.05-2.92,1.37-.89,2.53-1.44,4.12-1.44,4.29,0,6.61,3.31,6.61,8.75v10.53c0,3.86.21,4.07,2.94,4.6v.83h-11.52Z"/><path class="cls-2" d="M275.27,153.2c-3.6.38-6.43,1.25-9.13,2.11.06-1.15.13-2.78.13-4.19-2.53,2.33-5.03,4.1-7.69,4.12-4.13.02-6.76-2.7-6.76-7.61v-12c0-2.64-.46-3.12-1.95-3.5l-1.03-.26v-.78c2.32-.11,6.27-.51,8.65-.97-.11,1.7-.17,4.02-.17,8.18v8.02c0,4.32,2.06,5.54,4.28,5.54,1.67,0,3.3-.48,4.68-1.9v-14.04c0-2.88-.57-3.33-2.28-3.73l-1.35-.3v-.8c3.13-.11,7.07-.51,9.15-.97v18.22c0,3.03.27,3.46,2.14,3.8l1.33.25v.82Z"/><path class="cls-2" d="M292.39,136.65c-1.1-3.51-3.01-5.64-5.97-5.64-1.97,0-3.39,1.32-3.39,3.58,0,2.57,1.81,3.7,4.29,5.05,4.03,2.15,6.78,3.93,6.78,7.79,0,5.18-4.78,7.81-9.03,7.81-2.71,0-4.97-.76-6.09-1.16-.17-1.06-.67-4.45-.92-6.4l.72-.17c1.14,3.57,3.53,6.55,7.11,6.55,2.25,0,3.59-1.51,3.59-3.65s-.95-3.61-4.34-5.56c-2.64-1.51-6.42-3.56-6.44-7.75-.02-4.21,3.38-7.23,8.56-7.27,2.3,0,4.21.55,5.24.61.09,1.64.5,5.04.68,6.02l-.78.19Z"/><path class="cls-2" d="M318.62,149.2c-3.38,4.63-7.46,6.03-9.35,6.03-6.99,0-11.09-5.65-11.09-11.87,0-3.97,1.48-7.33,3.83-9.82,2.45-2.58,5.36-3.71,8.04-3.71,5.22,0,8.54,3.98,8.58,8.14,0,.89-.06,1.3-.29,1.35-1.57.36-8.61.82-14.77,1-.02,7.76,4.33,10.95,8.31,10.95,1.99,0,4.11-.61,6.26-2.72l.49.64ZM308.44,131.33c-2.35,0-4.3,2.22-4.75,7.4,2.68.04,6.38.02,8.27-.17.66-.06,1.03-.19,1.03-.84,0-3.2-1.65-6.39-4.55-6.39Z"/><path class="cls-2" d="M348.17,153.2c-3.6.38-6.43,1.25-9.13,2.11.06-1.15.13-2.78.13-4.19-2.53,2.33-5.03,4.1-7.69,4.12-4.13.02-6.76-2.7-6.76-7.61v-12c0-2.64-.46-3.12-1.95-3.5l-1.03-.26v-.78c2.32-.11,6.27-.51,8.65-.97-.11,1.7-.17,4.02-.17,8.18v8.02c0,4.32,2.06,5.54,4.28,5.54,1.67,0,3.3-.48,4.68-1.9v-14.04c0-2.88-.57-3.33-2.28-3.73l-1.35-.3v-.8c3.13-.11,7.07-.51,9.15-.97v18.22c0,3.03.27,3.46,2.14,3.8l1.33.25v.82Z"/><path class="cls-2" d="M379.24,154.55v-.83c3.06-.51,3.15-.88,3.15-5.01v-9.47c0-4.22-1.4-6.01-4.2-6.01-1.44,0-3.01.49-4.82,2.05.11.74.21,1.5.21,2.62v11.38c0,3.57.41,3.95,2.98,4.44v.83h-11.5v-.83c2.94-.5,3.08-.86,3.08-4.44v-10.36c0-4.15-1.44-5.71-4.22-5.71-1.65,0-3.07.75-4.6,2.02v14c0,3.58.15,3.97,2.98,4.5v.83h-11.87v-.83c3.22-.53,3.43-.86,3.43-4.82v-11.65c0-3.47-.3-3.77-2.72-4.57v-.68c2.81-.35,5.8-1.29,8.29-2.32-.08,1.28-.11,3.06-.11,4.25,1.08-.7,2.02-1.49,3.23-2.31,1.88-1.21,3.17-1.78,4.71-1.78,2.7,0,4.75,1.49,5.8,4.36,1.34-1.01,2.68-2.04,4.05-2.92,1.37-.89,2.53-1.44,4.12-1.44,4.29,0,6.61,3.31,6.61,8.75v10.53c0,3.86.21,4.07,2.94,4.6v.83h-11.52Z"/><path class="cls-2" d="M72.15,185.34h.75l6.12,10.12,1.59,2.74h.1c-.08-1.34-.11-2.62-.11-3.92v-8.94h.69v13.89h-.77l-6.1-10.12-1.59-2.74h-.08c.04,1.3.08,2.49.08,3.81v9.05h-.67v-13.89Z"/><path class="cls-2" d="M84.5,194.21c0-3.29,2.1-5.32,4.34-5.32s3.81,1.67,3.81,4.65c0,.21,0,.44-.04.69h-7.39c0,2.66,1.55,4.61,3.92,4.61,1.15,0,2.01-.36,2.77-.92l.31.59c-.77.46-1.63.96-3.12.96-2.54,0-4.61-1.97-4.61-5.26ZM91.98,193.6c0-2.74-1.24-4.08-3.14-4.08s-3.41,1.53-3.62,4.08h6.75Z"/><path class="cls-2" d="M95.48,196.55v-6.77h-1.61v-.54l1.61-.1.08-2.95h.59v2.95h2.99v.63h-2.99v6.87c0,1.3.29,2.2,1.76,2.2.38,0,.92-.15,1.28-.33l.23.57c-.59.21-1.22.38-1.57.38-1.88,0-2.37-1.17-2.37-2.93Z"/><path class="cls-2" d="M101.65,184.04h.69v6.75c1.07-1.09,2.12-1.89,3.52-1.89,2.07,0,3.04,1.24,3.04,3.85v6.49h-.69v-6.39c0-2.22-.71-3.31-2.43-3.31-1.24,0-2.16.67-3.44,1.99v7.71h-.69v-15.19Z"/><path class="cls-2" d="M111.77,194.21c0-3.29,2.1-5.32,4.34-5.32s3.81,1.67,3.81,4.65c0,.21,0,.44-.04.69h-7.39c0,2.66,1.55,4.61,3.92,4.61,1.15,0,2.01-.36,2.77-.92l.31.59c-.77.46-1.63.96-3.12.96-2.54,0-4.61-1.97-4.61-5.26ZM119.25,193.6c0-2.74-1.24-4.08-3.14-4.08s-3.41,1.53-3.62,4.08h6.75Z"/><path class="cls-2" d="M122.74,189.14h.57l.11,1.89h.04c.67-1.22,1.65-2.14,2.85-2.14.34,0,.63.04.98.21l-.17.63c-.33-.13-.5-.17-.9-.17-.9,0-2.01.71-2.79,2.7v6.96h-.69v-10.08Z"/><path class="cls-2" d="M129.23,198.1v-14.06h.69v14.18c0,.42.15.63.42.63.08,0,.15,0,.36-.04l.13.59c-.17.04-.29.08-.57.08-.65,0-1.03-.4-1.03-1.38Z"/><path class="cls-2" d="M133.34,196.74c0-2.24,2.05-3.29,6.58-3.81.06-1.63-.36-3.41-2.45-3.41-1.44,0-2.64.71-3.29,1.22l-.34-.55c.63-.46,2.03-1.3,3.67-1.3,2.37,0,3.1,1.76,3.1,3.81v6.52h-.57l-.1-1.34h-.06c-1.03.84-2.3,1.59-3.64,1.59-1.57,0-2.91-.82-2.91-2.74ZM139.93,197.14v-3.62c-4.38.48-5.87,1.49-5.87,3.2,0,1.55,1.03,2.12,2.26,2.12s2.3-.57,3.62-1.7Z"/><path class="cls-2" d="M144.35,189.14h.57l.11,1.61h.04c1.03-1.05,2.09-1.86,3.48-1.86,2.07,0,3.04,1.24,3.04,3.85v6.49h-.69v-6.39c0-2.22-.71-3.31-2.43-3.31-1.24,0-2.16.67-3.44,1.99v7.71h-.69v-10.08Z"/><path class="cls-2" d="M154.57,194.21c0-3.25,2.07-5.32,4.52-5.32,1.22,0,2.07.46,3.1,1.26l-.06-1.89v-4.23h.69v15.19h-.57l-.1-1.34h-.04c-.84.84-1.97,1.59-3.37,1.59-2.53,0-4.17-1.86-4.17-5.26ZM162.13,197.1v-6.2c-1.11-1-2.03-1.38-3.08-1.38-2.12,0-3.75,2.09-3.75,4.69,0,2.76,1.26,4.63,3.5,4.63,1.17,0,2.22-.63,3.33-1.74Z"/><path class="cls-2" d="M165.54,198.1l.44-.55c.84.73,1.78,1.3,3.27,1.3,1.68,0,2.54-.98,2.54-2.12,0-1.32-1.34-1.91-2.53-2.33-1.53-.55-3.25-1.13-3.25-2.87,0-1.4,1.09-2.62,3.18-2.62,1,0,2.07.42,2.79,1.03l-.4.52c-.67-.5-1.4-.92-2.45-.92-1.66,0-2.41.96-2.41,1.95,0,1.21,1.22,1.66,2.43,2.12,1.61.61,3.35,1.11,3.35,3.08,0,1.49-1.17,2.79-3.29,2.79-1.51,0-2.77-.63-3.67-1.38Z"/><path class="cls-2" d="M78.33,175.55h-5.63l-1.74,4.94h-.71l4.96-13.89h.63l4.98,13.89h-.77l-1.72-4.94ZM78.12,174.94l-.96-2.77c-.59-1.68-1.07-3.1-1.59-4.84h-.08c-.52,1.74-1.01,3.16-1.61,4.84l-.98,2.77h5.2Z"/><path class="cls-2" d="M83.04,170.4h.57l.11,1.61h.04c.92-1.05,2.09-1.86,3.2-1.86,1.65,0,2.45.84,2.77,2.11,1.19-1.3,2.32-2.11,3.46-2.11,1.97,0,2.99,1.24,2.99,3.85v6.49h-.67v-6.39c0-2.22-.77-3.31-2.39-3.31-1,0-1.99.67-3.18,1.99v7.71h-.67v-6.39c0-2.22-.75-3.31-2.37-3.31-.98,0-2.03.67-3.18,1.99v7.71h-.69v-10.08Z"/><path class="cls-2" d="M98.76,179.36l.44-.55c.84.73,1.78,1.3,3.27,1.3,1.68,0,2.54-.98,2.54-2.12,0-1.32-1.34-1.91-2.53-2.33-1.53-.55-3.25-1.13-3.25-2.87,0-1.4,1.09-2.62,3.18-2.62.99,0,2.07.42,2.79,1.03l-.4.52c-.67-.5-1.4-.92-2.45-.92-1.66,0-2.41.96-2.41,1.95,0,1.21,1.22,1.66,2.43,2.12,1.61.61,3.35,1.11,3.35,3.08,0,1.49-1.17,2.79-3.29,2.79-1.51,0-2.77-.63-3.67-1.38Z"/><path class="cls-2" d="M108.31,177.81v-6.77h-1.61v-.54l1.61-.1.08-2.95h.59v2.95h2.98v.63h-2.98v6.87c0,1.3.29,2.2,1.76,2.2.38,0,.92-.15,1.28-.33l.23.57c-.59.21-1.22.38-1.57.38-1.88,0-2.37-1.17-2.37-2.93Z"/><path class="cls-2" d="M113.38,175.48c0-3.29,2.1-5.32,4.34-5.32s3.81,1.67,3.81,4.65c0,.21,0,.44-.04.69h-7.39c0,2.66,1.55,4.61,3.92,4.61,1.15,0,2.01-.36,2.77-.92l.31.59c-.77.46-1.63.96-3.12.96-2.54,0-4.61-1.97-4.61-5.26ZM120.86,174.86c0-2.74-1.24-4.08-3.14-4.08s-3.41,1.53-3.62,4.08h6.75Z"/><path class="cls-2" d="M124.35,170.4h.57l.11,1.89h.04c.67-1.22,1.65-2.14,2.85-2.14.34,0,.63.04.98.21l-.17.63c-.33-.13-.5-.17-.9-.17-.9,0-2.01.71-2.79,2.7v6.96h-.69v-10.08Z"/><path class="cls-2" d="M129.75,175.48c0-3.25,2.07-5.32,4.52-5.32,1.22,0,2.07.46,3.1,1.26l-.06-1.89v-4.23h.69v15.19h-.57l-.1-1.34h-.04c-.84.84-1.97,1.59-3.37,1.59-2.53,0-4.17-1.86-4.17-5.26ZM137.3,178.36v-6.2c-1.11-1-2.03-1.38-3.08-1.38-2.12,0-3.75,2.09-3.75,4.69,0,2.76,1.26,4.63,3.5,4.63,1.17,0,2.22-.63,3.33-1.74Z"/><path class="cls-2" d="M141.27,178c0-2.24,2.05-3.29,6.58-3.81.06-1.63-.36-3.41-2.45-3.41-1.44,0-2.64.71-3.29,1.22l-.34-.55c.63-.46,2.03-1.3,3.67-1.3,2.37,0,3.1,1.76,3.1,3.81v6.52h-.57l-.1-1.34h-.06c-1.03.84-2.3,1.59-3.64,1.59-1.57,0-2.91-.82-2.91-2.74ZM147.85,178.4v-3.62c-4.38.48-5.87,1.49-5.87,3.2,0,1.55,1.03,2.12,2.26,2.12s2.3-.57,3.62-1.7Z"/><path class="cls-2" d="M152.27,170.4h.57l.11,1.61h.04c.92-1.05,2.09-1.86,3.2-1.86,1.65,0,2.45.84,2.77,2.11,1.19-1.3,2.32-2.11,3.46-2.11,1.97,0,2.98,1.24,2.98,3.85v6.49h-.67v-6.39c0-2.22-.77-3.31-2.39-3.31-.99,0-1.99.67-3.18,1.99v7.71h-.67v-6.39c0-2.22-.75-3.31-2.37-3.31-.98,0-2.03.67-3.18,1.99v7.71h-.69v-10.08Z"/><path class="cls-2" d="M82,161.96v-19.73s-29.38,0-29.38,0v29.38s11.33,0,11.33,0c-.06.41-.05.85.04,1.27h-12.64v-31.93h31.93v21.13c-.41-.11-.85-.15-1.27-.12Z"/></g></svg>