<?xml version="1.0" encoding="UTF-8"?><svg id="_圖層_2" xmlns="http://www.w3.org/2000/svg" viewBox="0 0 435 153.62"><defs><style>.cls-1{fill:none;}.cls-1,.cls-2{stroke-width:0px;}.cls-2{fill:#367c8e;}</style></defs><g id="_文字"><rect class="cls-1" y="0" width="435" height="153.62"/><path class="cls-2" d="M281.44,0c-.92,3.55-2.63,12.13-3.66,18.88l-1.83.12c-.11-2.06-.11-4.35-.23-5.95-.57-6.07-2.17-7.55-9.27-7.55h-9.04l-10.99,56.65c-2.06,10.64-1.26,11.22,8.93,12.7l-.34,1.83h-35.25l.34-1.83c9.5-1.03,10.41-1.83,12.59-12.7l11.1-56.65h-6.64c-7.55,0-9.61.69-12.59,4.12-1.72,1.83-3.55,5.38-5.38,9.38l-1.72-.23c1.72-5.72,3.66-13.05,4.69-18.77h1.49c1.37,2.4,2.06,2.29,5.15,2.29h45.43c2.86,0,3.66-.46,5.61-2.29h1.6Z"/><path class="cls-2" d="M313.36,66.15c-6.52,8.47-13.16,11.9-16.94,11.9-3.32,0-4.69-2.86-2.86-12.93l.92-5.15c-3.55,5.72-6.98,9.16-10.64,12.47-4.12,3.66-7.55,5.61-11.33,5.61-4.69,0-7.44-5.49-7.44-13.05,0-10.53,4.92-21.86,12.13-28.5,4.69-4.35,13.5-9.61,22.43-9.61,4.92,0,10.99,1.49,13.16,1.95-2.52,9.38-5.15,23.12-7.67,36.28-.57,2.98-.23,4.12.92,4.12.92,0,2.86-.92,6.41-4.58l.92,1.49ZM291.5,60.54c2.98-4.23,3.78-7.32,4.81-11.1,1.37-5.04,3.09-13.62,3.55-16.94-1.72-.92-3.89-1.6-7.78-1.6-9.5,0-14.08,20.26-14.08,31.7,0,5.15,1.49,6.87,3.2,6.87,2.63,0,5.61-2.06,10.3-8.93Z"/><path class="cls-2" d="M351.24,31.47c-3.55.11-6.52.11-10.07.23-2.4,11.79-6.18,30.1-6.41,31.24-.8,4.92-.57,6.98,1.03,6.98,2.4,0,5.15-2.17,8.7-5.84l.92,1.26c-4.12,5.61-11.56,12.7-18.31,12.7-4.69,0-6.75-3.89-3.89-17.28l6.07-29.07h-8.12l-.23-.57,2.52-2.86h6.52l2.52-11.79c3.66-1.49,9.04-4.23,12.93-6.98l.92.46c-1.49,4.81-3.09,12.25-4.46,18.31h11.1l-1.72,3.2Z"/><path class="cls-2" d="M364.28,78.05c-5.95,0-12.7-3.32-12.7-16.02,0-10.87,4.58-21.74,12.25-28.27,4.69-4.01,11.44-6.87,16.71-6.87,6.52,0,9.04,4.12,9.04,8.58,0,9.96-15.68,14.99-25.41,17.4-.23,2.06-.23,3.43-.23,4.12,0,7.32,2.06,13.5,8.47,13.5,4.23,0,8.93-2.06,14.08-7.44l.92,1.49c-8.7,10.64-17.39,13.5-23.12,13.5ZM364.51,50.24c11.33-2.06,14.42-8.58,14.42-14.08,0-3.32-1.6-5.61-4.23-5.61-3.66,0-8.35,4.01-10.18,19.68Z"/><path class="cls-2" d="M165.29,79.69c-9.38,1.26-10.3,2.06-11.67,11.9-2.52,16.59-4.35,30.33-5.95,43.72-1.6,13.05-1.37,13.73,8.01,15.11l-.34,1.83h-32.62l.34-1.83c8.47-1.14,9.04-2.17,11.1-15.11,2.29-14.65,4.46-29.64,6.87-45.09h-.23c-11.33,19.23-24.72,42.11-36.16,62.49h-1.6c-3.32-18.54-9.04-43.95-12.93-61.34h-.23l-7.55,29.87c-2.86,11.22-4.12,17.4-4.58,20.14-.92,5.72-.8,8.01,9.27,9.04l-.34,1.83h-26.55l.34-1.83c8.35-1.14,9.38-2.06,12.02-8.47,1.37-3.32,4.23-12.93,6.75-21.97l8.58-31.59c1.14-4.12.8-7.09-9.96-8.7l.34-1.83h21.51c3.78,16.25,9.61,38.34,13.28,53.79l32.27-53.79h20.48l-.46,1.83Z"/><path class="cls-2" d="M206.94,119.17c0,12.02-5.84,24.49-16.48,30.67-3.89,2.29-8.13,3.78-13.16,3.78-11.79,0-15.56-8.12-15.56-16.82,0-14.65,8.12-26.44,18.42-31.47,3.66-1.72,7.67-2.86,11.79-2.86,10.07,0,14.99,6.98,14.99,16.71ZM174.56,137.02c0,9.61,3.2,13.62,6.98,13.62,10.19,0,12.7-23.57,12.7-31.58,0-9.61-2.86-13.5-6.52-13.5-9.96,0-13.16,23.12-13.16,31.47Z"/><path class="cls-2" d="M263.81,141.49c-6.41,8.47-13.96,12.13-17.74,12.13s-5.04-2.63-3.09-12.02l1.37-5.84c-6.87,10.19-15.91,17.85-22.32,17.85-4.23,0-8.01-4-8.01-13.5,0-10.87,4.35-22.89,11.9-29.53,5.95-5.38,15.56-8.13,19.34-8.13,1.49,0,3.43.23,5.72.57l3.89-19.68c.92-4.81.23-5.04-4.58-5.95-.8-.11-1.49-.23-2.17-.34l.34-1.49c4.92-.46,12.7-1.95,16.25-3.2,2.06-.69,3.32-1.03,3.89-1.03.92,0,1.14.69.57,3.21-4.69,20.71-10.41,47.15-13.96,66.15-.57,2.98-.23,4.12.92,4.12.92,0,3.2-1.03,6.75-4.81l.92,1.49ZM243.56,133.02c1.6-2.52,2.4-5.95,3.09-9.38l3.09-14.76c-2.17-2.4-6.07-3.2-8.47-3.2-9.38,0-14.3,22.2-14.3,32.62,0,4.92,1.26,7.21,3.32,7.21,3.55,0,8.35-4.58,13.28-12.47Z"/><path class="cls-2" d="M282.92,153.62c-5.95,0-12.7-3.32-12.7-16.02,0-10.87,4.58-21.74,12.25-28.27,4.69-4.01,11.44-6.87,16.71-6.87,6.52,0,9.04,4.12,9.04,8.58,0,9.96-15.68,14.99-25.41,17.39-.23,2.06-.23,3.43-.23,4.12,0,7.32,2.06,13.5,8.47,13.5,4.23,0,8.93-2.06,14.08-7.44l.92,1.49c-8.7,10.64-17.39,13.5-23.12,13.5ZM283.15,125.81c11.33-2.06,14.42-8.58,14.42-14.08,0-3.32-1.6-5.61-4.23-5.61-3.66,0-8.35,4.01-10.18,19.68Z"/><path class="cls-2" d="M313.93,114.13c6.52-8.13,13.05-11.67,16.82-11.67,4.35,0,4.12,5.38,2.06,15.34l-.92,3.89c4-8.12,11.1-19.23,16.94-19.23,2.98,0,5.15,2.52,5.15,5.61s-3.32,7.67-5.15,8.7c-.92.57-1.6.8-2.17.11-1.49-1.6-4.46-3.78-5.84-3.78-2.4,0-6.29,7.67-7.9,11.44-2.98,6.87-5.15,19.46-6.75,26.66-4.01.34-8.81,1.37-11.67,2.29l-.57-.69c2.86-12.02,5.72-25.41,7.32-33.3,1.26-6.52,1.37-8.35.23-8.35-1.83,0-4.69,2.86-6.52,4.35l-1.03-1.37Z"/><path class="cls-2" d="M407.54,142.17c-6.41,8.01-12.82,11.44-17.28,11.44-3.66,0-5.04-2.52-3.09-10.87,1.83-8.35,3.78-16.48,5.72-24.83,1.26-5.72.8-7.78-1.37-7.78-4.23,0-10.99,8.01-14.3,13.96-2.75,4.69-3.09,7.55-4.01,10.87-1.26,5.38-2.63,11.79-3.43,16.25-3.66.34-8.58,1.37-11.79,2.29l-.57-.69c2.06-9.61,5.49-23.8,8.35-36.62.8-3.66.92-5.04-.46-5.04-1.6,0-4.46,2.29-6.52,4.46l-1.03-1.6c5.26-6.87,12.47-11.56,16.82-11.56s4.69,3.66,2.75,13.39l-1.37,5.95c6.75-10.87,17.05-19.34,24.38-19.34,4.01,0,7.1,1.72,4.01,16.02-1.72,7.44-3.32,14.65-4.92,22.2-.8,3.2-.46,4.23.57,4.23.8,0,3.2-.8,6.64-4.46l.92,1.72Z"/><path class="cls-2" d="M62.87,25.35h.71v13.26h6.51v.63h-7.21v-13.89Z"/><path class="cls-2" d="M71.41,34.22c0-3.39,2.07-5.32,4.48-5.32s4.48,1.93,4.48,5.32-2.07,5.26-4.48,5.26-4.48-1.93-4.48-5.26ZM79.65,34.22c0-2.77-1.63-4.69-3.77-4.69s-3.75,1.91-3.75,4.69,1.61,4.63,3.75,4.63,3.77-1.88,3.77-4.63Z"/><path class="cls-2" d="M83.5,29.15h.57l.11,1.61h.04c1.03-1.05,2.09-1.86,3.48-1.86,2.07,0,3.04,1.24,3.04,3.85v6.49h-.69v-6.39c0-2.22-.71-3.31-2.43-3.31-1.24,0-2.16.67-3.44,1.99v7.71h-.69v-10.08Z"/><path class="cls-2" d="M93.72,34.22c0-3.25,2.07-5.32,4.52-5.32,1.22,0,2.07.46,3.1,1.26l-.06-1.89v-4.23h.69v15.19h-.57l-.1-1.34h-.04c-.84.84-1.97,1.59-3.37,1.59-2.53,0-4.17-1.86-4.17-5.26ZM101.28,37.11v-6.2c-1.11-1-2.03-1.38-3.08-1.38-2.12,0-3.75,2.09-3.75,4.69,0,2.76,1.26,4.63,3.5,4.63,1.17,0,2.22-.63,3.33-1.74Z"/><path class="cls-2" d="M105.11,34.22c0-3.39,2.07-5.32,4.48-5.32s4.48,1.93,4.48,5.32-2.07,5.26-4.48,5.26-4.48-1.93-4.48-5.26ZM113.36,34.22c0-2.77-1.63-4.69-3.77-4.69s-3.75,1.91-3.75,4.69,1.61,4.63,3.75,4.63,3.77-1.88,3.77-4.63Z"/><path class="cls-2" d="M117.21,29.15h.57l.11,1.61h.04c1.03-1.05,2.09-1.86,3.48-1.86,2.07,0,3.04,1.24,3.04,3.85v6.49h-.69v-6.39c0-2.22-.71-3.31-2.43-3.31-1.24,0-2.16.67-3.44,1.99v7.71h-.69v-10.08Z"/><path class="cls-2" d="M132.62,25.35h7.46v.63h-6.75v5.53h5.66v.63h-5.66v6.47h6.96v.63h-7.67v-13.89Z"/><path class="cls-2" d="M143.28,29.15h.57l.11,1.61h.04c1.03-1.05,2.09-1.86,3.48-1.86,2.07,0,3.04,1.24,3.04,3.85v6.49h-.69v-6.39c0-2.22-.71-3.31-2.43-3.31-1.24,0-2.16.67-3.44,1.99v7.71h-.69v-10.08Z"/><path class="cls-2" d="M153.5,41.34c0-.88.59-1.82,1.53-2.49v-.08c-.52-.31-.9-.84-.9-1.61,0-.92.67-1.55,1.11-1.86v-.08c-.63-.55-1.28-1.55-1.28-2.77,0-2.05,1.53-3.56,3.46-3.56.57,0,1.03.13,1.32.25h3.37v.63h-2.41c.71.59,1.19,1.53,1.19,2.68,0,2.01-1.51,3.58-3.46,3.58-.57,0-1.24-.17-1.7-.46-.46.36-.88.84-.88,1.53,0,.77.42,1.4,1.97,1.4h2.24c2.22,0,3.23.71,3.23,2.26,0,1.7-1.82,3.39-4.65,3.39-2.56,0-4.13-1.13-4.13-2.81ZM161.58,40.84c0-1.19-.84-1.65-2.43-1.65h-2.3c-.13,0-.67-.04-1.22-.17-1,.67-1.4,1.51-1.4,2.26,0,1.34,1.24,2.26,3.44,2.26,2.41,0,3.9-1.38,3.9-2.7ZM160.18,32.46c0-1.8-1.24-2.93-2.75-2.93s-2.74,1.11-2.74,2.93,1.28,2.95,2.74,2.95,2.75-1.21,2.75-2.95Z"/><path class="cls-2" d="M164.53,38.11v-14.06h.69v14.18c0,.42.15.63.42.63.08,0,.15,0,.36-.04l.13.59c-.17.04-.29.08-.57.08-.65,0-1.03-.4-1.03-1.38Z"/><path class="cls-2" d="M168.64,36.75c0-2.24,2.05-3.29,6.58-3.81.06-1.63-.36-3.41-2.45-3.41-1.44,0-2.64.71-3.29,1.22l-.34-.55c.63-.46,2.03-1.3,3.67-1.3,2.37,0,3.1,1.76,3.1,3.81v6.52h-.57l-.1-1.34h-.06c-1.03.84-2.3,1.59-3.64,1.59-1.57,0-2.91-.82-2.91-2.74ZM175.22,37.15v-3.62c-4.38.48-5.87,1.49-5.87,3.2,0,1.55,1.03,2.12,2.26,2.12s2.3-.57,3.62-1.7Z"/><path class="cls-2" d="M179.65,29.15h.57l.11,1.61h.04c1.03-1.05,2.09-1.86,3.48-1.86,2.07,0,3.04,1.24,3.04,3.85v6.49h-.69v-6.39c0-2.22-.71-3.31-2.43-3.31-1.24,0-2.16.67-3.44,1.99v7.71h-.69v-10.08Z"/><path class="cls-2" d="M189.87,34.22c0-3.25,2.07-5.32,4.52-5.32,1.22,0,2.07.46,3.1,1.26l-.06-1.89v-4.23h.69v15.19h-.57l-.1-1.34h-.04c-.84.84-1.97,1.59-3.37,1.59-2.53,0-4.17-1.86-4.17-5.26ZM197.43,37.11v-6.2c-1.11-1-2.03-1.38-3.08-1.38-2.12,0-3.75,2.09-3.75,4.69,0,2.76,1.26,4.63,3.5,4.63,1.17,0,2.22-.63,3.33-1.74Z"/><path class="cls-2" d="M53.84,39.17h-24.78V2.27h36.9v14.23c.52-.08,1.07-.06,1.6.05V.66H27.46v40.1h26.53c-.14-.52-.19-1.07-.15-1.6Z"/></g></svg>