<?xml version="1.0" encoding="UTF-8"?><svg id="_圖層_2" xmlns="http://www.w3.org/2000/svg" viewBox="0 0 435 215.97"><defs><style>.cls-1{fill:none;}.cls-1,.cls-2{stroke-width:0px;}.cls-2{fill:#367c8e;}</style></defs><g id="_文字"><rect class="cls-1" width="435" height="215.97"/><path class="cls-2" d="M94.6,214.72h-28.8l.31-1.66c7.46-1.24,8.08-2.18,7.46-7.56-.62-4.77-1.24-9.32-1.97-15.64h-18.54c-2.69,5.08-5.49,10.05-7.56,14.5-2.9,5.91-2.8,7.46,6.11,8.7l-.31,1.66h-22.17l.31-1.66c7.36-1.04,8.39-1.87,14.29-12.33l30.87-54.49,2.49-.41c3.83,26.11,6.21,41.02,8.29,56.04,1.24,9.01,2.07,9.95,9.53,11.19l-.31,1.66ZM68.08,162.82h-.21c-4.35,7.77-8.49,15.75-12.95,23.93h16.16l-3-23.93Z"/><path class="cls-2" d="M144.11,204.99c-5.59,7.46-12.12,10.98-15.64,10.98-3,0-4.66-2.18-3-9.74.62-2.9,1.14-5.39,1.76-8.18-5.49,8.29-11.08,13.36-14.29,15.44-2.07,1.45-4.66,2.49-6.94,2.49-4.04,0-7.25-2.07-4.35-14.92,1.24-5.49,3.32-13.05,4.66-18.96.72-3.31.83-4.87-.41-4.87s-4.14,2.28-6.01,4.25l-.83-1.35c4.56-5.49,11.4-10.46,15.75-10.46,3.42,0,4.14,3.32,2.18,12.22-1.66,7.36-3.21,13.05-4.87,20.41-1.14,4.97.41,6.21,1.45,6.21,3.11,0,6.73-4.14,10.57-9.63,2.07-3,4.35-7.36,5.49-12.43,1.04-4.35,1.97-8.6,3.21-14.09,3.52-.83,7.15-1.76,10.67-2.69h.62c-2.38,11.08-5.18,22.27-7.56,34.6-.62,2.9-.41,4.25.52,4.25.83,0,3.11-1.24,6.21-4.76l.83,1.24Z"/><path class="cls-2" d="M179.95,175.36c0,1.76-2.28,4.77-3.83,5.49-.62.31-1.14.31-1.87-.52-2.28-2.69-5.18-6.11-8.7-6.11-2.59,0-4.46,2.07-4.46,4.35,0,2.9,2.28,4.87,7.04,8.49,7.87,6.22,9.12,8.5,9.12,12.54,0,8.7-13.47,16.37-19.27,16.37-4.87,0-10.26-3.21-10.26-7.67,0-1.66,2.49-5.28,4.46-5.28.52-.1,1.04.21,1.45.73,3.94,4.87,7.25,7.35,10.88,7.35,3.21,0,4.97-2.17,4.97-4.45s-1.55-4.35-6.21-8.29c-3.83-3.21-9.22-6.73-9.22-12.64,0-3.21,1.35-7.04,6.63-11.39,3.21-2.59,7.36-4.66,10.88-4.66,4.25,0,8.39,2.38,8.39,5.7Z"/><path class="cls-2" d="M212.58,173.8c-3.21.1-5.91.1-9.12.21-2.18,10.67-5.59,27.25-5.8,28.28-.72,4.45-.52,6.32.93,6.32,2.18,0,4.66-1.97,7.87-5.28l.83,1.14c-3.73,5.08-10.46,11.5-16.58,11.5-4.25,0-6.11-3.52-3.52-15.64l5.49-26.31h-7.36l-.21-.52,2.28-2.59h5.9l2.28-10.67c3.31-1.35,8.18-3.83,11.71-6.32l.83.41c-1.35,4.35-2.8,11.08-4.04,16.58h10.05l-1.55,2.9Z"/><path class="cls-2" d="M214.03,180.23c5.9-7.36,11.81-10.57,15.23-10.57,3.94,0,3.73,4.87,1.86,13.88l-.83,3.52c3.62-7.35,10.05-17.4,15.33-17.4,2.69,0,4.66,2.28,4.66,5.08s-3,6.94-4.66,7.87c-.83.52-1.45.72-1.97.1-1.35-1.45-4.04-3.42-5.28-3.42-2.18,0-5.7,6.94-7.15,10.36-2.69,6.22-4.66,17.61-6.11,24.14-3.62.31-7.98,1.24-10.57,2.07l-.52-.62c2.59-10.88,5.18-23,6.63-30.14,1.14-5.91,1.24-7.56.21-7.56-1.66,0-4.25,2.59-5.9,3.94l-.93-1.24Z"/><path class="cls-2" d="M292.97,205.19c-5.9,7.67-11.91,10.77-15.33,10.77-3,0-4.25-2.59-2.59-11.71l.83-4.66c-3.21,5.18-6.32,8.29-9.63,11.29-3.73,3.32-6.84,5.08-10.26,5.08-4.25,0-6.73-4.97-6.73-11.81,0-9.53,4.45-19.79,10.98-25.79,4.25-3.94,12.22-8.7,20.3-8.7,4.46,0,9.95,1.35,11.91,1.76-2.28,8.5-4.66,20.93-6.94,32.84-.52,2.69-.21,3.73.83,3.73.83,0,2.59-.83,5.8-4.14l.83,1.35ZM273.18,200.12c2.69-3.83,3.42-6.63,4.35-10.05,1.24-4.56,2.8-12.33,3.21-15.33-1.55-.83-3.52-1.45-7.04-1.45-8.6,0-12.74,18.34-12.74,28.69,0,4.66,1.35,6.22,2.9,6.22,2.38,0,5.08-1.86,9.32-8.08Z"/><path class="cls-2" d="M318.97,204.99c-5.9,7.67-12.22,10.98-15.75,10.98-3.31,0-4.46-2.9-3-10.15,3.31-17.2,7.46-37.09,10.57-53.35.93-4.35.31-4.45-3.94-5.49-.83-.21-1.14-.21-1.66-.31l.31-1.35c5.18-.52,10.88-1.66,14.09-2.9,1.66-.62,2.9-.93,3.42-.93.83,0,.73,1.35.21,3.83-3.83,19.27-7.98,38.95-11.91,58.94-.62,2.9-.21,3.83.72,3.83.83,0,3-.93,6.11-4.35l.83,1.24Z"/><path class="cls-2" d="M344.45,205.19c-5.9,7.67-12.33,10.77-15.85,10.77-3.31,0-4.35-3.21-2.49-10.77,2.18-9.12,3.62-14.92,5.49-23.1.72-3.31.72-4.66-.52-4.66-1.45,0-3.94,2.18-5.8,4.14l-.93-1.45c4.77-5.59,12.33-10.46,16.26-10.46,3.63,0,3.73,3.32,1.76,12.33-1.76,7.46-3.52,14.92-5.28,22.27-.72,2.9-.21,3.83.72,3.83.73,0,2.69-.93,5.8-4.25l.83,1.35ZM346.83,153.6c0,3.52-2.28,6.84-5.8,6.84-2.9,0-4.77-1.97-4.77-5.28,0-3,2.07-6.73,6.11-6.73,3,0,4.46,2.49,4.46,5.18Z"/><path class="cls-2" d="M394.17,205.19c-5.91,7.67-11.91,10.77-15.33,10.77-3,0-4.25-2.59-2.59-11.71l.83-4.66c-3.21,5.18-6.32,8.29-9.63,11.29-3.73,3.32-6.84,5.08-10.25,5.08-4.25,0-6.73-4.97-6.73-11.81,0-9.53,4.46-19.79,10.98-25.79,4.25-3.94,12.22-8.7,20.3-8.7,4.46,0,9.95,1.35,11.91,1.76-2.28,8.5-4.66,20.93-6.94,32.84-.52,2.69-.21,3.73.83,3.73.83,0,2.59-.83,5.8-4.14l.83,1.35ZM374.38,200.12c2.69-3.83,3.42-6.63,4.35-10.05,1.24-4.56,2.8-12.33,3.21-15.33-1.55-.83-3.52-1.45-7.04-1.45-8.6,0-12.74,18.34-12.74,28.69,0,4.66,1.35,6.22,2.9,6.22,2.38,0,5.08-1.86,9.32-8.08Z"/><path class="cls-2" d="M330.88,146.94h-28.8l.31-1.66c7.46-1.24,8.08-2.18,7.46-7.56-.62-4.77-1.24-9.32-1.97-15.64h-18.54c-2.69,5.08-5.49,10.05-7.56,14.5-2.9,5.91-2.8,7.46,6.11,8.7l-.31,1.66h-22.17l.31-1.66c7.36-1.04,8.39-1.87,14.29-12.33l30.87-54.49,2.49-.41c3.83,26.11,6.21,41.02,8.29,56.04,1.24,9.01,2.07,9.95,9.53,11.19l-.31,1.66ZM304.36,95.04h-.21c-4.35,7.77-8.49,15.75-12.95,23.93h16.16l-3-23.93Z"/><path class="cls-2" d="M336.47,112.45c5.91-7.36,11.81-10.57,15.23-10.57,3.94,0,3.73,4.87,1.87,13.88l-.83,3.52c3.63-7.35,10.05-17.4,15.33-17.4,2.69,0,4.66,2.28,4.66,5.08s-3,6.94-4.66,7.87c-.83.52-1.45.72-1.97.1-1.35-1.45-4.04-3.42-5.28-3.42-2.17,0-5.7,6.94-7.15,10.36-2.69,6.22-4.66,17.61-6.11,24.14-3.62.31-7.98,1.24-10.56,2.07l-.52-.62c2.59-10.88,5.18-23,6.63-30.14,1.14-5.91,1.24-7.56.21-7.56-1.66,0-4.25,2.59-5.9,3.94l-.93-1.24Z"/><path class="cls-2" d="M404.32,106.02c-3.21.1-5.91.1-9.12.21-2.18,10.67-5.59,27.25-5.8,28.28-.72,4.45-.52,6.32.93,6.32,2.18,0,4.66-1.97,7.87-5.28l.83,1.14c-3.73,5.08-10.46,11.5-16.58,11.5-4.25,0-6.11-3.52-3.52-15.64l5.49-26.31h-7.36l-.21-.52,2.28-2.59h5.9l2.28-10.67c3.31-1.35,8.18-3.83,11.71-6.32l.83.41c-1.35,4.35-2.8,11.08-4.04,16.58h10.05l-1.55,2.9Z"/><path class="cls-2" d="M187,36.72l.48-.5c1.01,1.19,2.49,1.93,4.15,1.93,2.22,0,3.63-1.21,3.63-2.95,0-1.86-1.17-2.43-2.56-3.06l-2.12-.96c-1.21-.54-2.83-1.36-2.83-3.41s1.68-3.35,3.94-3.35c1.68,0,2.99.77,3.79,1.65l-.44.48c-.8-.86-1.93-1.45-3.35-1.45-1.93,0-3.21,1.03-3.21,2.6,0,1.74,1.46,2.37,2.43,2.81l2.12.96c1.57.71,2.95,1.53,2.95,3.67s-1.72,3.67-4.34,3.67c-2.05,0-3.58-.88-4.63-2.11Z"/><path class="cls-2" d="M197.32,43.03l.17-.63c.21.1.54.17.84.17,1.26,0,2.12-1.22,2.68-2.83l.29-.94-4.17-10.31h.77l2.54,6.58c.33.86.75,1.93,1.13,2.83h.1c.33-.9.67-1.97.96-2.83l2.26-6.58h.71l-4.02,11.5c-.52,1.57-1.53,3.25-3.27,3.25-.34,0-.73-.08-.98-.21Z"/><path class="cls-2" d="M206.96,33.56c0-3.25,2.07-5.32,4.52-5.32,1.22,0,2.07.46,3.1,1.26l-.06-1.89v-4.23h.69v15.19h-.57l-.1-1.34h-.04c-.84.84-1.97,1.59-3.37,1.59-2.53,0-4.17-1.86-4.17-5.26ZM214.52,36.45v-6.2c-1.11-1-2.03-1.38-3.08-1.38-2.12,0-3.75,2.09-3.75,4.69,0,2.76,1.26,4.63,3.5,4.63,1.17,0,2.22-.63,3.33-1.74Z"/><path class="cls-2" d="M219.23,28.49h.57l.11,1.61h.04c1.03-1.05,2.09-1.86,3.48-1.86,2.07,0,3.04,1.24,3.04,3.85v6.49h-.69v-6.39c0-2.22-.71-3.31-2.43-3.31-1.24,0-2.16.67-3.44,1.99v7.71h-.69v-10.08Z"/><path class="cls-2" d="M229.45,33.56c0-3.29,2.11-5.32,4.34-5.32s3.81,1.67,3.81,4.65c0,.21,0,.44-.04.69h-7.39c0,2.66,1.55,4.61,3.92,4.61,1.15,0,2.01-.36,2.77-.92l.31.59c-.77.46-1.63.96-3.12.96-2.54,0-4.61-1.97-4.61-5.26ZM236.93,32.95c0-2.74-1.24-4.08-3.14-4.08s-3.41,1.53-3.62,4.08h6.75Z"/><path class="cls-2" d="M239.14,43.03l.17-.63c.21.1.54.17.84.17,1.26,0,2.12-1.22,2.68-2.83l.29-.94-4.17-10.31h.77l2.54,6.58c.33.86.75,1.93,1.13,2.83h.1c.33-.9.67-1.97.96-2.83l2.26-6.58h.71l-4.02,11.5c-.52,1.57-1.53,3.25-3.27,3.25-.34,0-.73-.08-.98-.21Z"/><path class="cls-2" d="M260.15,33.64h-5.62l-1.74,4.94h-.71l4.96-13.89h.63l4.97,13.89h-.77l-1.72-4.94ZM259.94,33.02l-.96-2.77c-.59-1.68-1.07-3.1-1.59-4.84h-.08c-.52,1.74-1.01,3.16-1.61,4.84l-.98,2.77h5.2Z"/><path class="cls-2" d="M264.48,34.97v-6.49h.69v6.41c0,2.22.71,3.29,2.41,3.29,1.24,0,2.18-.67,3.43-2.16v-7.54h.69v10.08h-.59l-.08-1.72h-.04c-1.01,1.17-2.07,1.97-3.46,1.97-2.07,0-3.04-1.22-3.04-3.85Z"/><path class="cls-2" d="M274.4,37.44l.44-.55c.84.73,1.78,1.3,3.27,1.3,1.68,0,2.54-.98,2.54-2.12,0-1.32-1.34-1.91-2.53-2.33-1.53-.55-3.25-1.13-3.25-2.87,0-1.4,1.09-2.62,3.18-2.62,1,0,2.07.42,2.79,1.03l-.4.52c-.67-.5-1.4-.92-2.45-.92-1.67,0-2.41.96-2.41,1.95,0,1.21,1.22,1.66,2.43,2.12,1.61.61,3.35,1.11,3.35,3.08,0,1.49-1.17,2.79-3.29,2.79-1.51,0-2.77-.63-3.67-1.38Z"/><path class="cls-2" d="M283.95,35.89v-6.77h-1.61v-.54l1.61-.1.08-2.95h.59v2.95h2.98v.63h-2.98v6.87c0,1.3.29,2.2,1.76,2.2.38,0,.92-.15,1.28-.33l.23.57c-.59.21-1.22.38-1.57.38-1.88,0-2.37-1.17-2.37-2.93Z"/><path class="cls-2" d="M290.11,28.49h.57l.11,1.89h.04c.67-1.22,1.65-2.14,2.85-2.14.34,0,.63.04.97.21l-.17.63c-.33-.13-.5-.17-.9-.17-.9,0-2.01.71-2.79,2.7v6.96h-.69v-10.08Z"/><path class="cls-2" d="M295.43,36.09c0-2.24,2.05-3.29,6.58-3.81.06-1.63-.36-3.41-2.45-3.41-1.43,0-2.64.71-3.29,1.22l-.34-.55c.63-.46,2.03-1.3,3.67-1.3,2.37,0,3.1,1.76,3.1,3.81v6.52h-.57l-.1-1.34h-.06c-1.03.84-2.3,1.59-3.64,1.59-1.57,0-2.91-.82-2.91-2.74ZM302.01,36.49v-3.62c-4.38.48-5.87,1.49-5.87,3.2,0,1.55,1.03,2.12,2.26,2.12s2.3-.57,3.62-1.7Z"/><path class="cls-2" d="M306.44,37.44v-14.06h.69v14.18c0,.42.15.63.42.63.08,0,.15,0,.36-.04l.13.59c-.17.04-.29.08-.57.08-.65,0-1.03-.4-1.03-1.38Z"/><path class="cls-2" d="M310.93,25.22c0-.48.33-.75.73-.75s.75.27.75.75c0,.44-.36.73-.75.73s-.73-.29-.73-.73ZM311.3,28.49h.69v10.08h-.69v-10.08Z"/><path class="cls-2" d="M315.24,36.09c0-2.24,2.05-3.29,6.58-3.81.06-1.63-.36-3.41-2.45-3.41-1.43,0-2.64.71-3.29,1.22l-.34-.55c.63-.46,2.03-1.3,3.67-1.3,2.37,0,3.1,1.76,3.1,3.81v6.52h-.57l-.1-1.34h-.06c-1.03.84-2.3,1.59-3.64,1.59-1.57,0-2.91-.82-2.91-2.74ZM321.82,36.49v-3.62c-4.38.48-5.87,1.49-5.87,3.2,0,1.55,1.03,2.12,2.26,2.12s2.3-.57,3.62-1.7Z"/><path class="cls-2" d="M174.85,38.5h-24.78V1.6h36.9v14.23c.52-.08,1.07-.06,1.6.05V0h-40.1v40.1h26.53c-.14-.52-.19-1.07-.15-1.6Z"/><path class="cls-2" d="M66.17,99.98v-.58c2.14-.36,2.21-.61,2.21-3.52v-6.65c0-2.96-.98-4.21-2.95-4.21-1.01,0-2.11.34-3.38,1.44.08.52.15,1.05.15,1.84v7.98c0,2.5.29,2.77,2.09,3.12v.58h-8.07v-.58c2.06-.35,2.16-.6,2.16-3.12v-7.27c0-2.91-1.01-4.01-2.96-4.01-1.15,0-2.15.53-3.22,1.41v9.82c0,2.52.11,2.78,2.09,3.16v.58h-8.32v-.58c2.26-.37,2.41-.6,2.41-3.38v-8.18c0-2.43-.21-2.65-1.91-3.2v-.48c1.97-.24,4.07-.9,5.82-1.63-.05.89-.08,2.15-.08,2.98.76-.49,1.42-1.04,2.26-1.62,1.32-.85,2.22-1.25,3.3-1.25,1.89,0,3.33,1.05,4.07,3.06.94-.71,1.88-1.44,2.84-2.05.96-.63,1.77-1.01,2.89-1.01,3.01,0,4.64,2.32,4.64,6.14v7.39c0,2.71.15,2.85,2.06,3.23v.58h-8.08Z"/><path class="cls-2" d="M94.2,99.03c-2.53.26-4.51.88-6.4,1.48.04-.81.1-1.95.1-2.94-1.78,1.63-3.53,2.87-5.4,2.89-2.9.01-4.74-1.9-4.74-5.34v-8.42c0-1.85-.33-2.18-1.37-2.45l-.72-.19v-.54c1.63-.08,4.4-.36,6.07-.68-.08,1.19-.12,2.82-.12,5.74v5.62c0,3.03,1.45,3.89,3,3.89,1.17,0,2.31-.34,3.28-1.33v-9.85c0-2.02-.4-2.34-1.6-2.62l-.95-.21v-.56c2.2-.08,4.96-.36,6.42-.68v12.78c0,2.12.19,2.43,1.5,2.67l.93.17v.57Z"/><path class="cls-2" d="M105.8,87.43c-.77-2.46-2.11-3.96-4.19-3.96-1.38,0-2.38.92-2.38,2.51,0,1.8,1.27,2.59,3.01,3.54,2.83,1.5,4.75,2.76,4.75,5.46,0,3.63-3.35,5.48-6.34,5.48-1.9,0-3.49-.53-4.27-.81-.12-.74-.47-3.12-.64-4.49l.51-.12c.8,2.5,2.47,4.59,4.98,4.59,1.58,0,2.52-1.06,2.52-2.56s-.67-2.53-3.04-3.9c-1.85-1.06-4.51-2.5-4.52-5.44-.01-2.95,2.37-5.08,6-5.1,1.61,0,2.96.39,3.67.43.07,1.15.35,3.53.48,4.22l-.55.13Z"/><path class="cls-2" d="M123.81,96.23c-2.37,3.25-5.23,4.23-6.56,4.23-4.9,0-7.78-3.96-7.78-8.33,0-2.78,1.03-5.14,2.69-6.89,1.72-1.81,3.76-2.61,5.64-2.61,3.66,0,5.99,2.79,6.02,5.71,0,.63-.04.91-.2.95-1.1.25-6.04.57-10.37.71-.02,5.44,3.04,7.68,5.83,7.68,1.4,0,2.88-.43,4.39-1.91l.35.45ZM116.67,83.69c-1.65,0-3.02,1.56-3.33,5.19,1.88.03,4.48.01,5.8-.12.46-.04.72-.14.72-.59,0-2.25-1.16-4.49-3.19-4.49Z"/><path class="cls-2" d="M144.14,99.03c-2.53.26-4.51.88-6.4,1.48.04-.81.1-1.95.1-2.94-1.78,1.63-3.53,2.87-5.4,2.89-2.9.01-4.74-1.9-4.74-5.34v-8.42c0-1.85-.33-2.18-1.37-2.45l-.72-.19v-.54c1.63-.08,4.4-.36,6.07-.68-.08,1.19-.12,2.82-.12,5.74v5.62c0,3.03,1.45,3.89,3,3.89,1.17,0,2.31-.34,3.28-1.33v-9.85c0-2.02-.4-2.34-1.6-2.62l-.95-.21v-.56c2.2-.08,4.96-.36,6.42-.68v12.78c0,2.12.19,2.43,1.5,2.67l.93.17v.57Z"/><path class="cls-2" d="M165.53,99.98v-.58c2.14-.36,2.21-.61,2.21-3.52v-6.65c0-2.96-.98-4.21-2.95-4.21-1.01,0-2.11.34-3.38,1.44.08.52.15,1.05.15,1.84v7.98c0,2.5.29,2.77,2.09,3.12v.58h-8.07v-.58c2.06-.35,2.16-.6,2.16-3.12v-7.27c0-2.91-1.01-4.01-2.96-4.01-1.15,0-2.15.53-3.22,1.41v9.82c0,2.52.11,2.78,2.09,3.16v.58h-8.32v-.58c2.26-.37,2.41-.6,2.41-3.38v-8.18c0-2.43-.21-2.65-1.91-3.2v-.48c1.97-.24,4.07-.9,5.82-1.63-.05.89-.08,2.15-.08,2.98.76-.49,1.42-1.04,2.26-1.62,1.32-.85,2.22-1.25,3.3-1.25,1.89,0,3.33,1.05,4.07,3.06.94-.71,1.88-1.44,2.84-2.05.96-.63,1.77-1.01,2.89-1.01,3.01,0,4.64,2.32,4.64,6.14v7.39c0,2.71.15,2.85,2.06,3.23v.58h-8.08Z"/><path class="cls-2" d="M191.08,82.64c5.05,0,8.42,4.02,8.42,8.63,0,6.1-4.36,9.19-8.36,9.19-5.96,0-8.78-4.54-8.78-8.71,0-5.84,4.66-9.11,8.71-9.11ZM190.55,83.53c-2.31,0-3.71,2.51-3.71,7.01,0,5.31,1.83,9.05,4.56,9.05,1.9,0,3.65-1.36,3.65-7.42,0-5.13-1.7-8.64-4.51-8.64Z"/><path class="cls-2" d="M203.75,83.12v-.56c0-3.63,1.07-7.1,4.22-9.44,1.4-1.02,2.62-1.58,4.18-1.77,1.56.04,2.61.64,3.11,1.16.5.52.46,1.1.21,1.63-.22.46-.58.94-1.03,1.25-.44.28-.78.24-1.1-.07-1.05-1.06-2.34-2.03-3.6-2.03-2.16,0-2.1,2.4-2.1,8.02v1.8h3.62c.15.33-.03.99-.33,1.18h-3.29v11.46c0,2.98.25,3.24,2.86,3.63v.58h-9.11v-.58c2.18-.31,2.37-.59,2.37-3.43v-11.66h-2.43l-.12-.25.62-.93h1.93Z"/><path class="cls-2" d="M70.01,122.57c-.51,1.57-1.8,4.43-2.55,5.73-1.14.27-3.53.82-6.59.82-6.51,0-11.42-3.61-11.42-11.06,0-9.34,7.57-15.57,16.28-15.57,3.18,0,5.69.75,6.59.9-.31,1.25-.75,4.12-1.02,6.16l-.63.08c.08-5.22-2.71-6.28-5.57-6.28-5.69,0-10.24,7.1-10.24,15.38,0,5.57,2.12,9.49,6.36,9.49,3.06,0,5.96-1.69,8.28-5.88l.51.24Z"/><path class="cls-2" d="M88.45,117.19c0,4.12-2,8.4-5.65,10.51-1.33.79-2.79,1.29-4.51,1.29-4.04,0-5.34-2.79-5.34-5.77,0-5.02,2.79-9.06,6.32-10.79,1.26-.59,2.63-.98,4.04-.98,3.45,0,5.14,2.39,5.14,5.73ZM77.35,123.31c0,3.3,1.1,4.67,2.39,4.67,3.49,0,4.36-8.08,4.36-10.83,0-3.29-.98-4.63-2.24-4.63-3.41,0-4.51,7.92-4.51,10.79Z"/><path class="cls-2" d="M108.26,125.08c-2.2,2.75-4.39,3.92-5.92,3.92-1.26,0-1.73-.86-1.06-3.73.63-2.86,1.29-5.65,1.96-8.51.43-1.96.28-2.67-.47-2.67-1.45,0-3.77,2.75-4.9,4.79-.94,1.61-1.06,2.59-1.37,3.73-.43,1.84-.9,4.04-1.18,5.57-1.26.12-2.94.47-4.04.79l-.2-.24c.71-3.3,1.88-8.16,2.86-12.55.27-1.26.31-1.73-.16-1.73-.55,0-1.53.79-2.23,1.53l-.35-.55c1.8-2.35,4.28-3.96,5.77-3.96s1.61,1.26.94,4.59l-.47,2.04c2.32-3.73,5.85-6.63,8.36-6.63,1.37,0,2.43.59,1.37,5.49-.59,2.55-1.14,5.02-1.69,7.61-.28,1.1-.16,1.45.2,1.45.28,0,1.1-.27,2.28-1.53l.31.59Z"/><path class="cls-2" d="M121.36,113.03c-1.22.04-2.24.04-3.45.08-.82,4.04-2.12,10.32-2.2,10.71-.27,1.69-.2,2.39.35,2.39.82,0,1.77-.75,2.98-2l.31.43c-1.41,1.92-3.96,4.35-6.28,4.35-1.61,0-2.31-1.33-1.33-5.92l2.08-9.96h-2.79l-.08-.2.86-.98h2.24l.86-4.04c1.25-.51,3.1-1.45,4.43-2.39l.31.16c-.51,1.65-1.06,4.2-1.53,6.28h3.8l-.59,1.1Z"/><path class="cls-2" d="M125.83,129c-2.04,0-4.35-1.14-4.35-5.49,0-3.73,1.57-7.45,4.2-9.69,1.61-1.37,3.92-2.35,5.73-2.35,2.24,0,3.1,1.41,3.1,2.94,0,3.41-5.38,5.14-8.71,5.96-.08.71-.08,1.18-.08,1.41,0,2.51.71,4.63,2.9,4.63,1.45,0,3.06-.71,4.83-2.55l.31.51c-2.98,3.65-5.96,4.63-7.93,4.63ZM125.91,119.47c3.88-.71,4.94-2.94,4.94-4.83,0-1.14-.55-1.92-1.45-1.92-1.26,0-2.86,1.37-3.49,6.75Z"/><path class="cls-2" d="M160.71,111.46c1.29,0,2.43.59,1.37,5.49-.59,2.55-1.14,5.02-1.69,7.61-.28,1.1-.16,1.53.2,1.53.28,0,1.14-.35,2.31-1.61l.31.51c-2.24,2.9-4.59,4-5.92,4-1.26,0-1.77-.82-1.1-3.69.63-2.86,1.29-5.69,1.96-8.55.43-1.96.27-2.67-.51-2.67-1.33,0-3.69,2.75-4.83,4.79-1.14,1.96-1.18,2.86-1.49,4-.43,1.84-.9,3.77-1.18,5.3-1.53.12-2.98.47-4.08.79l-.23-.24c.86-3.65,1.8-7.69,2.47-10.71.67-2.98.71-3.92-.27-3.92-1.33,0-3.61,2.55-4.75,4.59-1.14,1.96-1.26,3.06-1.57,4.2-.43,1.84-.82,3.77-1.1,5.3-1.25.12-2.94.47-4.04.79l-.2-.24c.9-4.08,1.88-8.16,2.86-12.55.28-1.26.28-1.77-.2-1.77-.55,0-1.49.79-2.2,1.53l-.31-.51c1.8-2.24,3.85-3.96,5.49-3.96,1.37,0,1.88,1.26,1.22,4.59l-.47,1.96c2.94-4.35,6.12-6.55,8.28-6.55,1.33,0,2.47.59,1.29,6.04l-.24,1.06c3.02-4.83,6.51-7.1,8.59-7.1Z"/><path class="cls-2" d="M172.99,111.89c1.02-.31,2.31-.43,3.45-.43,3.77,0,5.26,1.92,5.26,5.18,0,2.31-1.14,5.41-3.02,7.73-1.8,2.2-5.57,4.47-7.26,4.63-.51,0-.98-.08-1.77-.35l-1.18,6.43c-.39,1.96-.28,2.59,1.92,2.79l.82.08-.12.55-10.2.47.04-.55c2.79-.43,2.86-1.02,3.41-3.53,1.1-5.06,2.94-14.2,4.24-20.71-1.14.39-2.24.9-3.14,1.37l-.2-.63c1.18-.78,2.43-1.33,3.57-1.88l.39-1.65c.71-.71,2.82-2.24,4.28-2.75l.2.16-.71,3.1ZM170.08,126.49c.35.71,1.26,1.45,2.04,1.45,2.08,0,5.1-5.77,5.1-11.18,0-3.02-1.18-3.88-2.98-3.88-.71,0-1.06.04-1.53.16-.86,4.35-1.84,8.98-2.63,13.46Z"/><path class="cls-2" d="M199.54,117.19c0,4.12-2,8.4-5.65,10.51-1.33.79-2.79,1.29-4.51,1.29-4.04,0-5.34-2.79-5.34-5.77,0-5.02,2.79-9.06,6.32-10.79,1.26-.59,2.63-.98,4.04-.98,3.45,0,5.14,2.39,5.14,5.73ZM188.44,123.31c0,3.3,1.1,4.67,2.39,4.67,3.49,0,4.36-8.08,4.36-10.83,0-3.29-.98-4.63-2.24-4.63-3.41,0-4.51,7.92-4.51,10.79Z"/><path class="cls-2" d="M202.25,115.47c2.24-2.79,4.47-4,5.77-4,1.49,0,1.41,1.84.71,5.26l-.31,1.33c1.37-2.79,3.8-6.59,5.8-6.59,1.02,0,1.77.86,1.77,1.92s-1.14,2.63-1.77,2.98c-.31.2-.55.27-.74.04-.51-.55-1.53-1.29-2-1.29-.82,0-2.16,2.63-2.71,3.92-1.02,2.35-1.76,6.67-2.31,9.14-1.37.12-3.02.47-4,.79l-.2-.24c.98-4.12,1.96-8.71,2.51-11.42.43-2.24.47-2.86.08-2.86-.63,0-1.61.98-2.24,1.49l-.35-.47Z"/><path class="cls-2" d="M232.14,124.92c-2.23,2.9-4.51,4.08-5.8,4.08-1.14,0-1.61-.98-.98-4.43l.31-1.77c-1.21,1.96-2.39,3.14-3.65,4.28-1.41,1.25-2.59,1.92-3.88,1.92-1.61,0-2.55-1.88-2.55-4.47,0-3.61,1.69-7.49,4.16-9.77,1.61-1.49,4.63-3.3,7.69-3.3,1.69,0,3.77.51,4.51.67-.86,3.22-1.77,7.92-2.63,12.44-.2,1.02-.08,1.41.31,1.41.31,0,.98-.31,2.2-1.57l.31.51ZM224.65,123c1.02-1.45,1.29-2.51,1.65-3.81.47-1.73,1.06-4.67,1.21-5.81-.59-.31-1.33-.55-2.67-.55-3.26,0-4.82,6.94-4.82,10.87,0,1.77.51,2.35,1.1,2.35.9,0,1.92-.71,3.53-3.06Z"/><path class="cls-2" d="M234.53,115.47c2.24-2.79,4.47-4,5.77-4,1.49,0,1.41,1.84.71,5.26l-.31,1.33c1.37-2.79,3.81-6.59,5.81-6.59,1.02,0,1.77.86,1.77,1.92s-1.14,2.63-1.77,2.98c-.31.2-.55.27-.75.04-.51-.55-1.53-1.29-2-1.29-.82,0-2.16,2.63-2.71,3.92-1.02,2.35-1.77,6.67-2.31,9.14-1.37.12-3.02.47-4,.79l-.2-.24c.98-4.12,1.96-8.71,2.51-11.42.43-2.24.47-2.86.08-2.86-.63,0-1.61.98-2.24,1.49l-.35-.47Z"/><path class="cls-2" d="M249.67,115.62c1.33-2.12,3.65-4.16,5.14-4.16,1.57,0,2.08,1.96,2.39,5.22.28,2.47.47,6.75.55,9.42,1.33-2,4.63-7.22,4.59-9.69-.04-1.29-.82-2.39-.86-2.71-.16-.43.08-.82.39-1.22.39-.47,1.33-1.02,1.92-1.02.94,0,1.45.82,1.53,2.2,0,1.14-.39,2.9-1.57,4.83-3.69,5.96-8.04,12.32-13.73,19.46l-4.55,1.22-.2-.55c3.53-2.08,7.22-5.77,8.87-8.12.04-1.37-.35-8.4-.82-12.2-.35-2.71-.55-3.84-1.26-3.84-.35,0-1.1.47-2.04,1.61l-.35-.43Z"/></g></svg>