<?xml version="1.0" encoding="UTF-8"?><svg id="_圖層_2" xmlns="http://www.w3.org/2000/svg" viewBox="0 0 435 205.17"><defs><style>.cls-1{fill:none;}.cls-1,.cls-2{stroke-width:0px;}.cls-2{fill:#367c8e;}</style></defs><g id="_文字"><rect class="cls-1" x="0" width="435" height="205.17"/><path class="cls-2" d="M223.17,60.91v-.83c4.25-.8,4.47-1.24,4.53-7.09l.17-24.24c-4.54,10.2-13.17,29.69-14.1,32.16h-.76c-.89-2.36-7.83-19.39-12.85-31.35-.78,18.92-.83,24.33-.8,26.37.07,2.75,1.17,3.5,5.54,4.14v.83h-13.05v-.83c3.97-.55,4.75-1.54,5.07-4.05.27-2.06.47-5.2,1.74-27.24.08-1.73-.34-3.6-5.32-4.13v-.83h10.44l12.16,27.6,12.73-27.6h10.06v.83c-4.81.82-5.21,1.27-5.18,6.6l.19,21.73c.06,5.73.39,6.27,4.99,7.09v.83h-15.58Z"/><path class="cls-2" d="M265.96,59.56c-3.6.38-6.43,1.25-9.13,2.11.06-1.15.13-2.78.13-4.19-2.53,2.33-5.03,4.1-7.69,4.12-4.13.02-6.76-2.7-6.76-7.61v-12c0-2.64-.46-3.12-1.95-3.5l-1.03-.26v-.78c2.32-.11,6.27-.51,8.65-.97-.11,1.7-.17,4.02-.17,8.18v8.02c0,4.32,2.06,5.54,4.28,5.54,1.67,0,3.3-.48,4.68-1.9v-14.04c0-2.88-.57-3.33-2.28-3.73l-1.35-.3v-.8c3.13-.11,7.07-.51,9.15-.97v18.22c0,3.03.27,3.46,2.14,3.8l1.33.25v.82Z"/><path class="cls-2" d="M283.08,43.01c-1.1-3.51-3.01-5.64-5.97-5.64-1.97,0-3.39,1.32-3.39,3.58,0,2.57,1.81,3.7,4.29,5.05,4.03,2.15,6.78,3.93,6.78,7.79,0,5.18-4.78,7.81-9.03,7.81-2.71,0-4.97-.76-6.09-1.16-.17-1.06-.67-4.45-.92-6.4l.72-.17c1.14,3.57,3.53,6.55,7.11,6.55,2.25,0,3.59-1.51,3.59-3.65s-.95-3.61-4.34-5.56c-2.64-1.51-6.42-3.56-6.44-7.75-.02-4.21,3.38-7.23,8.56-7.27,2.3,0,4.21.55,5.24.61.09,1.64.5,5.04.68,6.02l-.78.19Z"/><path class="cls-2" d="M309.31,55.56c-3.38,4.63-7.46,6.03-9.35,6.03-6.99,0-11.09-5.65-11.09-11.87,0-3.97,1.48-7.33,3.83-9.82,2.45-2.58,5.36-3.71,8.04-3.71,5.22,0,8.54,3.98,8.58,8.14,0,.89-.06,1.3-.29,1.35-1.57.36-8.61.82-14.77,1-.02,7.76,4.33,10.95,8.31,10.95,1.99,0,4.11-.61,6.26-2.72l.49.64ZM299.14,37.69c-2.35,0-4.3,2.22-4.75,7.4,2.68.04,6.38.02,8.27-.17.66-.06,1.03-.19,1.03-.84,0-3.2-1.65-6.39-4.55-6.39ZM297.94,32.02l5.9-9.17c.64-.34,4.73-.51,5.24-.46l.11.32-10.51,9.78-.74-.48Z"/><path class="cls-2" d="M333.84,55.56c-3.38,4.63-7.46,6.03-9.35,6.03-6.99,0-11.09-5.65-11.09-11.87,0-3.97,1.48-7.33,3.83-9.82,2.45-2.58,5.36-3.71,8.04-3.71,5.22,0,8.54,3.98,8.58,8.14,0,.89-.06,1.3-.29,1.35-1.57.36-8.61.82-14.77,1-.02,7.76,4.33,10.95,8.31,10.95,1.99,0,4.11-.61,6.26-2.72l.49.64ZM323.67,37.69c-2.35,0-4.3,2.22-4.75,7.4,2.68.04,6.38.02,8.27-.17.66-.06,1.03-.19,1.03-.84,0-3.2-1.65-6.39-4.55-6.39Z"/><path class="cls-2" d="M373.53,59.57c-1.14.17-5.58.89-9.23,2.24.06-.81.11-2.48.11-3.58-1.22.78-2.83,1.78-4.18,2.43-1.52.7-2.3.93-3.04.93-4.46,0-10.13-4.08-10.13-12.03,0-7.38,6.34-13.37,14.34-13.37.75,0,2.12.06,3.01.29v-9.07c0-3.6-.29-4.04-4.02-4.76v-.74c3.31-.27,7.71-1.06,9.74-1.86-.11,1.46-.19,4.57-.19,7.09v27.04c0,3.33.4,3.87,2.29,4.29l1.3.29v.81ZM364.42,40.64c-1.09-2.01-3.47-2.89-5.43-2.89-2.42,0-5.7,1.88-5.67,9.8.04,7.28,3.77,10.89,7.21,10.89,1.33,0,2.7-.46,3.89-1.37v-16.43Z"/><path class="cls-2" d="M381.37,20.39c-.06.98-1.57,10.32-1.93,12.39h-1c-.64-4.42-1.59-11.06-1.83-12.19.53-.17,3.3-.34,4.52-.32l.25.11Z"/><path class="cls-2" d="M143.61,105.68c0,31.5-22.11,60.72-54.97,60.72-23.62,0-39.37-16.2-39.37-41.04,0-32.1,23.93-61.78,56.03-61.78,23.62,0,38.31,15.9,38.31,42.1ZM69.41,132.49c0,18.17,6.36,30.44,20.44,30.44,22.26,0,33.77-36.34,33.77-66.63,0-14.54-3.33-29.23-19.23-29.23-21.65,0-34.98,33.47-34.98,65.42Z"/><path class="cls-2" d="M151.94,113.71c8.63-10.75,17.26-15.45,22.26-15.45,5.75,0,5.45,7.12,2.73,20.29l-1.21,5.15c5.3-10.75,14.69-25.44,22.41-25.44,3.94,0,6.81,3.33,6.81,7.42s-4.39,10.15-6.81,11.51c-1.21.76-2.12,1.06-2.88.15-1.97-2.12-5.91-5-7.72-5-3.18,0-8.33,10.15-10.45,15.14-3.94,9.09-6.81,25.74-8.93,35.28-5.3.46-11.66,1.82-15.45,3.03l-.76-.91c3.79-15.9,7.57-33.62,9.69-44.07,1.67-8.63,1.82-11.05.3-11.05-2.42,0-6.21,3.79-8.63,5.75l-1.36-1.82Z"/><path class="cls-2" d="M249.31,106.59c0,2.57-3.33,6.97-5.6,8.03-.91.45-1.67.45-2.73-.76-3.33-3.94-7.57-8.93-12.72-8.93-3.79,0-6.51,3.03-6.51,6.36,0,4.24,3.33,7.12,10.3,12.42,11.51,9.09,13.33,12.42,13.33,18.32,0,12.72-19.69,23.93-28.17,23.93-7.12,0-14.99-4.69-14.99-11.21,0-2.42,3.63-7.72,6.51-7.72.76-.15,1.51.3,2.12,1.06,5.75,7.12,10.6,10.75,15.9,10.75,4.69,0,7.27-3.18,7.27-6.51s-2.27-6.36-9.09-12.11c-5.6-4.69-13.48-9.84-13.48-18.47,0-4.69,1.97-10.3,9.69-16.66,4.69-3.79,10.75-6.81,15.9-6.81,6.21,0,12.27,3.48,12.27,8.33Z"/><path class="cls-2" d="M320.48,150.2c-8.63,11.21-17.41,15.75-22.41,15.75-4.39,0-6.21-3.79-3.79-17.11l1.21-6.81c-4.69,7.57-9.24,12.11-14.08,16.51-5.45,4.85-9.99,7.42-14.99,7.42-6.21,0-9.84-7.27-9.84-17.26,0-13.93,6.51-28.92,16.05-37.71,6.21-5.75,17.87-12.72,29.68-12.72,6.51,0,14.54,1.97,17.41,2.57-3.33,12.42-6.81,30.59-10.15,48-.76,3.94-.3,5.45,1.21,5.45,1.21,0,3.79-1.21,8.48-6.06l1.21,1.97ZM291.56,142.78c3.94-5.6,5-9.69,6.36-14.69,1.82-6.66,4.09-18.02,4.69-22.41-2.27-1.21-5.15-2.12-10.3-2.12-12.57,0-18.63,26.8-18.63,41.95,0,6.81,1.97,9.09,4.24,9.09,3.48,0,7.42-2.73,13.63-11.81Z"/><path class="cls-2" d="M327.3,114.32c5.15-8.18,14.08-16.05,19.84-16.05,6.06,0,8.03,7.57,9.24,20.14,1.06,9.54,1.82,26.05,2.12,36.34,5.15-7.72,17.87-27.86,17.72-37.4-.15-5-3.18-9.24-3.33-10.45-.61-1.67.3-3.18,1.51-4.69,1.51-1.82,5.15-3.94,7.42-3.94,3.63,0,5.6,3.18,5.91,8.48,0,4.39-1.51,11.21-6.06,18.63-14.23,23.02-31.04,47.55-53,75.11l-17.57,4.69-.76-2.12c13.63-8.03,27.86-22.26,34.22-31.35.15-5.3-1.36-32.41-3.18-47.09-1.36-10.45-2.12-14.84-4.85-14.84-1.36,0-4.24,1.82-7.87,6.21l-1.36-1.67Z"/><path class="cls-2" d="M82.69,24.68h3.35c3.16,0,4.98,1.01,4.98,3.79s-1.78,3.98-4.9,3.98h-2.72v6.12h-.71v-13.89ZM85.86,31.82c2.97,0,4.38-.96,4.38-3.35s-1.45-3.16-4.46-3.16h-2.39v6.5h2.47Z"/><path class="cls-2" d="M92.24,36.09c0-2.24,2.05-3.29,6.58-3.81.06-1.63-.36-3.41-2.45-3.41-1.44,0-2.64.71-3.29,1.22l-.34-.55c.63-.46,2.03-1.3,3.67-1.3,2.37,0,3.1,1.76,3.1,3.81v6.52h-.57l-.1-1.34h-.06c-1.03.84-2.3,1.59-3.64,1.59-1.57,0-2.91-.82-2.91-2.74ZM98.82,36.49v-3.62c-4.38.48-5.87,1.49-5.87,3.2,0,1.55,1.03,2.12,2.26,2.12s2.3-.57,3.62-1.7Z"/><path class="cls-2" d="M103.24,28.49h.57l.11,1.89h.04c.67-1.22,1.65-2.14,2.85-2.14.34,0,.63.04.98.21l-.17.63c-.33-.13-.5-.17-.9-.17-.9,0-2.01.71-2.79,2.7v6.96h-.69v-10.08Z"/><path class="cls-2" d="M109.37,25.22c0-.48.33-.75.73-.75s.75.27.75.75c0,.44-.36.73-.75.73-.4,0-.73-.29-.73-.73ZM109.73,28.49h.69v10.08h-.69v-10.08Z"/><path class="cls-2" d="M113.12,37.44l.44-.55c.84.73,1.78,1.3,3.27,1.3,1.68,0,2.54-.98,2.54-2.12,0-1.32-1.34-1.91-2.53-2.33-1.53-.55-3.25-1.13-3.25-2.87,0-1.4,1.09-2.62,3.18-2.62.99,0,2.07.42,2.79,1.03l-.4.52c-.67-.5-1.4-.92-2.45-.92-1.66,0-2.41.96-2.41,1.95,0,1.21,1.22,1.66,2.43,2.12,1.61.61,3.35,1.11,3.35,3.08,0,1.49-1.17,2.79-3.29,2.79-1.51,0-2.77-.63-3.67-1.38Z"/><path class="cls-2" d="M127.17,24.68h7.42v.63h-6.72v5.8h5.66v.61h-5.66v6.85h-.71v-13.89Z"/><path class="cls-2" d="M136.57,28.49h.57l.11,1.89h.04c.67-1.22,1.65-2.14,2.85-2.14.34,0,.63.04.98.21l-.17.63c-.33-.13-.5-.17-.9-.17-.9,0-2.01.71-2.79,2.7v6.96h-.69v-10.08Z"/><path class="cls-2" d="M141.89,36.09c0-2.24,2.05-3.29,6.58-3.81.06-1.63-.36-3.41-2.45-3.41-1.44,0-2.64.71-3.29,1.22l-.34-.55c.63-.46,2.03-1.3,3.67-1.3,2.37,0,3.1,1.76,3.1,3.81v6.52h-.57l-.1-1.34h-.06c-1.03.84-2.3,1.59-3.64,1.59-1.57,0-2.91-.82-2.91-2.74ZM148.47,36.49v-3.62c-4.38.48-5.87,1.49-5.87,3.2,0,1.55,1.03,2.12,2.26,2.12s2.3-.57,3.62-1.7Z"/><path class="cls-2" d="M152.9,28.49h.57l.11,1.61h.04c1.03-1.05,2.09-1.86,3.48-1.86,2.07,0,3.04,1.24,3.04,3.85v6.49h-.69v-6.39c0-2.22-.71-3.31-2.43-3.31-1.24,0-2.16.67-3.44,1.99v7.71h-.69v-10.08Z"/><path class="cls-2" d="M163.12,33.56c0-3.39,2.1-5.32,4.53-5.32,1.38,0,2.28.63,2.95,1.26l-.44.5c-.67-.63-1.47-1.13-2.51-1.13-2.12,0-3.81,1.91-3.81,4.69s1.51,4.63,3.81,4.63c1.11,0,2.09-.54,2.79-1.21l.4.5c-.84.75-1.91,1.34-3.21,1.34-2.56,0-4.52-1.93-4.52-5.26Z"/><path class="cls-2" d="M172.19,33.56c0-3.29,2.1-5.32,4.34-5.32s3.81,1.67,3.81,4.65c0,.21,0,.44-.04.69h-7.39c0,2.66,1.55,4.61,3.92,4.61,1.15,0,2.01-.36,2.77-.92l.31.59c-.77.46-1.63.96-3.12.96-2.54,0-4.61-1.97-4.61-5.26ZM179.67,32.95c0-2.74-1.24-4.08-3.14-4.08s-3.41,1.53-3.62,4.08h6.75Z"/><path class="cls-2" d="M73.66,38.5h-24.78V1.6h36.9v14.23c.52-.08,1.07-.06,1.6.05V0h-40.1v40.1h26.53c-.14-.52-.19-1.07-.15-1.6Z"/></g></svg>