<?xml version="1.0" encoding="UTF-8"?><svg id="_圖層_2" xmlns="http://www.w3.org/2000/svg" viewBox="0 0 435 191.65"><defs><style>.cls-1{fill:none;}.cls-1,.cls-2{stroke-width:0px;}.cls-2{fill:#367c8e;}</style></defs><g id="_文字"><rect class="cls-1" width="435" height="191.65"/><path class="cls-2" d="M43.78,26.21h3.35c3.16,0,4.98,1.01,4.98,3.79s-1.78,3.98-4.9,3.98h-2.72v6.12h-.71v-13.89ZM46.95,33.35c2.97,0,4.38-.96,4.38-3.35s-1.45-3.16-4.46-3.16h-2.39v6.5h2.47Z"/><path class="cls-2" d="M53.33,37.61c0-2.24,2.05-3.29,6.58-3.81.06-1.63-.36-3.41-2.45-3.41-1.44,0-2.64.71-3.29,1.22l-.34-.55c.63-.46,2.03-1.3,3.67-1.3,2.37,0,3.1,1.76,3.1,3.81v6.52h-.57l-.1-1.34h-.06c-1.03.84-2.3,1.59-3.63,1.59-1.57,0-2.91-.82-2.91-2.74ZM59.91,38.02v-3.62c-4.38.48-5.88,1.49-5.88,3.2,0,1.55,1.03,2.12,2.26,2.12s2.3-.57,3.62-1.7Z"/><path class="cls-2" d="M64.33,30.02h.57l.11,1.89h.04c.67-1.22,1.65-2.14,2.85-2.14.34,0,.63.04.98.21l-.17.63c-.33-.13-.5-.17-.9-.17-.9,0-2.01.71-2.79,2.7v6.96h-.69v-10.08Z"/><path class="cls-2" d="M70.46,26.75c0-.48.33-.75.73-.75s.75.27.75.75c0,.44-.36.73-.75.73-.4,0-.73-.29-.73-.73ZM70.82,30.02h.69v10.08h-.69v-10.08Z"/><path class="cls-2" d="M74.21,38.97l.44-.55c.84.73,1.78,1.3,3.27,1.3,1.68,0,2.54-.98,2.54-2.12,0-1.32-1.34-1.91-2.53-2.33-1.53-.55-3.25-1.13-3.25-2.87,0-1.4,1.09-2.62,3.18-2.62.99,0,2.07.42,2.79,1.03l-.4.52c-.67-.5-1.4-.92-2.45-.92-1.67,0-2.41.96-2.41,1.95,0,1.21,1.22,1.66,2.43,2.12,1.61.61,3.35,1.11,3.35,3.08,0,1.49-1.17,2.79-3.29,2.79-1.51,0-2.77-.63-3.67-1.38Z"/><path class="cls-2" d="M88.26,26.21h7.42v.63h-6.72v5.8h5.66v.61h-5.66v6.85h-.71v-13.89Z"/><path class="cls-2" d="M97.66,30.02h.57l.11,1.89h.04c.67-1.22,1.65-2.14,2.85-2.14.34,0,.63.04.98.21l-.17.63c-.33-.13-.5-.17-.9-.17-.9,0-2.01.71-2.79,2.7v6.96h-.69v-10.08Z"/><path class="cls-2" d="M102.98,37.61c0-2.24,2.05-3.29,6.58-3.81.06-1.63-.36-3.41-2.45-3.41-1.44,0-2.64.71-3.29,1.22l-.34-.55c.63-.46,2.03-1.3,3.67-1.3,2.37,0,3.1,1.76,3.1,3.81v6.52h-.57l-.1-1.34h-.06c-1.03.84-2.3,1.59-3.63,1.59-1.57,0-2.91-.82-2.91-2.74ZM109.56,38.02v-3.62c-4.38.48-5.88,1.49-5.88,3.2,0,1.55,1.03,2.12,2.26,2.12s2.3-.57,3.62-1.7Z"/><path class="cls-2" d="M113.98,30.02h.57l.11,1.61h.04c1.03-1.05,2.08-1.86,3.48-1.86,2.07,0,3.04,1.24,3.04,3.85v6.49h-.69v-6.39c0-2.22-.71-3.31-2.43-3.31-1.24,0-2.16.67-3.44,1.99v7.71h-.69v-10.08Z"/><path class="cls-2" d="M124.21,35.09c0-3.39,2.1-5.32,4.53-5.32,1.38,0,2.28.63,2.95,1.26l-.44.5c-.67-.63-1.47-1.13-2.51-1.13-2.12,0-3.81,1.91-3.81,4.69s1.51,4.63,3.81,4.63c1.11,0,2.09-.54,2.79-1.21l.4.5c-.84.75-1.91,1.34-3.21,1.34-2.56,0-4.52-1.93-4.52-5.26Z"/><path class="cls-2" d="M133.28,35.09c0-3.29,2.11-5.32,4.34-5.32s3.81,1.67,3.81,4.65c0,.21,0,.44-.04.69h-7.39c0,2.66,1.55,4.61,3.92,4.61,1.15,0,2.01-.36,2.77-.92l.31.59c-.77.46-1.63.96-3.12.96-2.54,0-4.61-1.97-4.61-5.26ZM140.76,34.48c0-2.74-1.24-4.08-3.14-4.08s-3.41,1.53-3.62,4.08h6.75Z"/><path class="cls-2" d="M250.99,96.4c-1.26,4.12-5.26,14.65-6.87,18.08h-52.99l.46-1.83c8.24-.92,9.16-1.83,11.33-12.82l9.16-47.38c1.72-8.7.8-9.5-8.01-10.53l.34-1.83h32.96l-.34,1.83c-8.93.92-9.73,1.95-11.67,12.36l-8.7,45.89c-1.6,8.47-1.37,11.1,5.38,11.1h5.49c6.64,0,9.61-.46,12.82-3.09,3.09-2.52,6.52-7.32,9.04-12.36l1.6.57Z"/><path class="cls-2" d="M300.43,81.41c0,12.02-5.84,24.49-16.48,30.67-3.89,2.29-8.13,3.78-13.16,3.78-11.79,0-15.56-8.12-15.56-16.82,0-14.65,8.12-26.44,18.42-31.47,3.66-1.72,7.67-2.86,11.79-2.86,10.07,0,14.99,6.98,14.99,16.71ZM268.04,99.26c0,9.61,3.2,13.62,6.98,13.62,10.19,0,12.7-23.57,12.7-31.58,0-9.61-2.86-13.5-6.52-13.5-9.96,0-13.16,23.12-13.16,31.47Z"/><path class="cls-2" d="M357.76,103.73c-6.18,8.24-13.39,12.13-17.28,12.13-3.32,0-5.15-2.4-3.32-10.76.69-3.21,1.26-5.95,1.95-9.04-6.07,9.16-12.25,14.76-15.79,17.05-2.29,1.6-5.15,2.75-7.67,2.75-4.46,0-8.01-2.29-4.81-16.48,1.37-6.07,3.66-14.42,5.15-20.94.8-3.66.92-5.38-.46-5.38s-4.58,2.52-6.64,4.69l-.92-1.49c5.04-6.07,12.59-11.56,17.4-11.56,3.78,0,4.58,3.66,2.4,13.5-1.83,8.12-3.55,14.42-5.38,22.54-1.26,5.49.46,6.87,1.6,6.87,3.43,0,7.44-4.58,11.67-10.64,2.29-3.32,4.81-8.12,6.07-13.73,1.14-4.81,2.17-9.5,3.55-15.56,3.89-.92,7.9-1.95,11.79-2.98h.69c-2.63,12.25-5.72,24.61-8.35,38.22-.69,3.2-.46,4.69.57,4.69.92,0,3.43-1.37,6.87-5.26l.92,1.37Z"/><path class="cls-2" d="M387.16,103.95c-6.52,8.47-13.62,11.9-17.51,11.9-3.66,0-4.81-3.55-2.75-11.9,2.4-10.07,4-16.48,6.07-25.52.8-3.66.8-5.15-.57-5.15-1.6,0-4.35,2.4-6.41,4.58l-1.03-1.6c5.26-6.18,13.62-11.56,17.97-11.56,4.01,0,4.12,3.66,1.95,13.62-1.95,8.24-3.89,16.48-5.84,24.6-.8,3.2-.23,4.23.8,4.23.8,0,2.98-1.03,6.41-4.69l.92,1.49ZM389.8,46.96c0,3.89-2.52,7.55-6.41,7.55-3.2,0-5.26-2.17-5.26-5.84,0-3.32,2.29-7.44,6.75-7.44,3.32,0,4.92,2.75,4.92,5.72Z"/><path class="cls-2" d="M427.33,71c0,1.95-2.52,5.26-4.23,6.07-.69.34-1.26.34-2.06-.57-2.52-2.98-5.72-6.75-9.61-6.75-2.86,0-4.92,2.29-4.92,4.81,0,3.2,2.52,5.38,7.78,9.38,8.7,6.87,10.07,9.38,10.07,13.85,0,9.61-14.88,18.08-21.29,18.08-5.38,0-11.33-3.55-11.33-8.47,0-1.83,2.75-5.84,4.92-5.84.57-.11,1.14.23,1.6.8,4.35,5.38,8.01,8.12,12.02,8.12,3.55,0,5.49-2.4,5.49-4.92s-1.72-4.81-6.87-9.16c-4.23-3.55-10.19-7.44-10.19-13.96,0-3.55,1.49-7.78,7.32-12.59,3.55-2.86,8.13-5.15,12.02-5.15,4.69,0,9.27,2.63,9.27,6.29Z"/><path class="cls-2" d="M189.43,117.49c-6.75.8-9.5,1.37-16.82,13.5-8.13,13.39-22.43,36.85-36.51,60.65h-2.29c-2.63-20.94-7.21-49.32-8.93-60.31-1.83-11.79-2.75-13.05-9.5-13.85l.46-1.83h30.1l-.34,1.83-2.52.46c-4.23.8-5.95,1.83-5.04,8.12,1.03,6.75,4.12,29.18,6.41,45.66,8.24-12.7,18.43-31.36,24.83-43.03,4.92-9.04,2.75-9.84-3.32-10.87l-2.06-.34.34-1.83h25.52l-.34,1.83Z"/><path class="cls-2" d="M221.58,179.29c-6.18,8.24-13.39,12.13-17.28,12.13-3.32,0-5.15-2.4-3.32-10.76.69-3.21,1.26-5.95,1.95-9.04-6.07,9.16-12.25,14.76-15.79,17.05-2.29,1.6-5.15,2.75-7.67,2.75-4.46,0-8.01-2.29-4.81-16.48,1.37-6.07,3.66-14.42,5.15-20.94.8-3.66.92-5.38-.46-5.38s-4.58,2.52-6.64,4.69l-.92-1.49c5.04-6.07,12.59-11.56,17.4-11.56,3.78,0,4.58,3.66,2.4,13.5-1.83,8.12-3.55,14.42-5.38,22.54-1.26,5.49.46,6.87,1.6,6.87,3.43,0,7.44-4.58,11.67-10.64,2.29-3.32,4.81-8.12,6.07-13.73,1.14-4.81,2.17-9.5,3.55-15.56,3.89-.92,7.9-1.95,11.79-2.98h.69c-2.63,12.25-5.72,24.61-8.35,38.22-.69,3.2-.46,4.69.57,4.69.92,0,3.43-1.37,6.87-5.26l.92,1.37Z"/><path class="cls-2" d="M250.99,179.52c-6.52,8.47-13.62,11.9-17.51,11.9-3.66,0-4.81-3.55-2.75-11.9,2.4-10.07,4-16.48,6.07-25.52.8-3.66.8-5.15-.57-5.15-1.6,0-4.35,2.4-6.41,4.58l-1.03-1.6c5.26-6.18,13.62-11.56,17.97-11.56,4.01,0,4.12,3.66,1.95,13.62-1.95,8.24-3.89,16.48-5.84,24.6-.8,3.2-.23,4.23.8,4.23.8,0,2.98-1.03,6.41-4.69l.92,1.49ZM253.62,122.53c0,3.89-2.52,7.55-6.41,7.55-3.2,0-5.26-2.17-5.26-5.84,0-3.32,2.29-7.44,6.75-7.44,3.32,0,4.92,2.75,4.92,5.72Z"/><path class="cls-2" d="M289.32,144.85c-3.55.11-6.52.11-10.07.23-2.4,11.79-6.18,30.1-6.41,31.24-.8,4.92-.57,6.98,1.03,6.98,2.4,0,5.15-2.17,8.7-5.84l.92,1.26c-4.12,5.61-11.56,12.7-18.31,12.7-4.69,0-6.75-3.89-3.89-17.28l6.07-29.07h-8.12l-.23-.57,2.52-2.86h6.52l2.52-11.79c3.66-1.49,9.04-4.23,12.93-6.98l.92.46c-1.49,4.81-3.09,12.25-4.46,18.31h11.1l-1.72,3.2Z"/><path class="cls-2" d="M321.82,144.85c-3.55.11-6.52.11-10.07.23-2.4,11.79-6.18,30.1-6.41,31.24-.8,4.92-.57,6.98,1.03,6.98,2.4,0,5.15-2.17,8.7-5.84l.92,1.26c-4.12,5.61-11.56,12.7-18.31,12.7-4.69,0-6.75-3.89-3.89-17.28l6.07-29.07h-8.12l-.23-.57,2.52-2.86h6.52l2.52-11.79c3.66-1.49,9.04-4.23,12.93-6.98l.92.46c-1.49,4.81-3.09,12.25-4.46,18.31h11.1l-1.72,3.2Z"/><path class="cls-2" d="M367.6,156.98c0,12.02-5.84,24.49-16.48,30.67-3.89,2.29-8.13,3.78-13.16,3.78-11.79,0-15.56-8.12-15.56-16.82,0-14.65,8.12-26.44,18.42-31.47,3.66-1.72,7.67-2.86,11.79-2.86,10.07,0,14.99,6.98,14.99,16.71ZM335.21,174.83c0,9.61,3.2,13.62,6.98,13.62,10.19,0,12.7-23.57,12.7-31.58,0-9.61-2.86-13.5-6.52-13.5-9.96,0-13.16,23.12-13.16,31.47Z"/><path class="cls-2" d="M425.38,179.98c-6.41,8.01-12.82,11.44-17.28,11.44-3.66,0-5.04-2.52-3.09-10.87,1.83-8.35,3.78-16.48,5.72-24.83,1.26-5.72.8-7.78-1.37-7.78-4.23,0-10.99,8.01-14.3,13.96-2.75,4.69-3.09,7.55-4.01,10.87-1.26,5.38-2.63,11.79-3.43,16.25-3.66.34-8.58,1.37-11.79,2.29l-.57-.69c2.06-9.61,5.49-23.8,8.35-36.62.8-3.66.92-5.04-.46-5.04-1.6,0-4.46,2.29-6.52,4.46l-1.03-1.6c5.26-6.87,12.47-11.56,16.82-11.56s4.69,3.66,2.75,13.39l-1.37,5.95c6.75-10.87,17.05-19.34,24.38-19.34,4.01,0,7.1,1.72,4.01,16.02-1.72,7.44-3.32,14.65-4.92,22.2-.8,3.2-.46,4.23.57,4.23.8,0,3.2-.8,6.64-4.46l.92,1.72Z"/><path class="cls-2" d="M34.05,38.5H9.27V1.6h36.9v14.23c.52-.08,1.07-.06,1.6.05V0H7.67v40.1h26.53c-.14-.52-.19-1.07-.15-1.6Z"/><path class="cls-2" d="M28.69,66.21c-.25-1.01-.64-2.01-1.11-2.91-.83-1.7-1.87-2.18-4.87-2.18h-3.61c-1.28,0-1.53.19-1.53,1.47v10.57h5.19c3.25,0,3.5-.57,4.23-3.68h.63v8.7h-.66c-.78-3.07-.99-3.71-4.23-3.71h-5.16v8.31c0,4.21.23,4.54,4.07,5.16v.65h-12.38v-.65c3.31-.53,3.65-.91,3.65-5.16v-17.35c0-4.12-.31-4.37-3.65-4.96v-.65h13.6c4.26,0,5.67-.04,6.15-.09.01.92.15,4.28.35,6.37l-.68.09Z"/><path class="cls-2" d="M40.74,69.43c5.58,0,9.31,4.45,9.31,9.54,0,6.74-4.82,10.16-9.24,10.16-6.59,0-9.7-5.02-9.7-9.62,0-6.46,5.15-10.07,9.63-10.07ZM40.16,70.41c-2.55,0-4.1,2.77-4.1,7.74,0,5.87,2.02,10.01,5.04,10.01,2.1,0,4.04-1.5,4.04-8.2,0-5.67-1.88-9.55-4.98-9.55Z"/><path class="cls-2" d="M64.05,88.59v-.65c2.34-.33,2.46-.69,2.46-4.32v-7.04c0-3.01-1.21-4.53-3.32-4.53-1.38,0-2.71.56-3.86,1.55v10.62c0,3.14.25,3.25,2.49,3.72v.65h-9.46v-.65c2.47-.48,2.69-.77,2.69-3.99v-9.08c0-2.4-.25-2.66-2.11-3.27v-.53c2.23-.29,4.69-1,6.48-1.77-.04.97-.1,2.11-.09,3.35.98-.69,1.82-1.33,2.75-1.94,1.34-.87,2.14-1.3,3.35-1.3,3.59,0,5.37,2.68,5.37,6.69v8.13c0,3.1.21,3.3,2.26,3.7v.65h-9.01Z"/><path class="cls-2" d="M96.28,87.56c-.89.13-4.32.69-7.15,1.74.04-.63.09-1.92.09-2.78-.95.61-2.19,1.38-3.24,1.88-1.18.55-1.79.72-2.36.72-3.46,0-7.85-3.16-7.85-9.33,0-5.72,4.92-10.37,11.12-10.37.58,0,1.65.04,2.33.23v-7.04c0-2.79-.22-3.13-3.12-3.69v-.57c2.56-.21,5.97-.82,7.55-1.44-.09,1.13-.15,3.54-.15,5.5v20.97c0,2.59.31,3,1.77,3.33l1.01.22v.63ZM89.21,72.88c-.84-1.56-2.69-2.24-4.21-2.24-1.87,0-4.42,1.46-4.39,7.6.03,5.64,2.93,8.45,5.59,8.45,1.04,0,2.09-.36,3.01-1.06v-12.74Z"/><path class="cls-2" d="M111.52,89.12c-.94,0-1.7-.29-2.31-.88-.47-.49-.83-1.1-1-1.96-1.48,1.12-3.75,2.85-4.62,2.85-3.08,0-5.12-2.61-5.12-5.12,0-2.05,1-3.16,3.03-3.86,2.39-.87,5.59-1.73,6.68-2.52v-2.16c0-2.9-1.63-4.46-3.3-4.46-.8,0-1.4.32-1.86.91-.37.47-.71,1.41-1.08,2.87-.21.79-.58,1.02-1.04,1.02-1.14,0-2.04-.98-2.04-1.86,0-.44.37-.91,1.21-1.48,1.84-1.23,4.74-2.68,6.46-3.02,1.64,0,2.76.51,3.69,1.18,1.69,1.38,2.13,3.05,2.13,5.63v7.72c0,1.92.68,2.57,1.49,2.57.4,0,.8-.08,1.14-.27l.24.66-3.68,2.21ZM108.17,78.49c-.69.4-1.96.85-2.98,1.37-1.58.81-2.44,1.62-2.44,3.18,0,2.34,1.45,3.4,2.83,3.4.77,0,1.72-.21,2.53-.99,0-2.41.06-4.5.06-6.97Z"/><path class="cls-2" d="M124.92,88.65c-.6.31-1.26.47-1.57.47-2.87,0-4.5-1.6-4.5-5.16v-12.7h-2.72l-.09-.23.67-1.07h2.13v-3.83c1.24-.75,2.85-2,3.98-3.01l.42.04c-.04,1.14-.16,3.95-.13,6.79h4.22c.15.25.03,1-.21,1.31h-4.01v11.65c0,3.4,1.25,4.08,2.46,4.08.66,0,1.46-.21,1.98-.46l.21.63-2.84,1.49Z"/><path class="cls-2" d="M129.21,88.59v-.65c2.48-.41,2.6-.63,2.6-3.96v-8.92c0-2.72-.15-2.91-2.15-3.47v-.56c2.32-.33,4.55-.86,6.52-1.64-.04.91-.09,3.47-.09,5.28v9.29c0,3.27.24,3.51,2.69,3.98v.65h-9.58ZM133.65,64.94c-1.27,0-2.38-1.07-2.38-2.46,0-1.47,1.1-2.48,2.42-2.48,1.42,0,2.46,1.01,2.46,2.48s-1.04,2.46-2.51,2.46Z"/><path class="cls-2" d="M150.62,69.43c5.58,0,9.31,4.45,9.31,9.54,0,6.74-4.82,10.16-9.24,10.16-6.59,0-9.7-5.02-9.7-9.62,0-6.46,5.15-10.07,9.63-10.07ZM150.03,70.41c-2.55,0-4.1,2.77-4.1,7.74,0,5.87,2.02,10.01,5.04,10.01,2.1,0,4.04-1.5,4.04-8.2,0-5.67-1.88-9.55-4.98-9.55Z"/><path class="cls-2" d="M173.93,88.59v-.65c2.34-.33,2.46-.69,2.46-4.32v-7.04c0-3.01-1.21-4.53-3.32-4.53-1.38,0-2.71.56-3.86,1.55v10.62c0,3.14.25,3.25,2.49,3.72v.65h-9.46v-.65c2.47-.48,2.69-.77,2.69-3.99v-9.08c0-2.4-.25-2.66-2.11-3.27v-.53c2.23-.29,4.69-1,6.48-1.77-.04.97-.1,2.11-.09,3.35.98-.69,1.82-1.33,2.75-1.94,1.34-.87,2.14-1.3,3.35-1.3,3.59,0,5.37,2.68,5.37,6.69v8.13c0,3.1.21,3.3,2.26,3.7v.65h-9.01Z"/></g></svg>