<?xml version="1.0" encoding="UTF-8"?><svg id="_圖層_2" xmlns="http://www.w3.org/2000/svg" viewBox="0 0 435 223.3"><defs><style>.cls-1{fill:none;}.cls-1,.cls-2{stroke-width:0px;}.cls-2{fill:#367c8e;}</style></defs><g id="_文字"><rect class="cls-1" y="0" width="435" height="223.3"/><path class="cls-2" d="M75.79,60.69c-.63-15.54-6.82-20.08-18.69-20.08-19.83,0-34.23,23.62-34.23,47.24,0,19.7,7.33,32.97,20.72,32.97,5.68,0,9.22-1.39,10.74-9.09l2.65-13.52c1.89-9.73,1.01-10.23-10.61-11.75l.51-1.89h35.49l-.38,1.89c-6.95,1.01-7.96,1.89-9.85,11.75l-2.27,11.49c-.63,3.16-.76,6.95-.5,9.35-7.07,2.02-17.3,4.55-26.78,4.55-22.86,0-37.01-13.39-37.01-35.49,0-30.06,22.61-50.27,52.42-50.27,9.73,0,19.2,2.15,22.86,3.16-.88,4.29-2.15,11.12-3.16,19.58l-1.9.13Z"/><path class="cls-2" d="M142.6,109.83c-6.82,9.09-14.78,13.39-19.07,13.39-3.66,0-5.68-2.65-3.66-11.87.76-3.54,1.39-6.57,2.15-9.98-6.69,10.1-13.52,16.29-17.43,18.82-2.53,1.77-5.68,3.03-8.46,3.03-4.93,0-8.84-2.53-5.3-18.19,1.52-6.7,4.04-15.92,5.68-23.12.88-4.04,1.01-5.94-.5-5.94s-5.05,2.78-7.33,5.18l-1.01-1.64c5.56-6.69,13.89-12.76,19.2-12.76,4.17,0,5.05,4.04,2.65,14.91-2.02,8.97-3.92,15.92-5.94,24.88-1.39,6.06.5,7.58,1.77,7.58,3.79,0,8.21-5.05,12.88-11.75,2.53-3.66,5.3-8.97,6.69-15.16,1.26-5.3,2.4-10.48,3.92-17.18,4.29-1.01,8.72-2.15,13.01-3.28h.76c-2.91,13.52-6.32,27.16-9.22,42.19-.76,3.54-.51,5.18.63,5.18,1.01,0,3.79-1.52,7.58-5.81l1.01,1.52Z"/><path class="cls-2" d="M166.09,108.56c-.5.63-1.64,1.89-1.64,3.28,0,2.15,3.28,3.79,10.86,7.71,11.75,6.06,16.55,10.74,16.55,16.17,0,11.87-18.82,20.59-31.96,20.59s-22.74-6.06-22.74-13.64c0-6.44,9.09-11.49,20.97-17.43-2.91-1.77-4.93-4.29-4.8-6.44.13-2.65,4.29-6.44,10.23-10.23h2.53ZM180.49,143.05c0-3.28-2.4-5.81-5.68-8.34-3.92-2.91-9.73-5.43-14.78-8.08-6.82,4.04-10.48,8.46-10.48,13.64,0,7.83,9.47,11.75,16.93,11.75,9.47,0,14.02-4.04,14.02-8.97ZM151.82,94.67c0-9.35,5.05-18.44,13.39-23.75,4.17-2.53,9.35-4.17,14.27-4.17,4.17,0,7.83,1.14,10.99,3.28,7.33.25,11.24-1.39,13.14-2.78l.88,1.26c-4.42,6.19-9.35,6.69-11.5,6.95.51,1.52.76,3.54.76,5.81,0,10.1-5.3,16.93-9.73,20.59-5.43,4.55-13.52,7.2-18.32,7.2-8.84,0-13.89-5.81-13.89-14.4ZM181.25,78.5c0-5.94-1.39-8.84-5.05-8.84-7.07,0-11.5,15.41-11.5,27.54,0,5.31,1.39,8.84,5.31,8.84,5.81,0,11.24-12.38,11.24-27.54Z"/><path class="cls-2" d="M224.44,108.56c-.5.63-1.64,1.89-1.64,3.28,0,2.15,3.28,3.79,10.86,7.71,11.75,6.06,16.55,10.74,16.55,16.17,0,11.87-18.82,20.59-31.96,20.59s-22.74-6.06-22.74-13.64c0-6.44,9.09-11.49,20.97-17.43-2.91-1.77-4.93-4.29-4.8-6.44.13-2.65,4.29-6.44,10.23-10.23h2.53ZM238.84,143.05c0-3.28-2.4-5.81-5.68-8.34-3.92-2.91-9.73-5.43-14.78-8.08-6.82,4.04-10.48,8.46-10.48,13.64,0,7.83,9.47,11.75,16.93,11.75,9.47,0,14.02-4.04,14.02-8.97ZM210.17,94.67c0-9.35,5.05-18.44,13.39-23.75,4.17-2.53,9.35-4.17,14.27-4.17,4.17,0,7.83,1.14,10.99,3.28,7.33.25,11.24-1.39,13.14-2.78l.88,1.26c-4.42,6.19-9.35,6.69-11.5,6.95.51,1.52.76,3.54.76,5.81,0,10.1-5.3,16.93-9.73,20.59-5.43,4.55-13.52,7.2-18.32,7.2-8.84,0-13.89-5.81-13.89-14.4ZM239.6,78.5c0-5.94-1.39-8.84-5.05-8.84-7.07,0-11.5,15.41-11.5,27.54,0,5.31,1.39,8.84,5.31,8.84,5.81,0,11.24-12.38,11.24-27.54Z"/><path class="cls-2" d="M274.21,123.22c-6.57,0-14.02-3.66-14.02-17.68,0-12,5.05-24,13.51-31.2,5.18-4.42,12.63-7.58,18.44-7.58,7.2,0,9.98,4.55,9.98,9.47,0,10.99-17.3,16.55-28.04,19.2-.25,2.27-.25,3.79-.25,4.55,0,8.08,2.27,14.9,9.35,14.9,4.67,0,9.85-2.27,15.54-8.21l1.01,1.64c-9.6,11.75-19.2,14.9-25.51,14.9ZM274.46,92.52c12.5-2.27,15.92-9.47,15.92-15.54,0-3.66-1.77-6.19-4.67-6.19-4.04,0-9.22,4.42-11.24,21.73Z"/><path class="cls-2" d="M363.5,110.59c-7.07,8.84-14.15,12.63-19.07,12.63-4.04,0-5.56-2.78-3.41-12,2.02-9.22,4.17-18.19,6.32-27.41,1.39-6.32.88-8.59-1.52-8.59-4.67,0-12.12,8.84-15.79,15.41-3.03,5.18-3.41,8.34-4.42,12-1.39,5.94-2.91,13.01-3.79,17.94-4.04.38-9.47,1.52-13.01,2.53l-.63-.76c2.27-10.61,6.06-26.27,9.22-40.42.88-4.04,1.01-5.56-.5-5.56-1.77,0-4.93,2.53-7.2,4.93l-1.14-1.77c5.81-7.58,13.77-12.76,18.57-12.76s5.18,4.04,3.03,14.78l-1.52,6.57c7.45-12,18.82-21.35,26.9-21.35,4.42,0,7.83,1.9,4.42,17.68-1.89,8.21-3.66,16.17-5.43,24.5-.88,3.54-.5,4.67.63,4.67.88,0,3.54-.88,7.33-4.93l1.01,1.89Z"/><path class="cls-2" d="M10.74,136.4c5.18-.63,13.14-2.15,17.05-3.54,2.27-.76,3.66-1.14,4.29-1.14,1.01,0,.88,1.64.25,4.67-3.41,17.05-7.07,34.36-10.61,51.41,7.96-12.63,19.33-20.97,27.03-20.97,4.55,0,8.34,1.9,4.93,17.68-1.89,8.21-3.54,16.17-5.56,24.5-.88,3.54-.38,4.55.76,4.55,1.01,0,3.41-1.01,7.33-5.05l1.01,1.52c-7.07,9.35-15.66,13.26-19.45,13.26-4.17,0-5.31-2.65-3.16-11.87,2.02-9.22,4.29-18.32,6.44-27.54,1.39-6.32.63-8.84-1.89-8.84-3.66,0-9.09,3.79-15.28,14.78-2.27,4.17-3.66,9.09-4.55,12.76-1.52,5.94-3.16,13.14-3.54,18.06-4.67.38-9.22,1.52-13.52,2.65l-.5-1.01c5.05-22.86,10.36-49.39,15.16-75.66,1.26-6.82.63-7.71-4.67-8.46q-.88-.13-1.9-.25l.38-1.52Z"/><path class="cls-2" d="M79.19,223.3c-6.57,0-14.02-3.66-14.02-17.68,0-12,5.05-24,13.51-31.2,5.18-4.42,12.63-7.58,18.44-7.58,7.2,0,9.98,4.55,9.98,9.47,0,10.99-17.3,16.55-28.04,19.2-.25,2.27-.25,3.79-.25,4.55,0,8.08,2.27,14.9,9.35,14.9,4.67,0,9.85-2.27,15.54-8.21l1.01,1.64c-9.6,11.75-19.2,14.9-25.51,14.9ZM79.45,192.61c12.5-2.27,15.92-9.47,15.92-15.54,0-3.66-1.77-6.19-4.67-6.19-4.04,0-9.22,4.42-11.24,21.73Z"/><path class="cls-2" d="M138.68,210.17c-7.2,9.35-15.03,13.14-19.33,13.14-4.04,0-5.3-3.92-3.03-13.14,2.65-11.12,4.42-18.19,6.69-28.17.88-4.04.88-5.68-.63-5.68-1.77,0-4.8,2.65-7.07,5.05l-1.14-1.77c5.81-6.82,15.03-12.76,19.83-12.76,4.42,0,4.55,4.04,2.15,15.03-2.15,9.09-4.29,18.19-6.44,27.16-.88,3.54-.25,4.67.88,4.67.88,0,3.28-1.14,7.07-5.18l1.01,1.64ZM141.59,147.26c0,4.29-2.78,8.34-7.07,8.34-3.54,0-5.81-2.4-5.81-6.44,0-3.66,2.53-8.21,7.45-8.21,3.66,0,5.43,3.03,5.43,6.32Z"/><path class="cls-2" d="M224.82,166.84c4.17,0,7.83,1.9,4.42,17.68-1.89,8.21-3.66,16.17-5.43,24.5-.88,3.54-.5,4.93.63,4.93.88,0,3.66-1.14,7.45-5.18l1.01,1.64c-7.2,9.35-14.78,12.88-19.07,12.88-4.04,0-5.68-2.65-3.54-11.87,2.02-9.22,4.17-18.32,6.32-27.54,1.39-6.32.88-8.59-1.64-8.59-4.29,0-11.87,8.84-15.54,15.41-3.66,6.32-3.79,9.22-4.8,12.88-1.39,5.94-2.91,12.13-3.79,17.05-4.93.38-9.6,1.52-13.14,2.53l-.76-.76c2.78-11.75,5.81-24.76,7.96-34.48,2.15-9.6,2.27-12.63-.88-12.63-4.29,0-11.62,8.21-15.28,14.78-3.66,6.32-4.04,9.85-5.05,13.51-1.39,5.94-2.65,12.13-3.54,17.05-4.04.38-9.47,1.52-13.01,2.53l-.63-.76c2.91-13.14,6.06-26.27,9.22-40.42.88-4.04.88-5.68-.63-5.68-1.77,0-4.8,2.53-7.07,4.93l-1.01-1.64c5.81-7.2,12.38-12.76,17.68-12.76,4.42,0,6.06,4.04,3.92,14.78l-1.52,6.32c9.47-14.02,19.71-21.09,26.65-21.09,4.29,0,7.96,1.9,4.17,19.45l-.76,3.41c9.73-15.54,20.97-22.86,27.66-22.86Z"/><path class="cls-2" d="M280.06,188.75v-.83c3.06-.51,3.15-.88,3.15-5.01v-9.47c0-4.22-1.39-6.01-4.2-6.01-1.44,0-3.01.49-4.82,2.05.11.74.21,1.5.21,2.62v11.38c0,3.57.41,3.95,2.98,4.44v.83h-11.5v-.83c2.94-.5,3.08-.86,3.08-4.44v-10.36c0-4.15-1.44-5.71-4.22-5.71-1.65,0-3.07.75-4.6,2.02v14c0,3.58.15,3.97,2.98,4.5v.83h-11.87v-.83c3.22-.53,3.43-.86,3.43-4.82v-11.65c0-3.47-.3-3.77-2.72-4.57v-.68c2.81-.35,5.8-1.29,8.29-2.32-.08,1.28-.11,3.06-.11,4.25,1.08-.7,2.02-1.49,3.23-2.31,1.88-1.21,3.17-1.78,4.71-1.78,2.7,0,4.75,1.49,5.8,4.36,1.34-1.01,2.68-2.04,4.05-2.92,1.37-.89,2.53-1.44,4.12-1.44,4.29,0,6.61,3.31,6.61,8.75v10.53c0,3.86.21,4.07,2.94,4.6v.83h-11.52Z"/><path class="cls-2" d="M320.02,187.4c-3.6.38-6.43,1.25-9.13,2.11.06-1.15.13-2.78.13-4.19-2.53,2.33-5.03,4.1-7.69,4.12-4.13.02-6.76-2.7-6.76-7.61v-12c0-2.64-.46-3.12-1.95-3.5l-1.03-.26v-.78c2.32-.11,6.27-.51,8.65-.97-.11,1.7-.17,4.02-.17,8.18v8.02c0,4.32,2.06,5.54,4.28,5.54,1.67,0,3.3-.48,4.67-1.9v-14.04c0-2.88-.57-3.33-2.28-3.73l-1.35-.3v-.8c3.13-.11,7.07-.51,9.15-.97v18.22c0,3.03.27,3.46,2.14,3.8l1.33.25v.82Z"/><path class="cls-2" d="M336.56,170.86c-1.1-3.51-3.01-5.64-5.97-5.64-1.97,0-3.39,1.32-3.39,3.58,0,2.57,1.81,3.7,4.29,5.05,4.03,2.15,6.78,3.93,6.78,7.79,0,5.18-4.78,7.81-9.03,7.81-2.71,0-4.97-.76-6.09-1.16-.17-1.06-.67-4.45-.92-6.4l.72-.17c1.13,3.57,3.53,6.55,7.11,6.55,2.25,0,3.59-1.51,3.59-3.65s-.95-3.61-4.34-5.56c-2.64-1.51-6.42-3.56-6.44-7.75-.02-4.21,3.38-7.23,8.56-7.27,2.3,0,4.21.55,5.24.61.09,1.64.5,5.04.68,6.02l-.78.19Z"/><path class="cls-2" d="M362.22,183.4c-3.38,4.63-7.46,6.03-9.35,6.03-6.99,0-11.09-5.65-11.09-11.87,0-3.97,1.47-7.33,3.83-9.82,2.45-2.58,5.36-3.71,8.04-3.71,5.22,0,8.54,3.98,8.58,8.14,0,.89-.06,1.3-.29,1.35-1.57.36-8.61.82-14.77,1-.02,7.76,4.33,10.95,8.31,10.95,1.99,0,4.11-.61,6.26-2.72l.49.64ZM352.05,165.54c-2.35,0-4.3,2.22-4.75,7.4,2.68.04,6.38.02,8.27-.17.66-.06,1.03-.19,1.03-.84,0-3.2-1.65-6.39-4.55-6.39Z"/><path class="cls-2" d="M391.21,187.4c-3.6.38-6.43,1.25-9.13,2.11.06-1.15.13-2.78.13-4.19-2.53,2.33-5.03,4.1-7.69,4.12-4.13.02-6.76-2.7-6.76-7.61v-12c0-2.64-.46-3.12-1.95-3.5l-1.03-.26v-.78c2.32-.11,6.27-.51,8.65-.97-.11,1.7-.17,4.02-.17,8.18v8.02c0,4.32,2.06,5.54,4.28,5.54,1.67,0,3.3-.48,4.67-1.9v-14.04c0-2.88-.57-3.33-2.28-3.73l-1.35-.3v-.8c3.13-.11,7.07-.51,9.15-.97v18.22c0,3.03.27,3.46,2.14,3.8l1.33.25v.82Z"/><path class="cls-2" d="M421.71,188.75v-.83c3.06-.51,3.15-.88,3.15-5.01v-9.47c0-4.22-1.39-6.01-4.2-6.01-1.44,0-3.01.49-4.82,2.05.11.74.21,1.5.21,2.62v11.38c0,3.57.41,3.95,2.98,4.44v.83h-11.5v-.83c2.94-.5,3.08-.86,3.08-4.44v-10.36c0-4.15-1.44-5.71-4.22-5.71-1.65,0-3.07.75-4.6,2.02v14c0,3.58.15,3.97,2.98,4.5v.83h-11.87v-.83c3.22-.53,3.43-.86,3.43-4.82v-11.65c0-3.47-.3-3.77-2.72-4.57v-.68c2.81-.35,5.8-1.29,8.29-2.32-.08,1.28-.11,3.06-.11,4.25,1.08-.7,2.02-1.49,3.23-2.31,1.88-1.21,3.17-1.78,4.71-1.78,2.7,0,4.75,1.49,5.8,4.36,1.34-1.01,2.68-2.04,4.05-2.92,1.37-.89,2.53-1.44,4.12-1.44,4.29,0,6.61,3.31,6.61,8.75v10.53c0,3.86.21,4.07,2.94,4.6v.83h-11.52Z"/><path class="cls-2" d="M221.75,39.91l.48-.5c1.01,1.19,2.49,1.93,4.15,1.93,2.22,0,3.64-1.21,3.64-2.95,0-1.86-1.17-2.43-2.56-3.06l-2.12-.96c-1.21-.54-2.83-1.36-2.83-3.41s1.68-3.35,3.94-3.35c1.68,0,2.98.77,3.79,1.65l-.44.48c-.8-.86-1.93-1.45-3.35-1.45-1.93,0-3.21,1.03-3.21,2.6,0,1.74,1.45,2.37,2.43,2.81l2.12.96c1.57.71,2.95,1.53,2.95,3.67s-1.72,3.67-4.34,3.67c-2.05,0-3.58-.88-4.63-2.11Z"/><path class="cls-2" d="M233.64,31.68h.57l.11,1.3h.04c1-.78,2.2-1.55,3.46-1.55,2.74,0,4.06,2.03,4.06,5.15,0,3.42-2.07,5.43-4.48,5.43-.96,0-2.01-.46-3.08-1.26v5.66h-.69v-14.73ZM234.33,40.02c1.19,1,2.33,1.36,3.14,1.36,2.14,0,3.69-1.99,3.69-4.8,0-2.56-.92-4.52-3.39-4.52-1.03,0-2.16.63-3.44,1.74v6.22Z"/><path class="cls-2" d="M243.93,39.28c0-2.24,2.05-3.29,6.58-3.81.06-1.63-.36-3.41-2.45-3.41-1.44,0-2.64.71-3.29,1.22l-.34-.55c.63-.46,2.03-1.3,3.67-1.3,2.37,0,3.1,1.76,3.1,3.81v6.52h-.57l-.1-1.34h-.06c-1.03.84-2.3,1.59-3.64,1.59-1.57,0-2.91-.82-2.91-2.74ZM250.52,39.68v-3.62c-4.38.48-5.87,1.49-5.87,3.2,0,1.55,1.03,2.12,2.26,2.12s2.3-.57,3.62-1.7Z"/><path class="cls-2" d="M254.58,28.41c0-.48.33-.75.73-.75s.75.27.75.75c0,.44-.36.73-.75.73-.4,0-.73-.29-.73-.73ZM254.94,31.68h.69v10.08h-.69v-10.08Z"/><path class="cls-2" d="M259.63,31.68h.57l.11,1.61h.04c1.03-1.05,2.09-1.86,3.48-1.86,2.07,0,3.04,1.24,3.04,3.85v6.49h-.69v-6.39c0-2.22-.71-3.31-2.43-3.31-1.24,0-2.16.67-3.44,1.99v7.71h-.69v-10.08Z"/><path class="cls-2" d="M164.4,27.62h3.64c2.77,0,4.54,1.07,4.54,3.37,0,1.47-.77,2.6-2.2,3.02v.1c1.84.29,3.06,1.44,3.06,3.37,0,2.64-1.99,4.04-5.15,4.04h-3.88v-13.89ZM167.61,33.79c3.02,0,4.21-1.03,4.21-2.75,0-2.05-1.4-2.79-4.08-2.79h-2.64v5.55h2.51ZM168.04,40.88c2.89,0,4.69-1.03,4.69-3.37,0-2.1-1.72-3.1-4.69-3.1h-2.93v6.47h2.93Z"/><path class="cls-2" d="M176.04,28.16c0-.48.33-.75.73-.75s.75.27.75.75c0,.44-.36.73-.75.73-.4,0-.73-.29-.73-.73ZM176.4,31.43h.69v10.08h-.69v-10.08Z"/><path class="cls-2" d="M181.09,40.39v-14.06h.69v14.18c0,.42.15.63.42.63.08,0,.15,0,.36-.04l.13.59c-.17.04-.29.08-.57.08-.65,0-1.03-.4-1.03-1.38Z"/><path class="cls-2" d="M186.68,40.5h-.06l-.1,1.01h-.57v-15.19h.69v4.48l-.06,2.03c1.05-.88,2.3-1.65,3.56-1.65,2.74,0,4.06,2.03,4.06,5.15,0,3.42-2.07,5.43-4.48,5.43-.96,0-2.1-.5-3.04-1.26ZM193.47,36.33c0-2.56-.92-4.52-3.39-4.52-1.03,0-2.2.63-3.44,1.74v6.22c1.15,1,2.33,1.36,3.14,1.36,2.14,0,3.69-1.99,3.69-4.8Z"/><path class="cls-2" d="M196.21,39.03c0-2.24,2.05-3.29,6.58-3.81.06-1.63-.36-3.41-2.45-3.41-1.44,0-2.64.71-3.29,1.22l-.34-.55c.63-.46,2.03-1.3,3.67-1.3,2.37,0,3.1,1.76,3.1,3.81v6.52h-.57l-.1-1.34h-.06c-1.03.84-2.3,1.59-3.64,1.59-1.57,0-2.91-.82-2.91-2.74ZM202.79,39.43v-3.62c-4.38.48-5.87,1.49-5.87,3.2,0,1.55,1.03,2.12,2.26,2.12s2.3-.57,3.62-1.7Z"/><path class="cls-2" d="M206.34,36.5c0-3.39,2.07-5.32,4.48-5.32s4.48,1.93,4.48,5.32-2.07,5.26-4.48,5.26-4.48-1.93-4.48-5.26ZM214.58,36.5c0-2.77-1.63-4.69-3.77-4.69s-3.75,1.91-3.75,4.69,1.61,4.63,3.75,4.63,3.77-1.88,3.77-4.63Z"/><path class="cls-2" d="M170.2,21.01V1.27s-29.38,0-29.38,0v29.38s11.33,0,11.33,0c-.06.41-.05.85.04,1.27h-12.64V0h31.93v21.13c-.41-.11-.85-.15-1.27-.12Z"/></g></svg>