<?xml version="1.0" encoding="UTF-8"?><svg id="_圖層_2" xmlns="http://www.w3.org/2000/svg" viewBox="0 0 343.33 103.37"><defs><style>.cls-1{fill:#367c8e;stroke-width:0px;}</style></defs><g id="_文字"><path class="cls-1" d="M71.53,42.97c-6.64.94-7.48,1.87-8.79,6.83-.65,2.06-1.59,6.08-3.65,16.55l-7.2,36.84h-2.52l-28.43-50.21-4.58,23.84c-2.06,10.75-2.53,13.46-2.99,17.02-.65,4.68-.28,5.98,8.51,6.92l-.28,1.5H0l.37-1.5c6.45-.94,7.67-2.06,8.98-6.54,1.03-3.65,1.78-6.64,3.93-17.11l5.05-25.06c.28-1.31.47-3.09-.75-5.14-1.59-2.71-3.37-3.65-7.57-3.93l.28-1.5h16.55l25.53,43.76,3.74-18.61c2.15-10.57,2.43-13,2.99-16.64.75-5.05-.38-6.17-8.42-7.01l.28-1.5h20.85l-.28,1.5Z"/><path class="cls-1" d="M104.44,93.65c-5.33,6.92-10.75,9.72-13.84,9.72-2.71,0-3.83-2.34-2.34-10.57l.75-4.21c-2.9,4.68-5.7,7.48-8.7,10.19-3.37,2.99-6.17,4.58-9.26,4.58-3.83,0-6.08-4.49-6.08-10.66,0-8.6,4.02-17.86,9.91-23.28,3.83-3.55,11.03-7.85,18.33-7.85,4.02,0,8.98,1.22,10.75,1.59-2.06,7.67-4.21,18.89-6.26,29.64-.47,2.43-.19,3.37.75,3.37.75,0,2.34-.75,5.24-3.74l.75,1.22ZM86.58,89.06c2.43-3.46,3.09-5.98,3.93-9.07,1.12-4.12,2.52-11.13,2.9-13.84-1.4-.75-3.18-1.31-6.36-1.31-7.76,0-11.5,16.55-11.5,25.9,0,4.21,1.22,5.61,2.62,5.61,2.15,0,4.58-1.68,8.42-7.29Z"/><path class="cls-1" d="M135.39,65.31c-2.9.09-5.33.09-8.23.19-1.96,9.63-5.05,24.59-5.24,25.53-.65,4.02-.47,5.7.84,5.7,1.96,0,4.21-1.78,7.11-4.77l.75,1.03c-3.37,4.58-9.44,10.38-14.96,10.38-3.83,0-5.52-3.18-3.18-14.12l4.96-23.75h-6.64l-.19-.47,2.06-2.34h5.33l2.06-9.63c2.99-1.22,7.39-3.46,10.57-5.7l.75.37c-1.22,3.93-2.52,10-3.65,14.96h9.07l-1.4,2.62Z"/><path class="cls-1" d="M177.56,93.46c-5.05,6.73-10.94,9.91-14.12,9.91-2.71,0-4.21-1.96-2.71-8.79.56-2.62,1.03-4.86,1.59-7.39-4.96,7.48-10,12.06-12.9,13.93-1.87,1.31-4.21,2.24-6.26,2.24-3.65,0-6.55-1.87-3.93-13.46,1.12-4.96,2.99-11.78,4.21-17.11.65-2.99.75-4.4-.37-4.4s-3.74,2.06-5.42,3.83l-.75-1.21c4.11-4.96,10.29-9.44,14.21-9.44,3.09,0,3.74,2.99,1.96,11.03-1.5,6.64-2.9,11.78-4.39,18.42-1.03,4.49.37,5.61,1.31,5.61,2.81,0,6.08-3.74,9.54-8.7,1.87-2.71,3.93-6.64,4.96-11.22.94-3.93,1.78-7.76,2.9-12.72,3.18-.75,6.45-1.59,9.63-2.43h.56c-2.15,10-4.68,20.1-6.83,31.23-.56,2.62-.37,3.83.47,3.83.75,0,2.81-1.12,5.61-4.3l.75,1.12Z"/><path class="cls-1" d="M183.82,71.11c5.33-6.64,10.66-9.54,13.75-9.54,3.55,0,3.37,4.39,1.68,12.53l-.75,3.18c3.27-6.64,9.07-15.71,13.84-15.71,2.43,0,4.21,2.06,4.21,4.58s-2.71,6.27-4.21,7.11c-.75.47-1.31.65-1.78.09-1.21-1.31-3.65-3.08-4.77-3.08-1.96,0-5.14,6.26-6.45,9.35-2.43,5.61-4.21,15.9-5.52,21.79-3.27.28-7.2,1.12-9.54,1.87l-.47-.56c2.34-9.82,4.68-20.76,5.98-27.21,1.03-5.33,1.12-6.83.19-6.83-1.5,0-3.83,2.34-5.33,3.55l-.84-1.12Z"/><path class="cls-1" d="M227.48,103.37c-4.86,0-10.38-2.71-10.38-13.09,0-8.88,3.74-17.77,10.01-23.1,3.83-3.27,9.35-5.61,13.65-5.61,5.33,0,7.39,3.37,7.39,7.01,0,8.13-12.81,12.25-20.76,14.21-.19,1.68-.19,2.8-.19,3.37,0,5.98,1.68,11.03,6.92,11.03,3.46,0,7.29-1.68,11.5-6.08l.75,1.21c-7.11,8.7-14.21,11.03-18.89,11.03ZM227.67,80.65c9.26-1.68,11.78-7.01,11.78-11.5,0-2.71-1.31-4.58-3.46-4.58-2.99,0-6.83,3.27-8.32,16.08Z"/><path class="cls-1" d="M269.14,102.32c-.69.35-1.43.54-1.79.54-3.26,0-5.11-1.81-5.11-5.86v-14.42h-3.09l-.1-.27.77-1.22h2.42v-4.35c1.41-.85,3.24-2.27,4.52-3.42l.48.05c-.05,1.3-.18,4.48-.15,7.72h4.79c.17.28.03,1.14-.24,1.49h-4.55v13.23c0,3.86,1.42,4.63,2.79,4.63.75,0,1.66-.24,2.24-.53l.23.72-3.22,1.7Z"/><path class="cls-1" d="M274.01,102.25v-.73c2.82-.47,2.96-.72,2.96-4.5v-10.13c0-3.09-.17-3.31-2.44-3.94v-.63c2.63-.37,5.17-.97,7.41-1.86-.05,1.04-.1,3.94-.1,6v10.55c0,3.72.27,3.98,3.05,4.52v.73h-10.88ZM279.06,75.38c-1.45,0-2.7-1.22-2.7-2.8,0-1.67,1.25-2.81,2.75-2.81,1.61,0,2.8,1.15,2.8,2.81s-1.18,2.8-2.85,2.8Z"/><path class="cls-1" d="M312.22,102.25v-.73c2.69-.45,2.78-.77,2.78-4.42v-8.34c0-3.72-1.23-5.29-3.7-5.29-1.27,0-2.65.43-4.25,1.81.1.65.18,1.32.18,2.31v10.02c0,3.14.36,3.47,2.62,3.91v.73h-10.13v-.73c2.59-.44,2.71-.76,2.71-3.91v-9.13c0-3.65-1.27-5.03-3.72-5.03-1.45,0-2.7.66-4.05,1.78v12.33c0,3.16.13,3.5,2.63,3.96v.73h-10.45v-.73c2.84-.47,3.02-.76,3.02-4.24v-10.26c0-3.06-.27-3.32-2.4-4.02v-.6c2.47-.3,5.11-1.14,7.3-2.04-.07,1.12-.1,2.69-.1,3.74.96-.62,1.78-1.31,2.84-2.04,1.65-1.07,2.79-1.57,4.15-1.57,2.38,0,4.19,1.32,5.11,3.84,1.18-.89,2.36-1.8,3.57-2.57,1.21-.79,2.23-1.27,3.63-1.27,3.78,0,5.82,2.91,5.82,7.71v9.28c0,3.4.19,3.58,2.59,4.05v.73h-10.15Z"/><path class="cls-1" d="M343.33,97.54c-2.98,4.08-6.57,5.31-8.24,5.31-6.16,0-9.77-4.97-9.77-10.45,0-3.49,1.3-6.45,3.37-8.65,2.16-2.27,4.72-3.27,7.08-3.27,4.6,0,7.52,3.5,7.55,7.17,0,.79-.05,1.14-.25,1.19-1.38.32-7.58.72-13.01.88-.02,6.83,3.81,9.64,7.32,9.64,1.76,0,3.62-.54,5.51-2.4l.43.57ZM334.37,81.8c-2.07,0-3.79,1.96-4.18,6.52,2.36.04,5.62.02,7.28-.15.58-.05.91-.17.91-.74,0-2.82-1.46-5.63-4-5.63Z"/><path class="cls-1" d="M147.07,25.14c-.25,1.72-1.16,6.31-1.49,7.62h-23.92v-.73c4.36-.6,4.69-.89,4.69-5.24V6.18c0-4.45-.22-4.82-3.91-5.34V.1h14.87c4.71,0,6.51-.03,7.11-.1.03,1.86.23,5.21.45,7.13l-.77.13c-.38-1.27-1.05-3.12-1.95-4.26-.92-1.21-1.85-1.44-4.82-1.44h-4.37c-1.16,0-1.33.18-1.33,1.33v11.89h5.35c3.78,0,4.03-.95,4.7-4.15h.75v9.77h-.75c-.76-3.16-.98-4.15-4.67-4.15h-5.38v11.12c0,3.46.96,3.92,3.97,3.96h3.67c2.77,0,3.47-.42,4.73-1.97.85-1.04,1.58-2.57,2.33-4.37l.72.15Z"/><path class="cls-1" d="M162.83,32.76v-.73c2.66-.37,2.79-.79,2.79-4.9v-8c0-3.42-1.38-5.15-3.77-5.15-1.57,0-3.07.63-4.38,1.76v12.07c0,3.57.29,3.69,2.82,4.23v.73h-10.75v-.73c2.81-.55,3.05-.87,3.05-4.54v-10.31c0-2.72-.28-3.02-2.4-3.71v-.6c2.53-.33,5.33-1.14,7.37-2.01-.05,1.1-.12,2.39-.1,3.81,1.12-.79,2.06-1.51,3.12-2.2,1.52-.99,2.43-1.47,3.8-1.47,4.08,0,6.1,3.04,6.1,7.6v9.23c0,3.52.24,3.75,2.57,4.21v.73h-10.23Z"/><path class="cls-1" d="M175.48,12.75c3.06-.38,5.82-1.02,7.69-1.79-.03,1.33-.05,4.32-.05,6.5v10.8c0,3.17-.45,5.27-1.2,7.46-1.82,5.18-5.01,8.59-6.47,9.88-.52.47-.98.72-1.32.72-.59,0-1.19-.59-1.19-1.26,0-.4.2-.64.58-.74,2.44-.59,3.35-1.61,3.82-2.49.41-.73.6-2.08.73-4.17.14-1.98.17-5.52.17-8.48v-11.07c0-3.83-.23-4.12-2.77-4.69v-.68ZM180.31,5.9c-1.5,0-2.73-1.22-2.73-2.8,0-1.67,1.23-2.81,2.78-2.81s2.75,1.15,2.75,2.81-1.17,2.8-2.8,2.8Z"/><path class="cls-1" d="M199.35,10.99c6.34,0,10.57,5.05,10.57,10.83,0,7.65-5.48,11.54-10.49,11.54-7.49,0-11.02-5.7-11.02-10.93,0-7.33,5.85-11.44,10.94-11.44ZM198.68,12.11c-2.9,0-4.66,3.15-4.66,8.8,0,6.67,2.3,11.37,5.73,11.37,2.38,0,4.58-1.71,4.58-9.32,0-6.44-2.13-10.85-5.66-10.85Z"/><path class="cls-1" d="M234.17,12.28c-2.21.55-2.56.99-3.8,3.83-1.36,3.11-2.89,7.04-5.99,15.08-2.98,7.85-4.01,11.06-4.76,13.71-.32,1.1-.8,1.41-1.44,1.41-1.49,0-3.07-1.1-3.07-2.43,0-.47.2-.88,1.24-1.61,1.96-1.38,3-2.34,4.14-4.73.66-1.45,1.14-2.43,1.38-3.17.14-.39-.18-1.31-.49-2.2-2.21-6.1-5.23-13.16-6.5-16.39-1-2.38-1.26-3-3.65-3.48v-.68h10.7v.68c-2.62.59-2.76.96-2.04,2.8l4.69,12.13c1.44-3.92,3.33-8.74,4.25-11.87.6-1.89.36-2.41-2.89-3.06v-.68h8.24v.68Z"/></g></svg>