<?xml version="1.0" encoding="UTF-8"?><svg id="_圖層_2" xmlns="http://www.w3.org/2000/svg" viewBox="0 0 251.09 73.22"><defs><style>.cls-1{fill:#367c8e;stroke-width:0px;}</style></defs><g id="_文字"><path class="cls-1" d="M3.02,52.9c.3,8.05,4.22,18.1,15.59,18.1,8.35,0,11.26-6.64,11.26-11.97,0-4.93-2.11-9.55-7.34-13.88l-2.41-2.01c-7.04-5.83-12.07-10.76-12.07-19.31,0-10.66,7.84-18.91,21.42-18.91,7.24,0,13.17,1.91,15.69,2.62-.8,4.02-1.91,8.25-2.41,14.48l-1.71.1c.1-8.95-2.61-15.09-12.07-15.09-7.24,0-10.76,5.33-10.76,11.36,0,5.03,2.11,8.55,8.15,13.38l2.61,2.11c7.24,5.83,12.27,10.66,12.27,19.31,0,12.67-11.46,20.01-22.93,20.01-9.35,0-16.29-4.02-18.3-5.33.4-2.41,1.11-8.25,1.51-14.99h1.51Z"/><path class="cls-1" d="M80.15,62.15c-6.44,7.54-13.17,10.76-19.11,10.76-6.64,0-11.16-4.93-11.16-14.28,0-7.74,3.32-17.4,9.96-23.43,4.22-3.82,10.56-7.24,15.99-7.24,4.02,0,7.34,1.81,7.34,4.63,0,1.71-1.21,4.02-3.62,5.33-1.41.8-2.41.5-3.22-.91-2.31-3.82-4.12-5.43-6.64-5.43-4.43,0-8.45,10.06-8.45,24.24,0,8.25,3.12,10.96,6.74,10.96,4.43,0,8.35-2.92,11.47-6.03l.7,1.41Z"/><path class="cls-1" d="M91.21,3.72c4.12-.5,10.46-1.71,13.58-2.82,1.81-.6,2.92-.91,3.42-.91.8,0,.7,1.31.2,3.72-2.72,13.58-5.63,27.35-8.45,40.93,6.34-10.06,15.39-16.69,21.52-16.69,3.62,0,6.64,1.51,3.92,14.08-1.51,6.54-2.82,12.87-4.42,19.51-.7,2.82-.3,3.62.6,3.62.8,0,2.72-.8,5.83-4.02l.8,1.21c-5.63,7.44-12.47,10.56-15.49,10.56-3.32,0-4.22-2.11-2.51-9.45,1.61-7.34,3.42-14.58,5.13-21.92,1.11-5.03.5-7.04-1.51-7.04-2.92,0-7.24,3.02-12.17,11.77-1.81,3.32-2.92,7.24-3.62,10.16-1.21,4.73-2.51,10.46-2.82,14.38-3.72.3-7.34,1.21-10.76,2.11l-.4-.8c4.02-18.2,8.25-39.32,12.07-60.24,1.01-5.43.5-6.13-3.72-6.74q-.7-.1-1.51-.2l.3-1.21Z"/><path class="cls-1" d="M174.48,42.64c0,10.56-5.13,21.52-14.48,26.95-3.42,2.01-7.14,3.32-11.57,3.32-10.36,0-13.68-7.14-13.68-14.78,0-12.87,7.14-23.23,16.19-27.66,3.22-1.51,6.74-2.51,10.36-2.51,8.85,0,13.17,6.13,13.17,14.68ZM146.01,58.33c0,8.45,2.82,11.97,6.13,11.97,8.95,0,11.16-20.72,11.16-27.76,0-8.45-2.51-11.87-5.73-11.87-8.75,0-11.57,20.32-11.57,27.66Z"/><path class="cls-1" d="M220.53,42.64c0,10.56-5.13,21.52-14.48,26.95-3.42,2.01-7.14,3.32-11.57,3.32-10.36,0-13.68-7.14-13.68-14.78,0-12.87,7.14-23.23,16.19-27.66,3.22-1.51,6.74-2.51,10.36-2.51,8.85,0,13.17,6.13,13.17,14.68ZM192.07,58.33c0,8.45,2.82,11.97,6.13,11.97,8.95,0,11.16-20.72,11.16-27.76,0-8.45-2.51-11.87-5.73-11.87-8.75,0-11.57,20.32-11.57,27.66Z"/><path class="cls-1" d="M246.57,62.25c-5.73,7.44-11.87,10.66-15.29,10.66-3.22,0-4.32-2.82-2.92-9.86,3.22-16.69,7.24-36,10.26-51.79.91-4.22.3-4.32-3.82-5.33-.8-.2-1.11-.2-1.61-.3l.3-1.31c5.03-.5,10.56-1.61,13.68-2.82,1.61-.6,2.82-.91,3.32-.91.8,0,.7,1.31.2,3.72-3.72,18.71-7.74,37.82-11.57,57.23-.6,2.82-.2,3.72.7,3.72.8,0,2.92-.91,5.93-4.22l.8,1.21Z"/></g></svg>