<?xml version="1.0" encoding="UTF-8"?><svg id="_圖層_2" xmlns="http://www.w3.org/2000/svg" viewBox="0 0 23.42 23.42"><defs><style>.cls-1{fill:#123738;stroke-width:0px;}</style></defs><g id="_文字"><path class="cls-1" d="M19.34,16.96v1.53H4.1v-1.53h2.21v-7.77h1.63v7.77h3.39V6.3h-6.62v-1.55h14.1v1.55h-5.81v4.17h5.07v1.53h-5.07v4.96h6.33Z"/><path class="cls-1" d="M17.7,1.5c1.78,1,3.18,2.38,4.2,4.16,1.01,1.78,1.52,3.79,1.52,6.03s-.51,4.33-1.52,6.12c-1.01,1.78-2.41,3.17-4.2,4.15-1.78.98-3.79,1.47-6.02,1.47s-4.16-.5-5.93-1.5c-1.78-1-3.18-2.39-4.21-4.17-1.03-1.78-1.55-3.81-1.55-6.07s.52-4.18,1.57-5.97c1.05-1.78,2.46-3.18,4.25-4.2,1.78-1.01,3.74-1.52,5.87-1.52s4.23.5,6.02,1.5ZM17.16,20.96c1.61-.9,2.86-2.16,3.76-3.77.9-1.61,1.34-3.44,1.34-5.5s-.45-3.84-1.36-5.44c-.9-1.6-2.16-2.86-3.77-3.77-1.61-.91-3.43-1.37-5.45-1.37s-3.72.47-5.33,1.41c-1.61.94-2.88,2.22-3.81,3.83-.93,1.62-1.39,3.4-1.39,5.34s.45,3.82,1.36,5.44c.9,1.62,2.16,2.89,3.77,3.81,1.61.92,3.41,1.38,5.4,1.38s3.87-.45,5.48-1.36Z"/></g></svg>